<svg xmlns="http://www.w3.org/2000/svg" width="461" height="461" fill="none"><path fill="#F5F5F5" d="M230.5 446.165c123.284 0 223.225-57.7 223.225-128.877S353.784 188.411 230.5 188.411c-123.284 0-223.2256 57.7-223.2256 128.877S107.216 446.165 230.5 446.165Z"/><path fill="#E0E0E0" d="M339.913 395.925c31.841 0 57.653-14.902 57.653-33.284 0-18.382-25.812-33.284-57.653-33.284-31.84 0-57.652 14.902-57.652 33.284 0 18.382 25.812 33.284 57.652 33.284ZM200.59 398.959c32.146 0 58.206-15.047 58.206-33.607 0-18.561-26.06-33.607-58.206-33.607s-58.206 15.046-58.206 33.607c0 18.56 26.06 33.607 58.206 33.607Z"/><path fill="#E0E0E0" d="m412.577 366.956 15.674-9.026c1.383-.803 1.383-2.093 0-2.896L376.748 325.3a5.5272 5.5272 0 0 0-2.513-.603c-.873 0-1.734.206-2.512.603l-15.628 9.026c-1.392.802-1.392 2.093 0 2.895l51.429 29.735a5.5363 5.5363 0 0 0 5.053 0ZM115.582 370.875l-89.3051-51.54L211.58 212.346l89.305 51.54-185.303 106.989Z"/><path fill="#7F3A6A" d="M422.737 307.312v42.605a7.537 7.537 0 0 1-3.356 5.837l-4.02 2.323a7.3784 7.3784 0 0 1-4.739.692 6.0181 6.0181 0 0 1-1.955-.637.2783.2783 0 0 1-.092-.055l-.249-.138-47.289-27.31a11.1529 11.1529 0 0 1-5.588-9.672v-40.051c.028-.499.173-.984.423-1.416.25-.432.598-.8 1.016-1.074l7.901-4.554c.442-.228.932-.346 1.429-.346s.987.118 1.429.346l53.651 30.97c.425.263.774.632 1.015 1.069.257.427.403.912.424 1.411Z"/><path fill="#000" d="M422.737 307.312v42.606a7.515 7.515 0 0 1-.99 3.313 7.527 7.527 0 0 1-2.366 2.523l-4.02 2.323a7.3775 7.3775 0 0 1-4.739.692 6.056 6.056 0 0 1-1.955-.636c1.844.857 3.301-.102 3.301-2.278v-41.453a4.4198 4.4198 0 0 0-.636-2.148l10.944-6.353c.271.424.429.909.461 1.411Z" opacity=".2"/><path fill="#000" d="M411.968 314.402a4.8224 4.8224 0 0 0-.636-2.138 4.8171 4.8171 0 0 0-1.531-1.624l-50.71-29.273c-2.01-1.162-3.688-.212-3.688 2.102v37.507a11.152 11.152 0 0 0 1.496 5.585 11.1556 11.1556 0 0 0 4.092 4.087l47.289 27.309c2.001 1.153 3.642.212 3.642-2.102l.046-41.453Z" opacity=".3"/><path fill="#7F3A6A" d="M355.449 294.791a9.2296 9.2296 0 0 0 1.221 4.096 9.2345 9.2345 0 0 0 2.937 3.105l48.203 27.826c2.286 1.328 4.158.24 4.158-2.397v-14.245c-.001-.402.104-.797.304-1.145.201-.349.491-.637.839-.838l7.376-4.25-55.698-33.109-8.196 4.702c-.348.202-.636.491-.837.839-.2.348-.306.742-.307 1.143v14.273Z" opacity=".6"/><path fill="#7F3A6A" d="m364.789 273.834-8.196 4.702c-.367.224-.666.543-.867.922l56.565 32.538c.197-.338.48-.618.82-.812l7.376-4.25-55.698-33.1Z"/><path fill="#37474F" d="m379.947 310.53 7.496 4.333a4.61 4.61 0 0 1 1.482 1.551c.365.626.578 1.33.62 2.054v1.706c0 1.327-.922 1.844-2.065 1.208l-7.542-4.361a4.6118 4.6118 0 0 1-2.084-3.606v-1.678c.009-1.327.94-1.871 2.093-1.207Z"/><path fill="#263238" d="M383.146 281.275v5.928l-3.43 1.982v-9.044c0-.471.332-.655.729-.425l2.701 1.559Z"/><path fill="#455A64" d="M401.07 287.563v11.064l-2.545 1.475-1.715-.987v-9.054a1.6005 1.6005 0 0 0-.212-.719 1.6084 1.6084 0 0 0-.516-.544l-12.973-7.487-2.701-1.558c-.396-.23-.728-.046-.728.424v9.045l-1.66-1.032v-11.166c.035-.228.118-.447.243-.64.126-.194.291-.359.485-.485l1.079-.627a1.6482 1.6482 0 0 1 1.466 0l19.095 11.064a1.6263 1.6263 0 0 1 .682 1.227Z"/><path fill="#37474F" d="M398.562 289.038v11.064l-1.715-.987v-9.054a1.6132 1.6132 0 0 0-.212-.719 1.618 1.618 0 0 0-.516-.544l-12.973-7.487-2.701-1.558c-.397-.23-.729-.046-.729.424v9.045l-1.696-1.032v-11.166c.065-.36.369-.489.728-.277l19.095 11.064c.205.137.376.319.5.531.125.213.2.45.219.696Z"/><path fill="#455A64" d="M61.396 279.053c.0013.331.0384.662.1106.986.1208.559.4507 1.05.922 1.374a2.575 2.575 0 0 0 1.4141.299 2.5755 2.5755 0 0 0 1.3519-.511 8.2993 8.2993 0 0 0 2.6257-2.782 8.2923 8.2923 0 0 0 1.0992-3.663 2.6741 2.6741 0 0 0-1.0603-2.388l-.1844-.101a2.3025 2.3025 0 0 0-1.6043-.065c-.321.098-.6302.231-.922.397a8.2879 8.2879 0 0 0-2.643 2.781 8.2915 8.2915 0 0 0-1.1095 3.673Z"/><path fill="#263238" d="M62.4284 270.967a3.3919 3.3919 0 0 1 1.6688-.508c.3744-.005.7426.097 1.0603.296l.1014.055 2.4249 1.401a2.3024 2.3024 0 0 0-1.6043-.064c-.321.098-.6302.23-.922.396a8.296 8.296 0 0 0-3.7618 6.51c.0013.331.0384.662.1107.986.1208.559.4506 1.05.922 1.374l-2.4987-1.438-.212-.13a.1292.1292 0 0 1-.0646-.046 2.7659 2.7659 0 0 1-.922-2.305 8.297 8.297 0 0 1 3.6973-6.527Z"/><path fill="#455A64" d="M102.093 257.173c-.002.332.032.663.101.987.122.558.452 1.049.922 1.374.433.232.924.336 1.414.298.491-.037.96-.214 1.352-.51a8.3056 8.3056 0 0 0 2.661-2.805 8.2989 8.2989 0 0 0 1.101-3.705c.044-.454-.029-.913-.213-1.331a2.6725 2.6725 0 0 0-.838-1.057l-.184-.11a2.3616 2.3616 0 0 0-1.605-.056c-.321.098-.63.231-.922.397a8.306 8.306 0 0 0-2.678 2.804 8.3056 8.3056 0 0 0-1.111 3.714Z"/><path fill="#263238" d="M103.116 249.087a3.395 3.395 0 0 1 1.678-.507c.372-.004.737.098 1.051.295l.102.056 2.425 1.392a2.3615 2.3615 0 0 0-1.605-.055c-.321.097-.63.23-.922.396a8.3003 8.3003 0 0 0-2.655 2.806 8.2935 8.2935 0 0 0-1.097 3.703c-.002.332.032.663.101.987.122.558.452 1.05.922 1.374l-2.498-1.439-.212-.129h-.065a2.7565 2.7565 0 0 1-.734-1.043 2.7659 2.7659 0 0 1-.1879-1.262 8.2956 8.2956 0 0 1 1.0589-3.731 8.2972 8.2972 0 0 1 2.638-2.843Z"/><path fill="#455A64" d="M94.8274 287.599a4.549 4.549 0 0 1-.1014.978 2.281 2.281 0 0 1-.922 1.383 2.6169 2.6169 0 0 1-1.4135.292 2.621 2.621 0 0 1-1.3525-.504 8.3056 8.3056 0 0 1-2.6624-2.809 8.2957 8.2957 0 0 1-1.0994-3.71 2.6669 2.6669 0 0 1 .2198-1.328 2.67 2.67 0 0 1 .8405-1.051l.1844-.11a2.3281 2.3281 0 0 1 1.5951-.065c.3239.094.634.23.922.406a8.2975 8.2975 0 0 1 3.7894 6.518Z"/><path fill="#263238" d="M93.804 279.514a3.4269 3.4269 0 0 0-1.678-.508 1.993 1.993 0 0 0-1.0603.295l-.0922.047-2.4618 1.401a2.3398 2.3398 0 0 1 1.5951-.065c.3239.094.634.231.922.406a8.298 8.298 0 0 1 3.7617 6.509 4.549 4.549 0 0 1-.1014.978 2.281 2.281 0 0 1-.922 1.383l2.4894-1.448.2121-.129h.0645a2.7651 2.7651 0 0 0 .922-2.314 8.297 8.297 0 0 0-3.6511-6.555Z"/><path fill="#455A64" d="M121.243 274.655a5.27 5.27 0 0 1-.102.986 2.3132 2.3132 0 0 1-.922 1.383 2.631 2.631 0 0 1-1.413.289 2.6335 2.6335 0 0 1-1.353-.501 8.2955 8.2955 0 0 1-3.761-6.519 2.646 2.646 0 0 1 .218-1.328c.186-.416.476-.778.842-1.05l.175-.102a2.3338 2.3338 0 0 1 1.595-.064c.324.095.633.232.922.405a8.3 8.3 0 0 1 3.799 6.501Z"/><path fill="#263238" d="M120.219 266.569a3.544 3.544 0 0 0-1.678-.507c-.374-.002-.741.1-1.06.295l-.092.055-2.425 1.401a2.3333 2.3333 0 0 1 1.595-.064c.323.095.633.232.922.405a8.2937 8.2937 0 0 1 2.658 2.801 8.295 8.295 0 0 1 1.104 3.7 5.27 5.27 0 0 1-.102.986 2.3132 2.3132 0 0 1-.922 1.383l2.49-1.447.212-.13h.064c.324-.286.576-.645.737-1.047.16-.402.223-.836.185-1.267a8.2854 8.2854 0 0 0-1.056-3.724 8.2983 8.2983 0 0 0-2.632-2.84Z"/><path fill="#455A64" d="M70.1915 258.787a4.599 4.599 0 0 1-.1107.986 2.2938 2.2938 0 0 1-.922 1.383c-.4343.229-.9242.33-1.4135.292a2.6039 2.6039 0 0 1-1.3525-.504 8.2867 8.2867 0 0 1-2.6162-2.797 8.301 8.301 0 0 1-1.081-3.675 2.6533 2.6533 0 0 1 .2185-1.328 2.654 2.654 0 0 1 .8418-1.051l.1844-.101a2.36 2.36 0 0 1 1.6043-.065c.3227.098.6323.234.922.406a8.3037 8.3037 0 0 1 2.6277 2.785 8.3014 8.3014 0 0 1 1.0972 3.669Z"/><path fill="#263238" d="M69.1499 250.701a3.4952 3.4952 0 0 0-1.6688-.507 2.0323 2.0323 0 0 0-1.0603.295l-.1014.055-2.4249 1.402a2.36 2.36 0 0 1 1.6043-.065c.3227.097.6323.234.922.406a8.2972 8.2972 0 0 1 3.7618 6.5 4.599 4.599 0 0 1-.1107.986 2.2938 2.2938 0 0 1-.922 1.383l2.4894-1.447.2121-.129h.0645a2.7686 2.7686 0 0 0 .922-2.314 8.2977 8.2977 0 0 0-3.688-6.565Z"/><path fill="#EBEBEB" d="m92.6426 250.839 13.4244-3.854v2.868l-13.4244 7.754v-6.768Z"/><path fill="#F5F5F5" d="m92.6426 250.839-1.3277-.811 13.4701-3.679 1.282.636-13.4244 3.854Z"/><path fill="#EBEBEB" d="m86.8337 259.395-19.0393-7.127v-2.904l19.0393 1.696v8.335Z"/><path fill="#F5F5F5" d="m67.7944 249.364 1.4015-.369 18.7719 1.208-1.1341.858-19.0393-1.697Z"/><path fill="#FAFAFA" d="M86.3174 258.483c0 2.157 6.6292 2.157 6.6292 0v-18.828h-6.6292v18.828Z"/><path fill="#F5F5F5" d="m91.278 253.55 3.688 23.677h-2.4894l-3.4483-23.677a3.9862 3.9862 0 0 0 2.2497 0Z"/><path fill="#EBEBEB" d="M89.0283 253.587v6.491l3.4114 21.15v-4.001l-3.4114-23.64Z"/><path fill="#E0E0E0" d="M94.9289 277.227h-2.4894v4.001h2.4894v-4.001Z"/><path fill="#EBEBEB" d="m87.8942 259.884-24.5436 12.871v-3.964l24.5436-15.186v6.279Z"/><path fill="#F5F5F5" d="M87.8942 253.605a2.8196 2.8196 0 0 1-1.5766-.719l-24.5437 14.863 1.5398 1.042 24.5805-15.186Z"/><path fill="#E0E0E0" d="M63.3503 272.755v-3.964l-1.5398-1.042v3.845l1.5398 1.161Z"/><path fill="#EBEBEB" d="m118.846 268.201-26.222-8.972v-5.891l26.222 10.907v3.956Z"/><path fill="#F5F5F5" d="M92.624 253.338c.2121-.065.3043-.443.3227-1.024l26.6733 11.608-.774.323-26.222-10.907Z"/><path fill="#E0E0E0" d="M119.62 263.922v3.836l-.774.443v-3.956l.774-.323Z"/><path fill="#000" d="M94.9289 277.227h-2.4894v4.001h2.4894v-4.001ZM63.3503 272.755v-3.964l-1.5398-1.042v3.845l1.5398 1.161ZM119.62 263.922v3.836l-.774.443v-3.956l.774-.323Z" opacity=".1"/><path fill="#F0F0F0" d="M95.2422 206.851H84.0215v38.834c0 3.218 11.2207 3.218 11.2207 0v-38.834Z"/><path fill="#7F3A6A" d="m49.8707 201.475 42.9652-22.441s3.0149-14.697-7.164-30.721c0 0 3.0334-28.582-2.056-38.042-3.688-7.247-8.1689-6.251-8.1689-6.251l-48.8015 22.027 23.2252 75.428Z"/><path fill="#000" d="m49.8707 201.475 42.9652-22.441s3.0149-14.697-7.164-30.721c0 0 3.0334-28.582-2.056-38.042-3.688-7.247-8.1689-6.251-8.1689-6.251l-48.8015 22.027 23.2252 75.428Z" opacity=".2"/><path fill="#7F3A6A" d="m75.447 104.02-48.8015 22.027 1.6043 5.209 53.3653-24.092c-3.144-3.817-6.1681-3.144-6.1681-3.144Z"/><path fill="#fff" d="M75.6039 149.687a.9247.9247 0 0 0 .1755.44c.0959.129.2237.23.3709.294a.922.922 0 0 0 .9104-.098 2.3144 2.3144 0 0 0 1.0971-2.112c-.1014-.756-.756-1.041-1.4659-.636a2.33 2.33 0 0 0-.8342.906 2.325 2.325 0 0 0-.2538 1.206ZM68.2279 153.974a.9247.9247 0 0 0 .1755.44.9196.9196 0 0 0 .8392.366.9216.9216 0 0 0 .4421-.17c.3569-.219.6475-.532.8407-.904a2.314 2.314 0 0 0 .2565-1.207c-.1015-.756-.7561-1.042-1.466-.636a2.317 2.317 0 0 0-.8342.906 2.3223 2.3223 0 0 0-.2538 1.205ZM60.7505 158.28a.9238.9238 0 0 0 .1756.44.917.917 0 0 0 .3708.294.9179.9179 0 0 0 .4683.072.9216.9216 0 0 0 .4421-.17 2.3145 2.3145 0 0 0 1.0972-2.112c-.1014-.756-.7561-1.041-1.466-.636a2.3055 2.3055 0 0 0-1.088 2.112ZM53.3101 162.576c.0192.16.0797.311.1756.44a.9187.9187 0 0 0 .3708.295.9284.9284 0 0 0 .4683.072.923.923 0 0 0 .4421-.171c.3569-.219.6475-.532.8407-.904.1932-.371.2819-.789.2565-1.207-.1015-.756-.7561-1.042-1.466-.636a2.3055 2.3055 0 0 0-1.088 2.111Z" opacity=".4"/><path fill="#7F3A6A" d="M141.988 197.308v2.369a8.6108 8.6108 0 0 1-1.224 3.984 8.6044 8.6044 0 0 1-2.953 2.941l-47.9438 25.143a9.5665 9.5665 0 0 1-4.168.864 9.5701 9.5701 0 0 1-4.13-1.03l-27.66-15.951a9.0575 9.0575 0 0 1-2.8889-3.057 9.0572 9.0572 0 0 1-1.1956-4.033v-2.37a8.5535 8.5535 0 0 1 1.227-3.977 8.5489 8.5489 0 0 1 2.9589-2.928l45.3347-23.687a10.404 10.404 0 0 1 4.1967-.925c1.448-.013 2.883.277 4.212.852l29.919 14.973a8.365 8.365 0 0 1 3.036 2.861 8.3624 8.3624 0 0 1 1.279 3.971Z"/><path fill="#000" d="M141.988 197.308v2.369a8.6108 8.6108 0 0 1-1.224 3.984 8.6044 8.6044 0 0 1-2.953 2.941l-47.9438 25.143a9.5665 9.5665 0 0 1-4.168.864 9.5701 9.5701 0 0 1-4.13-1.03l-27.66-15.951a9.0575 9.0575 0 0 1-2.8889-3.057 9.0572 9.0572 0 0 1-1.1956-4.033v-2.37a8.5535 8.5535 0 0 1 1.227-3.977 8.5489 8.5489 0 0 1 2.9589-2.928l45.3347-23.687a10.404 10.404 0 0 1 4.1967-.925c1.448-.013 2.883.277 4.212.852l29.919 14.973a8.365 8.365 0 0 1 3.036 2.861 8.3624 8.3624 0 0 1 1.279 3.971Z" opacity=".2"/><path fill="#000" d="M86.7786 232.593a9.3606 9.3606 0 0 1-5.1909-.987l-27.66-15.95a9.0497 9.0497 0 0 1-2.8878-3.053 9.0433 9.0433 0 0 1-1.1966-4.028v-2.379a8.6014 8.6014 0 0 1 3.6326-6.537c-1.7057 1.217-1.5397 2.997.4979 4.177l27.66 15.96a8.8063 8.8063 0 0 0 4.2228 1.014l.922 11.783Z" opacity=".2"/><path fill="#7F3A6A" d="m89.8579 219.952 47.9441-25.143c2.305-1.207 2.286-3.134 0-4.305l-29.919-14.974a10.3889 10.3889 0 0 0-4.212-.851c-1.448.012-2.878.328-4.1967.925L54.0566 199.29c-2.3142 1.208-2.3603 3.246-.1014 4.546l27.66 15.95a9.4764 9.4764 0 0 0 4.1024 1.024 9.4866 9.4866 0 0 0 4.1403-.858Z"/><path fill="#7F3A6A" d="m89.8579 219.952 47.9441-25.143c2.305-1.207 2.286-3.134 0-4.305l-29.919-14.974a10.3889 10.3889 0 0 0-4.212-.851c-1.448.012-2.878.328-4.1967.925L54.0566 199.29c-2.3142 1.208-2.3603 3.246-.1014 4.546l27.66 15.95a9.4764 9.4764 0 0 0 4.1024 1.024 9.4866 9.4866 0 0 0 4.1403-.858Z"/><path fill="#7F3A6A" d="M75.4473 104.02s7.0625-4.7852 14.503-.489c7.4406 4.297 4.988 18.763 4.1951 28.084-.7929 9.322-1.0234 25.558 5.4306 31.468 6.454 5.91 27.891-1.945 37.212-1.945l-8.215 30.315c-9.073-4.932-23.576-10.003-35.7737-12.419 0 0 .3965-18.901-8.298-29.698 0 0 3.1993-7.56 1.1064-22.709-1.8717-14.023-4.4717-19.334-10.1604-22.607Z"/><path fill="#000" d="M75.4473 104.02s7.0625-4.7852 14.503-.489c7.4406 4.297 4.988 18.763 4.1951 28.084-.7929 9.322-1.0234 25.558 5.4306 31.468 6.454 5.91 27.891-1.945 37.212-1.945l-8.215 30.315c-9.073-4.932-23.576-10.003-35.7737-12.419 0 0 .3965-18.901-8.298-29.698 0 0 3.1993-7.56 1.1064-22.709-1.8717-14.023-4.4717-19.334-10.1604-22.607Z" opacity=".35"/><path fill="#7F3A6A" d="M128.61 191.453c-.424-2.701-2.149-18.311.765-25.097 2.536-5.91 9.22-6.26 11.258-3.688 2.037 2.573.23 5.597-3.098 9.93-2.766 3.688-3.808 7.081-3.808 15.942l-5.117 2.913Z"/><path fill="#000" d="M128.61 191.453c-.424-2.701-2.149-18.311.765-25.097 2.536-5.91 9.22-6.26 11.258-3.688 2.037 2.573.23 5.597-3.098 9.93-2.766 3.688-3.808 7.081-3.808 15.942l-5.117 2.913Z" opacity=".2"/><path fill="#fff" d="M136.834 163.655a2.607 2.607 0 0 1 1.844.581c.737.922-.24 2.987-3.163 6.795-3.088 4.038-4.176 7.975-4.315 15.619a.6446.6446 0 0 1-.088.338.6492.6492 0 0 1-.253.243l-.221.11c-.646-6.989-.71-15.914 1.033-19.998a5.6599 5.6599 0 0 1 5.144-3.688m0-.627c-1.25.031-2.463.435-3.483 1.159a6.2888 6.2888 0 0 0-2.242 2.907c-1.946 4.555-1.632 14.282-1.079 20.284.007.109.043.215.103.306a.6378.6378 0 0 0 .556.286.6385.6385 0 0 0 .309-.094l.203-.111a1.326 1.326 0 0 0 .645-1.115c.139-7.634 1.199-11.35 4.195-15.25 3.255-4.251 4.131-6.38 3.135-7.588a3.1506 3.1506 0 0 0-1.089-.642 3.1505 3.1505 0 0 0-1.253-.16v.018Z" opacity=".5"/><path fill="#7F3A6A" d="m48.0915 214.761 33.192 16.661-.7099-12.226 5.1171-2.95c-.3688-9.478-2.9596-19.196-9.6718-21.354-8.381-2.655-19.2698-3.512-25.816-9.413-6.5462-5.901-6.2604-22.128-5.4674-31.477.7929-9.349 3.2546-23.779-4.1859-28.075-7.4406-4.297-14.5123.479-14.5123.479-3.1809 2.065-6.8873 3.559-6.5739 6.067a2.7013 2.7013 0 0 0 2.2682 2.554l18.5137 70.072a15.1516 15.1516 0 0 0 2.8849 5.674 15.1443 15.1443 0 0 0 4.9613 3.988Z"/><path fill="#000" d="m48.0915 214.761 33.192 16.661-.7099-12.226 5.1171-2.95c-.3688-9.478-2.9596-19.196-9.6718-21.354-8.381-2.655-19.2698-3.512-25.816-9.413-6.5462-5.901-6.2604-22.128-5.4674-31.477.7929-9.349 3.2546-23.779-4.1859-28.075-7.4406-4.297-14.5123.479-14.5123.479-3.1809 2.065-6.8873 3.559-6.5739 6.067a2.7013 2.7013 0 0 0 2.2682 2.554l18.5137 70.072a15.1516 15.1516 0 0 0 2.8849 5.674 15.1443 15.1443 0 0 0 4.9613 3.988Z" opacity=".5"/><path fill="#7F3A6A" d="M35.672 134.612c2.9781 3.568 4.5086 9.22 3.9646 23.142-.544 13.922-.3319 25.134 5.1171 31.957 6.454 8.086 28.582 14.53 28.582 14.53l8.6484-3.955a10.8259 10.8259 0 0 0-5.993-5.348c-8.381-2.655-19.2698-3.512-25.816-9.413-6.5462-5.901-6.2604-22.128-5.4675-31.477.7929-9.349 3.2547-23.779-4.1859-28.075-7.4405-4.297-14.5122.479-14.5122.479-3.1809 2.065-6.8874 3.559-6.5739 6.067a2.7018 2.7018 0 0 0 2.2681 2.554c4.1767-1.383 10.9903-4.066 13.9683-.461Z"/><path fill="#000" d="M35.672 134.612c2.9781 3.568 4.5086 9.22 3.9646 23.142-.544 13.922-.3319 25.134 5.1171 31.957 6.454 8.086 28.582 14.53 28.582 14.53l8.6484-3.955a10.8259 10.8259 0 0 0-5.993-5.348c-8.381-2.655-19.2698-3.512-25.816-9.413-6.5462-5.901-6.2604-22.128-5.4675-31.477.7929-9.349 3.2547-23.779-4.1859-28.075-7.4405-4.297-14.5122.479-14.5122.479-3.1809 2.065-6.8874 3.559-6.5739 6.067a2.7018 2.7018 0 0 0 2.2681 2.554c4.1767-1.383 10.9903-4.066 13.9683-.461Z" opacity=".35"/><path fill="#7F3A6A" d="m80.555 219.196 5.1171-2.95c0-5.67-1.4567-17.998-8.6391-20.976-5.698-2.369-8.4456 1.107-8.381 3.255.0645 2.416 1.844 4.001 4.693 5.67 3.8171 2.195 7.21 6.141 7.21 15.001Z"/><path fill="#000" d="m80.555 219.196 5.1171-2.95c0-5.67-1.4567-17.998-8.6391-20.976-5.698-2.369-8.4456 1.107-8.381 3.255.0645 2.416 1.844 4.001 4.693 5.67 3.8171 2.195 7.21 6.141 7.21 15.001Z" opacity=".2"/><path fill="#fff" d="M73.4831 196.994c.894.032 1.7736.236 2.5908.6 4.7391 1.973 6.7491 10.142 7.0441 17.094a.1827.1827 0 0 1-.0166.099.1868.1868 0 0 1-.0664.076l-.2305.129c-.8298-6.03-3.5128-10.28-8.2058-12.982-3.1255-1.798-3.4114-2.766-3.4298-3.559.0457-.298.1921-.571.4149-.774.2524-.239.5514-.423.8783-.54a2.5155 2.5155 0 0 1 1.021-.143Zm0-.627a3.153 3.153 0 0 0-1.2656.189c-.4045.15-.7739.38-1.0855.678-.3379.329-.55.766-.5993 1.236 0 1.171.6915 2.323 3.7526 4.084 4.61 2.674 7.2469 6.943 7.966 13.037.0088.068.0415.13.0923.176a.2909.2909 0 0 0 .1843.073.25.25 0 0 0 .1383 0l.6823-.396a.8212.8212 0 0 0 .4057-.747c-.3043-7.164-2.4249-15.564-7.4405-17.647a7.4945 7.4945 0 0 0-2.8306-.646v-.037Z" opacity=".5"/><path fill="#7F3A6A" d="m115.821 274.415-76.7561-44.311L212.77 129.808l76.756 44.321-173.705 100.286Z"/><path fill="#fff" d="m115.821 274.415-76.7561-44.311L212.77 129.808l76.756 44.321-173.705 100.286Z" opacity=".8"/><path fill="#7F3A6A" d="M39.0649 230.104v88.622l4.0384 2.333v-9.322l68.6797 39.646v9.331l4.038 2.333v-88.632l-76.7561-44.311Z"/><path fill="#fff" d="M39.0649 230.104v88.622l4.0384 2.333v-9.322l68.6797 39.646v9.331l4.038 2.333v-88.632l-76.7561-44.311Z" opacity=".6"/><path fill="#7F3A6A" d="m43.1035 321.059 4.0384-2.333v-4.665l-4.0384-2.324v9.322Z"/><path fill="#7F3A6A" d="m43.1035 321.059 4.0384-2.333v-4.665l-4.0384-2.324v9.322ZM115.821 363.047l4.039-2.333v-9.331l165.628-95.629v9.33l4.038-2.332v-88.623L115.821 274.415v88.632Z"/><path fill="#fff" d="m115.821 363.047 4.039-2.333v-9.331l165.628-95.629v9.33l4.038-2.332v-88.623L115.821 274.415v88.632Z" opacity=".7"/><path fill="#7F3A6A" d="m285.488 265.084-4.038-2.332v-4.666l4.038-2.332v9.33Z"/><path fill="#000" d="m175.447 180.592 12.825 7.376a1.8981 1.8981 0 0 0 1.724 0l50.793-29.329c.48-.267.48-.719 0-.995l-12.825-7.376a1.8981 1.8981 0 0 0-1.724 0l-50.793 29.319c-.479.286-.479.738 0 1.005ZM125.604 196.487l32.058 18.496c.285.147.601.224.922.224.32 0 .637-.077.922-.224l23.575-13.609a.5458.5458 0 0 0 .266-.202.5541.5541 0 0 0 0-.638.5518.5518 0 0 0-.266-.202l-32.03-18.495a2.0112 2.0112 0 0 0-.922-.224c-.321 0-.637.077-.922.224l-23.603 13.627a.5552.5552 0 0 0-.25.204.552.552 0 0 0-.093.308c0 .109.032.217.093.308s.148.162.25.203Z" opacity=".2"/><path fill="#EBEBEB" d="m125.604 194.819 32.058 18.495c.285.147.601.224.922.224.321 0 .637-.077.922-.224l23.511-13.609a.555.555 0 0 0 .266-.202.5592.5592 0 0 0 .101-.319.556.556 0 0 0-.101-.318.557.557 0 0 0-.266-.203l-32.031-18.495a2.0112 2.0112 0 0 0-.922-.224c-.32 0-.637.077-.922.224l-23.575 13.609a.553.553 0 0 0-.349.534c.004.114.043.224.112.315a.557.557 0 0 0 .274.193Z"/><path fill="#E0E0E0" d="m149.179 180.168-22.386 12.908 30.869 17.822c.283.152.6.231.922.231.321 0 .638-.079.922-.231l22.386-12.908-30.841-17.813a2.0068 2.0068 0 0 0-.935-.235 2.009 2.009 0 0 0-.937.226Z"/><path fill="#FAFAFA" d="m125.604 191.564 32.058 18.495c.285.147.601.224.922.224.321 0 .637-.077.922-.224l23.575-13.608a.5477.5477 0 0 0 .266-.203.5488.5488 0 0 0 .101-.318c0-.114-.035-.226-.101-.319a.5458.5458 0 0 0-.266-.202l-32.03-18.496a2.0112 2.0112 0 0 0-.922-.224c-.321 0-.637.077-.922.224l-23.576 13.609a.5591.5591 0 0 0-.271.195.5495.5495 0 0 0-.11.316.558.558 0 0 0 .093.322c.063.095.154.168.261.209Z"/><path fill="#000" d="M70.7725 229.772c3.4759 2 3.4759 5.255 0 7.256a13.892 13.892 0 0 1-12.5576 0c-3.476-2.001-3.476-5.256 0-7.256a13.8798 13.8798 0 0 1 6.2788-1.501c2.1818 0 4.3328.514 6.2788 1.501Z" opacity=".2"/><path fill="#EBEBEB" d="M69.7676 233.782c2.766-2.858 4.4441-9.994 1.7149-12.262H57.5788c-2.766 2.268-1.088 9.404 1.7057 12.262l.083.083.0922.093.2581.221.0646.055.212.157c.1134.086.2337.163.3596.23a9.2204 9.2204 0 0 0 8.3441 0c.124-.07.244-.147.3596-.23.0738-.046.1291-.102.1936-.148l.083-.064.2489-.221.1107-.102.0737-.074Z"/><path fill="#FAFAFA" d="M58.7865 220.607c-3.1717 1.844-3.1717 4.804 0 6.638a12.7232 12.7232 0 0 0 5.744 1.37c1.9956 0 3.9632-.469 5.7441-1.37 3.1717-1.844 3.1717-4.803 0-6.638a12.6713 12.6713 0 0 0-5.7441-1.376 12.671 12.671 0 0 0-5.744 1.376Z"/><path fill="#EBEBEB" d="M61.0361 221.907c-1.9362 1.116-1.9362 2.923 0 4.038 1.0828.55 2.28.837 3.4944.837a7.7163 7.7163 0 0 0 3.4944-.837c1.927-1.115 1.927-2.922 0-4.038a7.7153 7.7153 0 0 0-3.4944-.836 7.7153 7.7153 0 0 0-3.4944.836Z"/><path fill="#E0E0E0" d="M68.025 223.825a7.7163 7.7163 0 0 0-3.4944-.837 7.7163 7.7163 0 0 0-3.4944.837 3.1932 3.1932 0 0 0-1.1617 1.06c.2956.442.6943.806 1.1617 1.06 1.0828.55 2.28.837 3.4944.837a7.7163 7.7163 0 0 0 3.4944-.837 3.2362 3.2362 0 0 0 1.1248-1.06 3.1617 3.1617 0 0 0-1.1248-1.06Z"/><path fill="#7F3A6A" d="M65.7937 225.318a10.2972 10.2972 0 0 0 4.2781-5.412c1.2816-3.752.5255-8.298-.6178-10.142-1.5581-2.535-5.3383-2.249-4.2135 1.983 1.1248 4.232 1.844 8.842 0 11.912l.5532 1.659Z"/><path fill="#000" d="M65.7937 225.318a10.2972 10.2972 0 0 0 4.2781-5.412c1.2816-3.752.5255-8.298-.6178-10.142-1.5581-2.535-5.3383-2.249-4.2135 1.983 1.1248 4.232 1.844 8.842 0 11.912l.5532 1.659Z" opacity=".2"/><path fill="#fff" d="M65.9231 224.553a.1892.1892 0 0 1-.1198-.046.1754.1754 0 0 1 0-.24 12.337 12.337 0 0 0 2.5297-4.284c.5437-1.586.759-3.265.6327-4.936a10.4927 10.4927 0 0 0-1.761-5.652.174.174 0 0 1 0-.239.1578.1578 0 0 1 .0547-.038.1632.1632 0 0 1 .0652-.014c.0224 0 .0445.005.0651.014a.1568.1568 0 0 1 .0547.038c.5717.488 1.6873 2.886 1.844 5.891a12.7124 12.7124 0 0 1-3.2454 9.469.1845.1845 0 0 1-.1199.037Z"/><path fill="#7F3A6A" d="M62.5484 225.318a1.6452 1.6452 0 0 0-.6915-.922 6.1874 6.1874 0 0 0-1.2447-.534c-.7468-.277-1.7057-.673-1.844-1.577-.016-.312.0246-.624.1199-.922.1826-.411.2279-.87.129-1.309-.1659-.406-.59-.618-.922-.858a3.1932 3.1932 0 0 1-1.0049-.922 2.0077 2.0077 0 0 1-.2951-1.161c.0738-.839.8759-1.393.922-2.232 0-1.207-2.766-2.858-1.2908-4.001 1.9362-1.466 4.9696.23 5.8455 1.475.8759 1.245.8667 1.844 2.4525 2.867 1.3185.922 2.8767 1.061 2.8767 2.766 0 1.706-2.2221 1.844-.4795 3.762 1.0511 1.18-.6823 2.195-1.3092 3.587a2.8632 2.8632 0 0 1-1.6348.5 2.8623 2.8623 0 0 1-1.6291-.519Z"/><path fill="#fff" d="M64.3003 225.826a.1606.1606 0 0 1-.0681-.015.1628.1628 0 0 1-.0563-.04.1683.1683 0 0 1-.0416-.13c.378-10.031-4.7299-13.563-5.7533-13.83a.176.176 0 0 1-.0829-.085.1766.1766 0 0 1-.009-.119.1724.1724 0 0 1 .069-.097.1749.1749 0 0 1 .1151-.031c1.7242.47 6.3618 4.712 6.0022 14.19a.1763.1763 0 0 1-.1751.157Z"/><path fill="#fff" d="M63.3044 218.339a.1963.1963 0 0 1-.1106-.046c-1.4844-1.31-4.3795-1.273-4.4072-1.273a.1735.1735 0 0 1-.1352-.17c0-.04.0133-.078.0379-.109a.175.175 0 0 1 .0973-.062c.1291 0 3.0611 0 4.61 1.356a.1834.1834 0 0 1 0 .248.164.164 0 0 1-.0922.056Z"/><path fill="#000" d="M153.522 241.186c.065.111 0 .23-.129.313l-30.232 17.463a.7203.7203 0 0 1-.378.083.6107.6107 0 0 1-.369-.083l-42.2002-24.368a.3526.3526 0 0 1-.1383-.148.1842.1842 0 0 1 0-.212h.0553l30.2972-17.564a.7819.7819 0 0 1 .378-.097c.132 0 .262.033.378.097l42.209 24.368s.074.047.092.083l.037.065Z" opacity=".2"/><path fill="#7F3A6A" d="M81.6152 232.455v.728a.8038.8038 0 0 0 .3596.618l40.5032 23.382c.111.059.234.089.36.089.125 0 .249-.03.359-.089l29.007-16.744a.7944.7944 0 0 0 .255-.27.7985.7985 0 0 0 .104-.357v-.728a.7985.7985 0 0 0-.104-.357.7944.7944 0 0 0-.255-.27l-40.495-23.382a.8146.8146 0 0 0-.359-.083c-.125 0-.248.028-.36.083l-29.0152 16.753a.803.803 0 0 0-.2534.271.81.81 0 0 0-.1062.356Z"/><path fill="#fff" d="M152.249 238.494c.148.11.139.276 0 .378l-29.006 16.753a.7568.7568 0 0 1-.359.082v1.531a.9126.9126 0 0 0 .359-.092l29.006-16.744a.7878.7878 0 0 0 .256-.27.7985.7985 0 0 0 .104-.357v-.728a.7964.7964 0 0 0-.12-.315.7896.7896 0 0 0-.24-.238Z" opacity=".4"/><path fill="#000" d="m81.9195 231.865-.0461.046a.787.787 0 0 0-.1844.387v.82a.7923.7923 0 0 0 .3595.618l40.5035 23.382c.11.061.234.092.36.092v-1.567a.7277.7277 0 0 1-.36-.083l-40.5772-23.317a.3993.3993 0 0 1-.1383-.139.2107.2107 0 0 1-.0258-.101c0-.036.0088-.07.0258-.102l.083-.036Z" opacity=".15"/><path fill="#263238" d="M92.5873 222.091c0 .655.922 1.337 1.1525 1.918a.4849.4849 0 0 1 .0553.148c-.1199.415-.5071.7-.5809.977a.6518.6518 0 0 0 0 .184v.554c.0114.127.0299.253.0554.378a3.0578 3.0578 0 0 1-.0922.405 2.2473 2.2473 0 0 0-.1383.683v.534a.4987.4987 0 0 0 .06.293c.0495.089.1251.16.2166.205l1.6227.922 12.1616-7.016v-.535l-1.623-.922a1.4093 1.4093 0 0 0-.821-.157h-.11c-.268 0-.627 0-1.107.074-.613.057-1.23.057-1.844 0h-.47c-.11-.009-.221-.009-.332 0a7.9715 7.9715 0 0 1-2.8397.314 23.4756 23.4756 0 0 0-3.31-.674h-.1106a2.6817 2.6817 0 0 0-1.2816.351c-.4425.249-.5993.516-.5993.793-.0737.12-.0645.488-.0645.571Zm1.844.378a.6492.6492 0 0 1 .2858-.285c.0964-.054.1984-.098.3043-.13a3.1492 3.1492 0 0 1 2.2312.332c.2759.148.5032.372.6546.646a.7791.7791 0 0 1-.295.276 2.4261 2.4261 0 0 1-1.6504.129 3.187 3.187 0 0 1-.922-.331 1.576 1.576 0 0 1-.6085-.637Z"/><path fill="#37474F" d="M104.619 220.653h-.11c-.268 0-.627 0-1.107.074-.613.056-1.23.056-1.844 0h-.47c-.11-.009-.221-.009-.332 0a7.9475 7.9475 0 0 1-2.8396.313 23.6151 23.6151 0 0 0-3.31-.673h-.1106a2.6705 2.6705 0 0 0-1.2816.351c-1.4844.857.2029 1.844.5532 2.71.3504.867-.4057 1.254-.5255 1.669-.1199.415.2028.627-.0738 1.521-.2766.895-.0645 1.051.1383 1.171l1.6227.922 12.1609-7.016-1.622-.922c-.264-.128-.56-.17-.849-.12Zm-9.109 6.832a.7724.7724 0 0 1-.343.051.7726.7726 0 0 1-.3301-.106c-.212-.12-.2581-.295-.1014-.388a.7717.7717 0 0 1 .343-.05.7588.7588 0 0 1 .3301.106c.212.12.2581.295.1014.387Zm2.1022-4.177a2.4261 2.4261 0 0 1-1.6504.129 3.187 3.187 0 0 1-.922-.331c-.7929-.461-.922-1.116-.3596-1.466a2.252 2.252 0 0 1 .3043-.13 3.1516 3.1516 0 0 1 2.2312.342c.8298.461.9958 1.115.3965 1.456Zm7.2748-1.235a.7592.7592 0 0 1-.343.05.7537.7537 0 0 1-.33-.105c-.212-.13-.249-.295-.093-.388.109-.043.227-.06.343-.05.117.009.23.046.331.106.202.12.248.295.092.387Z"/><path fill="#F5F5F5" d="m121.704 253.08 25.244-14.577a.451.451 0 0 0 .152-.158.4475.4475 0 0 0 .06-.211v-.258a.4475.4475 0 0 0-.06-.211.4596.4596 0 0 0-.152-.158l-33.358-19.26a.502.502 0 0 0-.433 0l-25.2355 14.549a.4438.4438 0 0 0-.1521.158.4476.4476 0 0 0-.0599.211v.285a.4476.4476 0 0 0 .0599.211c.037.065.0892.119.1521.158l33.3575 19.261c.067.03.139.046.213.046.073 0 .145-.016.212-.046Z"/><path fill="#E0E0E0" d="m130.629 242.191 8.722-5.034.314.184-8.713 5.034-.323-.184ZM120.173 248.23l8.713-5.034.314.184-8.713 5.034-.314-.184Z"/><path fill="#FAFAFA" d="M147.003 237.516c.065.065.046.148-.046.212l-25.253 14.568a.4306.4306 0 0 1-.222.055v.775c.077.009.155-.008.222-.046l25.244-14.577a.451.451 0 0 0 .152-.158.4475.4475 0 0 0 .06-.211v-.258a.4393.4393 0 0 0-.035-.199.4364.4364 0 0 0-.122-.161Z"/><path fill="#E0E0E0" d="M87.885 232.823a.2173.2173 0 0 0-.0645.065.6734.6734 0 0 0-.0554.12V233.423c.0024.074.023.146.0599.211a.461.461 0 0 0 .1522.158l33.3578 19.26c.064.039.138.055.212.046v-.774a.4056.4056 0 0 1-.212-.056l-33.4131-19.223c-.1014-.065-.1107-.148-.0369-.222Z"/><path fill="#37474F" d="M123.474 244.33c-.083.092 0 .212.092.304a1.432 1.432 0 0 1-.092.434.5593.5593 0 0 1-.203.295c-.12.064-.286 0-.378-.083-.092-.083-.101 0-.111 0-.009 0 0 .101 0 .156a.3294.3294 0 0 1-.138-.092.542.542 0 0 0-.175-.083h-.102c-.009 0 0 .148 0 .221 0 .074.065.176 0 .259-.064.083-.193 0-.221-.083-.061-.07-.116-.144-.166-.222h-.12c.01.111.01.222 0 .332-.015.157-.049.312-.101.461 0 .056-.092.258-.231.249a.1965.1965 0 0 1-.091-.03.1928.1928 0 0 1-.065-.071v-.138c.078-.231.078-.48 0-.71a.3904.3904 0 0 0-.12-.129.152.152 0 0 0-.111 0 .2581.2581 0 0 0-.108.127.2685.2685 0 0 0-.012.168c0 .092 0 .193.056.285.016.104.04.205.073.305l.056.101a.9233.9233 0 0 1-.194.415c-.101.129-.424.378-.682.212a.8349.8349 0 0 1-.314-.479v-.148c.127-.124.239-.264.332-.415.058-.129.099-.266.12-.406.042-.166.042-.34 0-.507a.193.193 0 0 0-.048-.08.1986.1986 0 0 0-.081-.049.3097.3097 0 0 0-.12-.024c-.041 0-.082.008-.12.024a.4612.4612 0 0 0-.148.15.4615.4615 0 0 0-.064.201c-.03.158-.052.318-.064.479-.008.215.017.429.073.636-.139.139-.297.257-.47.351.162-.092.313-.2.452-.323.039.204.146.39.304.525a.447.447 0 0 0 .295.111c.145.004.288-.031.415-.101a.8266.8266 0 0 0 .265-.223.8138.8138 0 0 0 .15-.312h.055c.075.031.158.035.236.011a.354.354 0 0 0 .189-.14c.093-.148.15-.315.166-.489v-.258l.073.074c.045.048.103.081.168.096.064.015.13.01.192-.013.111-.056.074-.175.055-.249-.018-.074 0-.111 0-.166v-.065c0-.064.166.166.36.157h.055c.01-.039.01-.08 0-.12.105.063.23.086.35.065a.4524.4524 0 0 0 .192-.099.4308.4308 0 0 0 .122-.178c.055-.11.092-.228.111-.35l.193.313c.185.329.336.675.452 1.033l.212.581h.12a8.812 8.812 0 0 0-.47-1.291 4.9649 4.9649 0 0 0-.369-.636l-.12-.194a.5602.5602 0 0 0-.092-.286s-.065.056-.083.111Zm-3.513 1.733a2.5353 2.5353 0 0 1 0-.461c.005-.121.023-.242.055-.359a.3179.3179 0 0 1 .093-.16.312.312 0 0 1 .166-.08.1022.1022 0 0 1 .083.012c.012.008.023.018.031.031a.114.114 0 0 1 .015.04c.046.15.046.311 0 .461-.023.152-.063.3-.12.443-.078.143-.178.274-.295.387a1.6526 1.6526 0 0 1-.028-.351v.037Zm1.318 0-.055-.267a.3203.3203 0 0 1-.034-.143c0-.05.012-.099.034-.143.059.077.092.171.092.268.014.116.014.234 0 .35v.046l-.037-.111ZM126.314 242.587h-.111s0 .065.065.093c.012.051.012.105 0 .156.009.095.009.191 0 .286v.185a.2432.2432 0 0 1-.111-.047l-.166-.055h-.11c.023.091.023.186 0 .277 0 0 0 .046-.047.046-.046 0-.092-.046-.11-.055a.4479.4479 0 0 0-.157-.093h-.092a.5137.5137 0 0 0 0 .166s.055.157 0 .185c-.055.027-.111-.056-.166-.129a.2041.2041 0 0 0-.021-.124.1966.1966 0 0 0-.09-.088h-.101a.357.357 0 0 0 .083.193c.009.086.009.173 0 .258a.6828.6828 0 0 1-.24.388.3063.3063 0 0 1-.086.107.303.303 0 0 1-.124.059.3061.3061 0 0 1-.138-.003.2948.2948 0 0 1-.122-.062.8275.8275 0 0 0 0-.516 1.2013 1.2013 0 0 0-.238-.442c-.11-.129-.246-.233-.398-.305a.0839.0839 0 0 0-.083 0c-.092.055-.074.138-.065.203.022.096.056.189.102.276.096.209.213.406.35.59.071.095.155.178.249.249a.7982.7982 0 0 1-.102.222h.047c.058-.086.105-.179.138-.277a.4663.4663 0 0 0 .369 0 .5199.5199 0 0 0 .332-.396c.028-.068.046-.14.055-.213.057.046.129.069.203.065.193 0 .138-.203.101-.323.036.033.077.061.12.083.034.018.072.027.111.027.038 0 .076-.009.11-.027a.165.165 0 0 0 .054-.069.1736.1736 0 0 0 .011-.087.1182.1182 0 0 1-.017-.055.1142.1142 0 0 1 .009-.055c.008-.018.02-.033.035-.046a.1201.1201 0 0 1 .188.053c.007.018.009.037.006.056.166 0 .194-.119.203-.193a2.1 2.1 0 0 0 .065-.323v-.055c.096.091.185.19.267.295.113.134.212.279.295.433a.8415.8415 0 0 0-.397.194c-.138.129-.313.442.065.498.059.013.12.015.179.004.059-.01.116-.032.167-.065a.4356.4356 0 0 0 .128-.125.4478.4478 0 0 0 .07-.165.7198.7198 0 0 0-.055-.304c.107-.014.215-.014.322 0 .074 0 .111-.055 0-.064a1.7882 1.7882 0 0 0-.387 0c-.04-.086-.09-.166-.147-.24a4.1622 4.1622 0 0 0-.259-.332l-.202-.203-.102-.074a.3525.3525 0 0 0-.055-.037Zm-2.056 1.448c-.118-.158-.22-.328-.304-.507-.046-.083-.086-.17-.12-.258 0-.056-.046-.139 0-.194.272.144.477.389.571.682.037.155.037.316 0 .471a1.1151 1.1151 0 0 1-.156-.194h.009Zm2.701.092a.3306.3306 0 0 1-.166.045.3362.3362 0 0 1-.166-.045c-.101-.074-.046-.203 0-.286a.63.63 0 0 1 .388-.249.399.399 0 0 1 .072.28c-.012.1-.061.191-.137.255h.009ZM131.32 240.116c-.055 0-.065.093-.074.13-.03.108-.052.219-.064.331a.5846.5846 0 0 0-.185-.101.1039.1039 0 0 0-.046-.011c-.016 0-.032.004-.046.011a.2938.2938 0 0 0-.101.12.3213.3213 0 0 0-.148-.109.3209.3209 0 0 0-.184-.011.362.362 0 0 0-.179.097.3712.3712 0 0 0-.098.18c-.003.049-.003.098 0 .147-.055-.129-.101-.258-.147-.387a1.7464 1.7464 0 0 0-.314-.645.487.487 0 0 0-.256-.183.4992.4992 0 0 0-.315.007.5687.5687 0 0 0-.213.203.8016.8016 0 0 0-.129.268.7222.7222 0 0 0 0 .147l-.304-.157h-.055l.35.194c-.018.138-.018.277 0 .415.017.15.058.296.12.433a.278.278 0 0 0 .129.12c.031.014.064.02.097.02s.066-.006.097-.02c.221-.157.147-.406.046-.59a.9298.9298 0 0 0-.397-.332.798.798 0 0 1 .066-.323c.045-.101.11-.193.193-.267a.1997.1997 0 0 1 .152-.069.2034.2034 0 0 1 .152.069c.071.06.136.128.193.203.11.174.194.364.249.562.06.193.134.381.222.563v.055a.6689.6689 0 0 0 .083.507h.119a.7009.7009 0 0 0-.073-.507c.006-.135.031-.268.073-.396a.2715.2715 0 0 1 .148-.176c.028-.01.058-.011.086-.002.028.008.053.025.071.048.068.065.122.144.156.231v.083h.13c-.01 0 0 0 0-.055a.5566.5566 0 0 1 0-.129.2224.2224 0 0 1 .055-.166c.138.064.184.184.258.267.074.083.148 0 .129 0a.6698.6698 0 0 1 0-.498v-.129c.035.036.06.081.074.129 0 .092.046.184.074.277l.12.285c.092.189.196.37.313.544.129.217.298.408.498.563h.083c-.176-.192-.34-.395-.489-.609a4.149 4.149 0 0 1-.35-.654 2.2846 2.2846 0 0 1-.102-.323.3383.3383 0 0 0-.035-.136.3588.3588 0 0 0-.084-.113.1707.1707 0 0 0-.057-.078.1766.1766 0 0 0-.091-.033Zm-2.24.526c.077.064.135.15.164.247.03.097.03.2.002.297-.02.043-.048.08-.083.111-.056 0-.074-.083-.093-.111a1.8347 1.8347 0 0 1-.101-.378c-.01-.117-.01-.234 0-.35.041.058.078.12.111.184ZM134.612 239.084a.8044.8044 0 0 0-.396 0 1.3714 1.3714 0 0 0-.166-.148 2.4448 2.4448 0 0 0-.415-.267h-.129c.061.118.102.246.119.378.018.063.018.13 0 .194 0 .055-.119 0-.175 0h-.11c-.01 0 0 .129 0 .138 0 .009-.157-.074-.194-.083-.037-.009-.083 0-.083 0s.046.129 0 .175l-.147-.083h-.102c.021.041.036.084.046.129 0 0 .056.129 0 .157-.055.028 0 0-.064 0l-.074-.055a.4292.4292 0 0 0-.148-.074h-.083a.8357.8357 0 0 0 0 .212c.005.04.005.08 0 .12.001.02-.003.04-.013.058a.1086.1086 0 0 1-.042.043c-.147.056-.369-.341-.406-.396-.036-.056-.11 0-.101 0 .051.104.094.212.129.322 0 .111 0 .268-.166.314.221 0 .249-.175.231-.295v-.046c.038.045.086.08.141.102.054.023.113.032.172.027a.1706.1706 0 0 0 .065-.024c.02-.012.038-.028.052-.046a.1838.1838 0 0 0 .028-.064.1603.1603 0 0 0 .003-.069c.004-.074.004-.148 0-.221.092.064.193.156.322.101.129-.055.074-.092.065-.147a.2885.2885 0 0 0 0-.083h.055c.013.006.027.01.042.01a.099.099 0 0 0 .041-.01c.092 0 .083-.102.065-.166a.211.211 0 0 0 .203 0 .0906.0906 0 0 0 .037-.015c.011-.007.02-.017.027-.028a.0862.0862 0 0 0 .013-.038.087.087 0 0 0-.004-.039c.072.023.15.023.222 0a.1857.1857 0 0 0 .074-.078c.016-.033.022-.07.018-.107a.7707.7707 0 0 0-.074-.184l.157.111c.093.058.176.129.249.212a.3323.3323 0 0 0-.111.064c-.092.074-.111.222.101.24.213.018.249-.12.222-.203a.2562.2562 0 0 0-.056-.092.655.655 0 0 1 .305 0c.055.018.147-.037.055-.046Zm-.433.267c0 .015-.006.029-.017.039a.0522.0522 0 0 1-.039.017.0555.0555 0 0 1-.039-.017.0552.0552 0 0 1-.016-.039c0-.055 0-.101.083-.138.017.018.028.041.033.065.005.025.003.05-.005.073ZM134.686 236.502c.055.185.129.369.175.553.046.185.083.378.11.572.028.194 0 .378.065.572-.101-.12-.184-.249-.304-.369a1.84 1.84 0 0 0-.461-.332.5988.5988 0 0 0-.47 0 .405.405 0 0 0-.166.129h-.203a.5403.5403 0 0 1-.212 0h-.056c.028 0 .295.046.424.065a.758.758 0 0 0-.083.166.4742.4742 0 0 0-.013.195c.01.065.033.127.069.183.043.051.097.092.157.12.061.029.126.044.193.046a.309.309 0 0 0 .201-.063.3087.3087 0 0 0 .113-.177c0-.148-.102-.314-.295-.415a.9127.9127 0 0 0-.194-.074.255.255 0 0 1 .111-.083.3661.3661 0 0 1 .198-.058c.07 0 .139.02.198.058.145.088.278.193.397.314.115.128.223.264.322.405l.102.139c0 .073 0 .147.092.193.092.046.111 0 .111 0a.3157.3157 0 0 0-.074-.212c0-.101 0-.193-.056-.295-.055-.101 0-.369-.055-.553a2.3958 2.3958 0 0 0-.323-1.07s-.083-.036-.073-.009Zm-.618 1.42c.021.025.036.055.044.086.009.032.01.065.005.097a.2258.2258 0 0 1-.035.09.2237.2237 0 0 1-.069.068.2494.2494 0 0 1-.182.013.253.253 0 0 1-.141-.114.4228.4228 0 0 1-.055-.314.5275.5275 0 0 1 .083-.184c.142.044.265.135.35.258ZM138.669 236.88a3.611 3.611 0 0 0-.756-.922h-.13c.01 0 .157.314.139.47a.1867.1867 0 0 1-.056.13.6192.6192 0 0 1-.138.064.1331.1331 0 0 0-.044.038.1184.1184 0 0 0-.02.054l-.157-.101h-.12a.6303.6303 0 0 0 0 .184v.157a1.2774 1.2774 0 0 1-.258-.24.1012.1012 0 0 0-.065-.023c-.023 0-.046.008-.064.023v.249c.004.052.004.105 0 .157v.101l-.056-.046a.4738.4738 0 0 1-.083-.147.6906.6906 0 0 1-.073-.268h-.129c.014.243.014.486 0 .729a.7058.7058 0 0 1-.148.359.6146.6146 0 0 1-.157.148.7565.7565 0 0 1-.276.12c-.092 0-.111-.083-.12-.12l-.055-.212v-.12a.6715.6715 0 0 0 .263-.302.6741.6741 0 0 0 .041-.399c0-.064-.065-.221-.24-.166a.1443.1443 0 0 0-.06.044.1395.1395 0 0 0-.032.067.439.439 0 0 0 0 .184c0 .157-.055.305-.065.461v.111l-.101.074h.083v.101c.016.079.041.157.074.231.083.147.322.092.479 0a.8746.8746 0 0 0 .378-.342c.08-.175.112-.37.092-.562l.065.055c.041.028.089.042.138.042.049 0 .098-.014.139-.042.082-.064.055-.166.055-.239v-.129c.06.058.129.107.203.147h.092a.155.155 0 0 0 .088-.067c.021-.032.029-.07.023-.108a1.218 1.218 0 0 0 0-.148c.047.044.104.075.165.093h.111v-.129c0-.037.102 0 .138-.065.037-.02.066-.049.086-.085a.2192.2192 0 0 0 .025-.118.6375.6375 0 0 0-.064-.249c.164.178.309.373.433.581l.111.166a.8237.8237 0 0 0-.406.295.5366.5366 0 0 0-.12.277.375.375 0 0 0 .011.173c.018.056.049.108.09.149.072.05.154.083.241.096.086.013.174.005.257-.022.07-.018.133-.053.186-.101a.4475.4475 0 0 0 .119-.175.8088.8088 0 0 0-.033-.352.7862.7862 0 0 0-.18-.303h.148c.055 0 .083 0 0-.046a.8536.8536 0 0 0-.267.018Zm-2.766.406v-.415c.004.021.004.043 0 .065.027.108.027.223 0 .331a.6402.6402 0 0 1-.185.296c.046-.098.101-.191.166-.277h.019Zm2.885 0c.037.095.037.2 0 .295a.3654.3654 0 0 1-.135.154.362.362 0 0 1-.196.058.2841.2841 0 0 1-.112-.015.2801.2801 0 0 1-.161-.151.2653.2653 0 0 1-.022-.111.3343.3343 0 0 1 0-.212.642.642 0 0 1 .156-.233c.068-.065.15-.115.24-.145.093.119.164.254.212.397l.018-.037Z"/><path fill="#E0E0E0" d="m115.738 222.663.295.166a.1749.1749 0 0 1 .12.166c0 .036-.012.072-.033.102a.1793.1793 0 0 1-.087.064l-20.2836 11.7a.65.65 0 0 1-.2904.069.6504.6504 0 0 1-.2904-.069l-.2858-.166c-.166-.092-.166-.24 0-.332l20.2842-11.7a.6427.6427 0 0 1 .571 0ZM117.509 223.686l.295.166c.035.012.065.034.086.064.022.03.033.066.033.102 0 .037-.011.073-.033.102a.1667.1667 0 0 1-.086.064l-20.284 11.7a.6378.6378 0 0 1-.2905.069.6377.6377 0 0 1-.2904-.069l-.2858-.166c-.166-.092-.166-.239 0-.331l20.2837-11.701a.6346.6346 0 0 1 .286-.069c.099 0 .197.024.286.069ZM119.27 224.701l.295.166c.034.011.065.034.086.063.021.03.033.066.033.103 0 .036-.012.072-.033.102a.183.183 0 0 1-.086.064l-20.2843 11.709a.7088.7088 0 0 1-.2904.062.7096.7096 0 0 1-.2905-.062l-.2858-.175c-.1659-.092-.1659-.24 0-.332l20.284-11.7a.616.616 0 0 1 .286-.069c.099 0 .197.023.286.069ZM123.17 226.95l.295.175a.188.188 0 0 1 .086.064c.021.03.033.066.033.102 0 .037-.012.073-.033.103a.1793.1793 0 0 1-.086.063l-20.284 11.701a.6346.6346 0 0 1-.286.069c-.1 0-.198-.024-.286-.069l-.295-.176c-.166-.092-.166-.239 0-.332l20.284-11.7a.6284.6284 0 0 1 .286-.069c.099 0 .197.024.286.069ZM124.94 227.974l.295.175c.035.012.065.034.086.064.022.03.033.065.033.102 0 .037-.011.072-.033.102a.1723.1723 0 0 1-.086.064l-20.284 11.7a.6284.6284 0 0 1-.286.069.6346.6346 0 0 1-.286-.069l-.295-.175c-.166-.092-.166-.24 0-.332l20.284-11.7a.6219.6219 0 0 1 .286-.069c.1 0 .198.023.286.069ZM126.701 228.988l.295.175c.035.012.065.034.086.064.022.03.033.065.033.102 0 .037-.011.072-.033.102a.1723.1723 0 0 1-.086.064l-20.284 11.7a.6346.6346 0 0 1-.286.069.6346.6346 0 0 1-.286-.069l-.295-.166a.1743.1743 0 0 1-.097-.062.1694.1694 0 0 1-.038-.108c0-.04.013-.078.038-.109a.1743.1743 0 0 1 .097-.062l20.284-11.7a.6346.6346 0 0 1 .286-.069c.099 0 .197.024.286.069ZM130.601 231.247l.295.166c.035.011.065.034.086.064.022.029.033.065.033.102 0 .036-.011.072-.033.102a.1723.1723 0 0 1-.086.064l-20.256 11.663a.6346.6346 0 0 1-.286.069c-.1 0-.198-.024-.286-.069l-.295-.166a.1723.1723 0 0 1-.086-.064.1703.1703 0 0 1-.033-.102c0-.037.011-.072.033-.102.021-.03.051-.052.086-.064l20.284-11.7c.088-.035.182-.05.276-.044.094.006.186.034.268.081ZM132.372 232.27l.295.166c.034.012.064.034.086.064.021.03.033.065.033.102 0 .037-.012.072-.033.102a.1814.1814 0 0 1-.086.064l-20.284 11.7a.6219.6219 0 0 1-.286.069.616.616 0 0 1-.286-.069l-.249-.138a.1723.1723 0 0 1-.086-.064.1703.1703 0 0 1-.033-.102c0-.037.011-.072.033-.102.021-.03.051-.052.086-.064l20.284-11.7c.08-.043.169-.067.26-.072.09-.005.181.01.266.044ZM134.132 233.266l.295.166c.035.012.065.034.087.064.021.03.033.065.033.102 0 .037-.012.072-.033.102a.1793.1793 0 0 1-.087.064l-20.284 11.7a.6274.6274 0 0 1-.285.069c-.1 0-.198-.024-.286-.069l-.295-.166a.1723.1723 0 0 1-.086-.064.1703.1703 0 0 1-.033-.102c0-.037.011-.072.033-.102.021-.03.051-.052.086-.064l20.284-11.7a.6284.6284 0 0 1 .286-.069c.099 0 .197.024.285.069Z"/><path fill="#37474F" d="M96.478 229.301v.544c.0051.273.1027.537.2766.747l14.8814-8.584v-.544c-.451-.231-.95-.354-1.457-.359-.34-.003-.676.066-.987.203-1.078.488-1.392.645-2.056.922-.168.06-.348.078-.525.053a1.0929 1.0929 0 0 1-.489-.201l-.442-.406-1.208-1.115a.7336.7336 0 0 0-.266-.154.7383.7383 0 0 0-.306-.031h-.286a3.996 3.996 0 0 1-1.235 0 2.659 2.659 0 0 1-1.337-.507 3.1157 3.1157 0 0 0-2.0746-.737h-.0645c-.4748 0-.9426.114-1.3646.332a1.9616 1.9616 0 0 0-.598.604 1.9711 1.9711 0 0 0-.2134 1.646c.0862.274.231.525.4242.737.1755.171.2918.394.3319.636a1.4907 1.4907 0 0 1-.2858.692.552.552 0 0 0-.166.359v.544a.3417.3417 0 0 0 .0381.15.356.356 0 0 0 .1002.118l1.3922 1.281.4426.406.0461.055a.6724.6724 0 0 1-.1014.138l-1.844 1.411a1.54 1.54 0 0 0-.4249.464 1.5372 1.5372 0 0 0-.2021.596Zm3.974-8.15c-.096.241-.281.435-.5165.544a2.0452 2.0452 0 0 1-.7745.202 2.0353 2.0353 0 0 1-.7929-.11 1.5763 1.5763 0 0 1-.59-.341.9966.9966 0 0 1-.2859-.415c.0965-.246.2851-.444.5256-.553l.2028-.092a2.0322 2.0322 0 0 1 1.017-.083c.3405.06.6601.206.9284.424.147.109.262.255.332.424h-.046Z"/><path fill="#455A64" d="M110.188 221.105c-.34-.003-.676.066-.987.203-1.078.488-1.392.645-2.056.922-.168.06-.348.078-.525.053a1.0929 1.0929 0 0 1-.489-.201l-.442-.406-1.208-1.115a.7336.7336 0 0 0-.266-.154.7383.7383 0 0 0-.306-.031h-.286a3.996 3.996 0 0 1-1.235 0 2.659 2.659 0 0 1-1.337-.507 3.1157 3.1157 0 0 0-2.0746-.737h-.0645c-.4748 0-.9426.114-1.3646.332a1.4169 1.4169 0 0 0-.6093.431 1.4234 1.4234 0 0 0-.3061.681 1.419 1.419 0 0 0 .5282 1.34c.2095.262.3236.587.3236.922 0 .335-.1141.66-.3236.922-.3504.406 0 .636 0 .636l1.3922 1.273.4426.405c.3319.314-.0554.738-.0554.738l-1.844 1.411c-.7745.7-.7376 1.263-.3319 1.844l14.8814-8.584c-.45-.238-.949-.367-1.457-.378Zm-10.022-.922c.109.102.192.23.24.371.049.142.063.293.04.441a.9104.9104 0 0 1-.17.408.9182.9182 0 0 1-.3407.283 2.0637 2.0637 0 0 1-.7745.202 2.0538 2.0538 0 0 1-.7929-.11 1.591 1.591 0 0 1-.5901-.341.8652.8652 0 0 1-.276-.367.866.866 0 0 1 .5157-1.136.7987.7987 0 0 1 .2029-.092 2.0048 2.0048 0 0 1 1.0187-.081c.3409.062.6601.21.9269.431v-.009Z"/><path fill="#000" d="m132.279 222.313 22.027 12.732 3.761.766c.023.004.046.002.067-.006.022-.008.04-.022.054-.041.014-.018.022-.04.023-.063a.113.113 0 0 0-.014-.065l-1.181-2.158-22.035-12.733c-.738-.387-3.292 1.236-2.702 1.568Z" opacity=".2"/><path fill="#7F3A6A" d="M134.704 218.615h.102l-.194-.101H134.381a.9239.9239 0 0 0-.451.138c-.292.192-.535.45-.709.752-.175.303-.276.642-.296.991-.01.086-.01.172 0 .258v.065a.406.406 0 0 0 .083.156l.239.139a.4484.4484 0 0 1-.11-.083c.201.033.408-.01.581-.12.295-.192.54-.45.717-.754.176-.305.278-.647.297-.998.029-.147.02-.3-.028-.443Z"/><path fill="#F0F0F0" d="m155.818 230.804-1.393 2.462-.239-.138-20.782-11.986a.4536.4536 0 0 1-.111-.083.8343.8343 0 0 1-.184-.572c.02-.35.122-.69.298-.993.176-.303.422-.56.716-.75a.9276.9276 0 0 1 .452-.138h.23l21.013 12.198Z"/><path fill="#7F3A6A" d="M155.135 230.878c.563-.323 1.015-.064 1.015.581a2.232 2.232 0 0 1-1.015 1.752c-.553.322-1.005.055-1.005-.59.02-.349.122-.688.296-.991.175-.302.418-.56.709-.752Z"/><path fill="#E0E0E0" d="m157.312 232.344-1.291-1.411a.6585.6585 0 0 0-.406-.141c-.147 0-.29.05-.405.141-.292.192-.535.45-.709.752-.175.303-.276.642-.296.991a.67.67 0 0 0 .078.414c.069.126.178.227.309.287h.074l1.844.415c.112.012.226-.014.322-.074.166-.111.304-.258.403-.431.099-.173.157-.366.169-.565a.4606.4606 0 0 0-.092-.378Z"/><path fill="#455A64" d="M140.808 223.189a.235.235 0 0 0-.115-.03c-.041 0-.08.01-.116.03a.7701.7701 0 0 0-.256.264.7605.7605 0 0 0-.103.353c-.004.041.002.082.016.12.015.039.037.073.067.102l15.342 8.86 1.014-.581-15.849-9.118Z"/><path fill="#37474F" d="m154.223 232.095 1.42.821 1.014-.581-1.936-1.116c-.226.254-.395.553-.498.876Z"/><path fill="#7F3A6A" d="m157.819 233.054-1.171-1.282a.4655.4655 0 0 0-.291-.103c-.105 0-.208.037-.29.103-.207.136-.379.319-.503.533-.123.215-.194.456-.207.703a.478.478 0 0 0 .055.287c.048.088.122.158.212.202h.046l1.715.368c.06.02.125.02.185 0a.7509.7509 0 0 0 .225-.244.7421.7421 0 0 0 .097-.318.2538.2538 0 0 0-.003-.134.2579.2579 0 0 0-.07-.115Z"/><path fill="#000" d="m157.819 233.054-1.171-1.282a.4655.4655 0 0 0-.291-.103c-.105 0-.208.037-.29.103-.207.136-.379.319-.503.533-.123.215-.194.456-.207.703a.478.478 0 0 0 .055.287c.048.088.122.158.212.202h.046l1.715.368c.06.02.125.02.185 0a.7509.7509 0 0 0 .225-.244.7421.7421 0 0 0 .097-.318.2538.2538 0 0 0-.003-.134.2579.2579 0 0 0-.07-.115Z" opacity=".1"/><path fill="#7F3A6A" d="M157.883 233.266a.7432.7432 0 0 1-.323.562c-.059.02-.124.02-.184 0l-.867-.184a.342.342 0 0 1-.181-.143.3382.3382 0 0 1-.049-.226c.006-.184.056-.363.146-.523.09-.161.217-.297.37-.399a.3534.3534 0 0 1 .212-.071c.077 0 .151.025.212.071l.581.636c.04.033.069.077.084.126a.259.259 0 0 1-.001.151Z"/><path fill="#000" d="M157.789 233.529c.127-.221.127-.459-.001-.533-.128-.074-.335.045-.462.265-.128.221-.127.459.001.533.128.074.335-.045.462-.265Z" opacity=".1"/><path fill="#FAFAFA" d="M136.991 220.976a.2663.2663 0 0 0-.129-.033c-.046 0-.09.011-.129.033a.7798.7798 0 0 0-.25.267.783.783 0 0 0-.101.35c-.006.045 0 .089.018.13.018.041.047.076.084.101l3.78 2.185a.275.275 0 0 1-.067-.101.2713.2713 0 0 1-.016-.12.761.761 0 0 1 .103-.354.779.779 0 0 1 .256-.264.2463.2463 0 0 1 .116-.029c.04 0 .08.01.115.029l-3.78-2.194Z"/><path fill="#F5F5F5" d="M137.092 221.206a.761.761 0 0 1-.103.354.779.779 0 0 1-.256.264.2328.2328 0 0 1-.125.036.227.227 0 0 1-.124-.036.2362.2362 0 0 1-.084-.101c-.018-.041-.024-.085-.018-.13a.783.783 0 0 1 .101-.35.7798.7798 0 0 1 .25-.267.2607.2607 0 0 1 .129-.033c.045 0 .089.011.129.033.036.026.064.061.082.101.018.041.024.085.019.129Z"/><path fill="#7F3A6A" d="m136.299 219.685-1.494-.857a.6406.6406 0 0 0-.318-.043.6468.6468 0 0 0-.299.116c-.268.172-.491.404-.651.678-.16.274-.253.582-.271.899-.014.113.004.228.051.332.047.104.122.193.216.258l1.512.867c.101.044.212.062.322.05.11-.011.215-.051.305-.115.266-.173.487-.405.648-.679.16-.274.254-.581.274-.897a.6441.6441 0 0 0-.295-.609Z"/><path fill="#000" d="m136.299 219.685-1.494-.857a.6406.6406 0 0 0-.318-.043.6468.6468 0 0 0-.299.116c-.268.172-.491.404-.651.678-.16.274-.253.582-.271.899-.014.113.004.228.051.332.047.104.122.193.216.258l1.512.867c.101.044.212.062.322.05.11-.011.215-.051.305-.115.266-.173.487-.405.648-.679.16-.274.254-.581.274-.897a.6441.6441 0 0 0-.295-.609Z" opacity=".05"/><path fill="#000" d="M135.635 219.731c.498-.286.922-.055.922.526a2.0336 2.0336 0 0 1-.922 1.576c-.498.286-.922.056-.922-.525.021-.317.115-.624.275-.898.16-.273.382-.506.647-.679Z" opacity=".1"/><path fill="#455A64" d="m158.298 233.589-.636-.323a.1169.1169 0 0 0-.06-.018c-.021 0-.042.007-.06.018a.3817.3817 0 0 0-.117.123.391.391 0 0 0-.049.163.1297.1297 0 0 0-.012.055c0 .019.004.038.012.056l.609.368c.039.01.08.01.12 0a.2392.2392 0 0 0 .239-.239.2414.2414 0 0 0-.001-.107.2295.2295 0 0 0-.045-.096Z"/><path fill="#263238" d="M158.326 233.616a.1628.1628 0 0 0-.111 0 .375.375 0 0 0-.117.124.3823.3823 0 0 0-.049.162c-.002.021.002.042.01.061.008.019.02.036.036.05h.074a.2381.2381 0 0 0 .132-.045.239.239 0 0 0 .086-.11c.016-.045.02-.093.009-.139a.2356.2356 0 0 0-.07-.121v.018Z"/><path fill="#000" d="m210.907 206.399 51.181-29.55a2.226 2.226 0 0 1 2.019 0l1.779 1.023c.123.041.229.12.305.225a.621.621 0 0 1 .116.361c0 .129-.041.255-.116.36a.618.618 0 0 1-.305.225l-51.18 29.55a2.229 2.229 0 0 1-1.009.242 2.23 2.23 0 0 1-1.01-.242l-1.78-1.032a.6294.6294 0 0 1-.295-.226.6178.6178 0 0 1-.112-.355.6178.6178 0 0 1 .407-.581Z" opacity=".2"/><path fill="#7F3A6A" d="M177.024 178.149v-.351c.013-.299.099-.59.25-.849s.362-.477.617-.635l50.765-29.329a1.8981 1.8981 0 0 1 1.724 0l10.391 6.002c.252.163.462.383.613.643.151.26.238.551.254.851v.341c-.016.3-.103.592-.254.851-.151.26-.361.48-.613.643l-50.793 29.319a1.8981 1.8981 0 0 1-1.724 0l-10.391-6.002a1.8395 1.8395 0 0 1-.601-.639 1.8336 1.8336 0 0 1-.238-.845Z"/><path fill="#000" d="M177.024 178.149v-.351c.013-.299.099-.59.25-.849s.362-.477.617-.635l50.765-29.329a1.8981 1.8981 0 0 1 1.724 0l10.391 6.002c.252.163.462.383.613.643.151.26.238.551.254.851v.341c-.016.3-.103.592-.254.851-.151.26-.361.48-.613.643l-50.793 29.319a1.8981 1.8981 0 0 1-1.724 0l-10.391-6.002a1.8395 1.8395 0 0 1-.601-.639 1.8336 1.8336 0 0 1-.238-.845Z" opacity=".5"/><path fill="#7F3A6A" d="m177.882 177.31 10.39 6.002c.268.134.563.204.863.204.299 0 .594-.07.862-.204l50.793-29.338a.5197.5197 0 0 0 .258-.192.5245.5245 0 0 0 .099-.306c0-.11-.035-.217-.099-.306a.5197.5197 0 0 0-.258-.192l-10.391-6.002a1.8981 1.8981 0 0 0-1.724 0l-50.793 29.329c-.48.276-.48.719 0 1.005Z"/><path fill="#000" d="m177.882 177.31 10.39 6.002c.268.134.563.204.863.204.299 0 .594-.07.862-.204l50.793-29.338a.5197.5197 0 0 0 .258-.192.5245.5245 0 0 0 .099-.306c0-.11-.035-.217-.099-.306a.5197.5197 0 0 0-.258-.192l-10.391-6.002a1.8981 1.8981 0 0 0-1.724 0l-50.793 29.329c-.48.276-.48.719 0 1.005Z" opacity=".2"/><path fill="#7F3A6A" d="m261.931 165.038 3.605-44.053c.04-.722-.109-1.442-.433-2.089a4.1452 4.1452 0 0 0-1.411-1.599 4.6127 4.6127 0 0 0-2.097-.464c-.726.013-1.438.197-2.08.538l-48.275 27.872a5.34 5.34 0 0 0-2.361 3.688l-3.632 44.08c-.04.722.109 1.442.432 2.089.324.647.81 1.198 1.412 1.599.653.316 1.372.474 2.098.459.726-.014 1.438-.2 2.078-.542l48.276-27.862c.639-.415 1.182-.96 1.594-1.601.412-.641.683-1.362.794-2.115Z"/><path fill="#000" d="m261.931 165.038 3.605-44.053c.04-.722-.109-1.442-.433-2.089a4.1452 4.1452 0 0 0-1.411-1.599 4.6127 4.6127 0 0 0-2.097-.464c-.726.013-1.438.197-2.08.538l-48.275 27.872a5.34 5.34 0 0 0-2.361 3.688l-3.632 44.08c-.04.722.109 1.442.432 2.089.324.647.81 1.198 1.412 1.599.653.316 1.372.474 2.098.459.726-.014 1.438-.2 2.078-.542l48.276-27.862c.639-.415 1.182-.96 1.594-1.601.412-.641.683-1.362.794-2.115Z" opacity=".5"/><path fill="#7F3A6A" d="m261.931 165.038 3.605-44.053c.04-.722-.109-1.442-.433-2.089a4.1533 4.1533 0 0 0-1.411-1.599 4.6156 4.6156 0 0 0-2.097-.464c-.726.013-1.439.197-2.08.538l-48.276 27.872c-.638.4-1.175.943-1.567 1.585l7.505 4.334v42.034l42.338-24.442a5.3766 5.3766 0 0 0 1.61-1.597c.416-.641.691-1.363.806-2.119Z"/><path fill="#000" d="m261.931 165.038 3.605-44.053c.04-.722-.109-1.442-.433-2.089a4.1533 4.1533 0 0 0-1.411-1.599 4.6156 4.6156 0 0 0-2.097-.464c-.726.013-1.439.197-2.08.538l-48.276 27.872c-.638.4-1.175.943-1.567 1.585l7.505 4.334v42.034l42.338-24.442a5.3766 5.3766 0 0 0 1.61-1.597c.416-.641.691-1.363.806-2.119Z" opacity=".2"/><path fill="#7F3A6A" d="m209.349 195.464 3.633-44.127c.11-.747.378-1.461.785-2.097.407-.636.944-1.178 1.575-1.591l48.267-27.863c1.199-.691 2.065-.138 1.955 1.236l-3.633 44.016a5.366 5.366 0 0 1-2.36 3.688l-48.276 27.863c-1.19.719-2.066.203-1.946-1.125Z"/><path fill="#000" d="m209.349 195.464 3.633-44.127c.11-.747.378-1.461.785-2.097.407-.636.944-1.178 1.575-1.591l48.267-27.863c1.199-.691 2.065-.138 1.955 1.236l-3.633 44.016a5.366 5.366 0 0 1-2.36 3.688l-48.276 27.863c-1.19.719-2.066.203-1.946-1.125Z" opacity=".35"/><path fill="#7F3A6A" d="M234.262 160.05a8.3763 8.3763 0 0 1 1.124-3.351 8.3678 8.3678 0 0 1 2.407-2.587c1.761-1.023 3.043 0 2.858 2.241a8.3666 8.3666 0 0 1-1.124 3.35 8.3678 8.3678 0 0 1-2.407 2.587c-1.77 1.024-3.043-.018-2.858-2.24ZM235.396 173.382l11.866-6.896-2.019-1.171-11.867 6.896 2.02 1.171Z"/><path fill="#000" d="m235.396 173.382 11.866-6.896-2.019-1.171-11.867 6.896 2.02 1.171Z" opacity=".2"/><path fill="#7F3A6A" d="m252.766 186.714-14.447 8.353c-.285.147-.603.217-.922.203-.276-.004-.547-.07-.793-.193l-6.362-3.688c-.246-.162-.45-.38-.594-.637a1.844 1.844 0 0 1-.236-.839v-.341c0-.544.378-.774.858-.498l3.844 2.213.858.498-.194-.977-1.355-18.569 2.019 1.161 11.866-6.896 6.187 18.763c.029.285-.024.573-.153.83-.129.256-.329.471-.576.617Z"/><path fill="#000" d="m252.766 186.714-14.447 8.353c-.285.147-.603.217-.922.203-.276-.004-.547-.07-.793-.193l-6.362-3.688c-.246-.162-.45-.38-.594-.637a1.844 1.844 0 0 1-.236-.839v-.341c0-.544.378-.774.858-.498l3.844 2.213.858.498-.194-.977-1.355-18.569 2.019 1.161 11.866-6.896 6.187 18.763c.029.285-.024.573-.153.83-.129.256-.329.471-.576.617Z" opacity=".45"/><path fill="#7F3A6A" d="m229.633 188.992 4.924-2.849 1.005 6.629-5.929-3.78Z"/><path fill="#000" d="m229.633 188.992 4.924-2.849 1.005 6.629-5.929-3.78Z" opacity=".5"/><path fill="#7F3A6A" d="m235.396 173.382-2.02-1.162 1.356 18.569c.11.544-.194.756-.664.48l-3.845-2.213c-.479-.277-.857-.046-.857.498v.378a1.8389 1.8389 0 0 0 .83 1.475l6.361 3.688c.247.123.518.189.793.194l-1.954-21.907Z"/><path fill="#000" d="m235.396 173.382-2.02-1.162 1.356 18.569c.11.544-.194.756-.664.48l-3.845-2.213c-.479-.277-.857-.046-.857.498v.378a1.8389 1.8389 0 0 0 .83 1.475l6.361 3.688c.247.123.518.189.793.194l-1.954-21.907Z" opacity=".65"/><path fill="#FFA8A7" d="M215.103 206.288c-4.149-9.865-11.147-27.346-11.571-30.693-.646-5.062 0-31.201.82-39.96.821-8.759 3.393-12.908 9.036-14.853 1.736.63 3.314 1.632 4.622 2.937a12.6387 12.6387 0 0 1 2.947 4.614c2.066 5.873.858 14.042.858 14.042l-2.545 33.192 6.5 24.618a11.807 11.807 0 0 0 3.937 6.159 41.7239 41.7239 0 0 1 4.085 3.411c1.899 2.093 2.959 4.112 4.969 5.919 2.01 1.807 1.356 2.13 0 2.674-1.355.544-3.688-.793-5.532-2.572-.608-.563-1.171-1.024-1.659-1.402a38.8838 38.8838 0 0 0 6.251 12.115c2.342 2.849 3.015 5.293-.369 6.353-4.241 1.328-8.602 1.328-12.235-1.272-3.633-2.601-5.532-7.782-6.786-12.051-1.254-4.269-1.53-9.137-3.328-13.231Z"/><path fill="#37474F" d="m219.989 175.484.489-9.386s2.766-29.356 2.766-35.036c0-6.371-1.743-9.22-4.085-10.326-2.341-1.107-4.656-1.577-9.948-2.453-7.238 4.527-6.85 25.401-7.072 37.95-.221 12.548-.774 18.809 1.107 22.736 1.881 3.928 11.838 27.273 11.838 27.273a17.985 17.985 0 0 0 10.889-5.375l-5.984-25.383Z"/><path fill="#FFA8A7" d="M167.776 361.535h11.313l2.259-20.035h-13.572v20.035ZM205.154 340.937l12.051.396-.212-20.745-13.637-.258 1.798 20.607Z"/><path fill="#37474F" d="M167.896 197.732c-.221 10.981-2.544 86.456-2.544 86.456a161.3481 161.3481 0 0 0-1.439 17.905c-.304 14.513 2.766 48.986 2.766 48.986.673 3.135 12.374 4.407 13.923 1.577 0 0 6.398-50 8.215-64.365 1.576-12.549 6.454-52.093 6.454-52.093l4.37 38.807c-.16 4.704-.055 9.414.313 14.106.47 6.648 3.808 45.87 3.808 45.87.055 2.443 12.226 4.462 14.273.857 0 0 3.854-57.247 3.964-63.35.139-6.952-.829-75.54-.829-75.54l-53.274.784Z"/><path fill="#263238" d="m179.735 355.781.194-1.705c.627 0 .922.7 1.152 2.203a32.7461 32.7461 0 0 0 3.006 9.22c1.927 3.956 3.042 5.597 6.832 10.363.922 1.125 2.923 2.923 3.633 4.186.71 1.264.922 4.758-.249 5.532-4.417 2.942-11.129 3.025-15.868 1.632a9.0965 9.0965 0 0 1-4.657-2.79 9.101 9.101 0 0 1-2.24-4.945c-.765-4.324-1.17-6.998-3.374-10.262-.802-1.199-2.111-2.167-2.655-3.504-.987-2.406-.194-5.108.433-7.505.544-2.065 1.125-4.342 1.844-4.149v1.273c.848.922 3.826 1.844 6.454 1.982 1.724.092 5.55-.221 5.495-1.531ZM217.177 338.06c.296.203.978.987 2.195 2.112 1.24 1.08 2.542 2.087 3.9 3.015a71.443 71.443 0 0 0 8.685 5.449c3.587 1.973 6.823 3.171 11.064 5.108.449.181.856.451 1.199.793.26.306.438.674.516 1.069.126.81.026 1.639-.29 2.396a4.4322 4.4322 0 0 1-1.499 1.891 11.9092 11.9092 0 0 1-4.481 1.909 23.0475 23.0475 0 0 1-11.174.332 31.6585 31.6585 0 0 1-8.98-4.149 20.2825 20.2825 0 0 0-7.681-3.301c-2.406-.35-5.375-.23-7.459-1.669-2.323-1.595-1.392-5.015-.737-7.947.719-3.209.876-8.095 2.332-7.985l.111 1.273c.129 1.392 3.485 2.019 6.076 2.028 2.148 0 6.205-.563 6.196-1.577l.027-.747Z"/><path fill="#000" d="M196.829 219.353a36.78 36.78 0 0 0 12.354-7.929s-1.973 5.753-10.059 10.483l.535 50.147-4.075-35.856 1.245-16.845Z" opacity=".3"/><path fill="#263238" d="M186.133 117.583c-2.056.488-8.565 2.24-13.83 4.112a14.7556 14.7556 0 0 0-6.666 5.098c-3.844 5.615-.378 18.062 2.444 41.49-.212 15.158-.646 31.201-.646 31.201 6.961 5.071 39.462 8.519 54.122-2.185 0 0 .488-54.076-.48-61.47-1.844-14.143-7.376-17.933-18.836-18.597l-16.108.351Z"/><path fill="#7F3A6A" d="M206.104 134.188c1.032 3.54 6.786 26.913 6.362 35.709-.323 6.878-2.905 10.225-4.288 11.691-1.383 1.466-3.771 2.24-5.301-.175a20.0485 20.0485 0 0 1-3.181-8.658c-.48-4.702 2.111-20.966 1.392-37.71.273-.386.619-.714 1.019-.966.4-.252.845-.423 1.311-.502.466-.08.943-.067 1.404.038.461.105.896.299 1.282.573Z"/><path fill="#7F3A6A" d="M206.334 126.203c2.407 2.066-.23 7.985-.23 7.985a6.8413 6.8413 0 0 0-5.016.857s-4.803-2.047-4.813-5.605c0-3.237 3.439-2.195 5.883-2.619 2.591-.452 3.891-2.351 4.176-.618Z"/><path fill="#000" d="M206.104 134.188c-.397-1.383-2.287-1.254-3.789-1.734a4.0519 4.0519 0 0 1-2.038-1.751c-.775-1.337 0-3.568 1.088-3.799-2.333.166-5.099-.36-5.09 2.536 0 3.558 4.813 5.605 4.813 5.605 1.5-.92 3.296-1.227 5.016-.857Z" opacity=".2"/><path fill="#263238" d="M189.564 84.6857a14.8062 14.8062 0 0 0 9.472 13.4506 14.8068 14.8068 0 0 0 16.052-3.6014 14.808 14.808 0 0 0 3.867-7.6766c.501-2.885.136-5.8539-1.049-8.5314a14.8061 14.8061 0 0 0-5.612-6.5112 14.8056 14.8056 0 0 0-8.283-2.2969c-1.944.0466-3.861.476-5.64 1.2636a14.815 14.815 0 0 0-4.726 3.3264 14.7976 14.7976 0 0 0-3.093 4.8823 14.8093 14.8093 0 0 0-.988 5.6946ZM179.025 95.4639s2.664 11.2211 3.688 13.0461a5.1066 5.1066 0 0 0 3.006 2.305l-.397-7.92-6.297-7.4311Z"/><path fill="#263238" d="M181.634 79.292a5.5319 5.5319 0 0 0-4.61 1.7241c-1.927 2.0745-.673 8.3625 1.936 14.4938l4.537.4149-1.863-16.6328Z"/><path fill="#FFA8A7" d="M184.917 95.8879c-.922.5625-2.232-1.1525-3.375-2.2957-1.143-1.1433-4.831-2.6462-6.565 1.2262-1.733 3.8724 1.844 9.0356 4.721 9.8656 4.988 1.438 5.652-1.752 5.652-1.752l.848 20.21c3.531 4.306 11.064 3.135 15.167 2.296 3.292-.664 4.14-1.586.922-5.163l-.147-5.79c2.215.299 4.456.36 6.684.184 3.623-.655 5.855-3.577 6.85-7.542 1.522-6.067 1.9-12.8249.378-23.9073-1.844-13.618-17.849-13.369-26.286-7.7725-8.436 5.5965-4.849 20.4407-4.849 20.4407Z"/><path fill="#263238" d="M184.944 97.3724c-.452 0-2.25-2.766-3.402-3.8171-1.604-1.3554.092-14.2634.092-14.2634a6.2625 6.2625 0 0 1-.613-3.6316 6.256 6.256 0 0 1 1.535-3.3479c2.093-2.4064 5.007-5.3568 14.752-4.4348 6.943.6454 14.531 2.6277 20.551-.5071a10.3718 10.3718 0 0 1-3.346 11.064s-2.167 1.466-7.948 2.3142c-5.781.8482-14.835.2213-16.07.083-1.688-.1936-2.01 1.4475-2.813 5.9192-.7 3.9185-1.198 10.5569-2.738 10.6215Z"/><path fill="#263238" d="m181.68 80.2139-5.578-2.766a3.032 3.032 0 0 1 .708-.9864 3.0308 3.0308 0 0 1 2.24-.8019c.408.0242.807.1307 1.173.3131a3.2713 3.2713 0 0 1 1.569 1.8319 3.27 3.27 0 0 1-.112 2.4093Z"/><path fill="#F28F8F" d="M202.102 114.448s-8.168-1.448-11.064-2.886a9.4709 9.4709 0 0 1-4.019-3.79 12.7886 12.7886 0 0 0 2.341 4.527c2.149 2.61 12.779 4.472 12.779 4.472l-.037-2.323Z"/><path fill="#263238" d="M201.42 94.5234a1.6306 1.6306 0 0 1-.352.8713 1.6329 1.6329 0 0 1-1.714.5503 1.6294 1.6294 0 0 1-.793-.5035 1.6328 1.6328 0 0 1-.384-.8576 1.6222 1.6222 0 0 1 .152-.9273c.141-.2875.363-.5272.638-.6895a1.634 1.634 0 0 1 .913-.2232c.44.0331.849.2388 1.137.5722.289.3334.434.7674.403 1.2073ZM200.268 89.6828l-3.578 1.7426a2.0943 2.0943 0 0 1-.1-1.5699 2.0934 2.0934 0 0 1 1.022-1.1961 1.9445 1.9445 0 0 1 2.216.364c.19.1873.34.4118.44.6594Z"/><path fill="#F28F8F" d="m200.304 104.822 5.081 1.392c-.077.339-.221.659-.424.941-.202.283-.46.521-.756.702-.297.18-.627.299-.971.35-.344.05-.694.031-1.03-.056a2.772 2.772 0 0 1-1.62-1.282 2.77 2.77 0 0 1-.28-2.047Z"/><path fill="#263238" d="m214.872 90.2453-3.789-1.3c.072-.2515.195-.4857.36-.6882.166-.2026.371-.3694.603-.4901a1.9243 1.9243 0 0 1 1.517-.1125c.51.1806.93.5506 1.174 1.0331a2.1 2.1 0 0 1 .135 1.5577ZM214.485 93.8595c.017.3196-.061.637-.223.9129a1.6342 1.6342 0 0 1-.69.6384 1.6316 1.6316 0 0 1-1.785-.2319 1.6281 1.6281 0 0 1-.503-.7934 1.6256 1.6256 0 0 1 .017-.9396c.098-.3047.283-.5739.533-.7741a1.634 1.634 0 0 1 .871-.352c.219-.0176.438.0085.646.0766a1.65 1.65 0 0 1 .567.3204c.165.1433.301.3182.398.5144.097.1961.155.4097.169.6283Z"/><path fill="#F28F8F" d="m206.676 93.0667.59 9.7913 5.108-1.77-5.698-8.0213Z"/><path fill="#37474F" d="M201.365 125.392c-4.518-.922-14.411-3.688-15.444-8.943l-.138-2.868c-1.752 0-2.554 1.964-3.42 4.767-.36 7.376 7.431 14.125 15.259 15.941 0 0-.203-3.835 1.125-5.836a13.5215 13.5215 0 0 1 2.618-3.061ZM202.121 115.25c1.183.354 2.264.986 3.153 1.844 5.864 6.067 2.517 14.014 2.517 14.014s-.258-3.476-1.964-4.61a8.5468 8.5468 0 0 0-4.462-1.106c1.438-1.531 1.659-2.766.922-5.163l-.166-4.979Z"/><path fill="#B16668" d="M309.737 136.456c-3.485 10.142-7.837 27.891-7.837 27.891l-32.575 13.12.922 4.278-7.735-3.181-3.826 3.992s4.232 9.893 9.874 8.63c1.336-.259 2.656-.592 3.956-.996 1.779-.627 3.162-1.41 4.545-1.954 2.047-.793 4.131-1.439 6.85-2.25 10.65-3.172 21.962-6.141 25.291-7.155 5.108-1.567 5.172-2.637 7.293-8.491 3.052-8.446 8.971-28.352 8.971-28.352v-18.744c-6.731.074-11.986 2.259-15.729 13.212Z"/><path fill="#37474F" d="M369.049 341.048a91.8875 91.8875 0 0 1 1.696 9.312c.452 3.513.729 6.113 1.752 12.124.922 5.477 1.641 9.663-2.231 13.775-3.402 3.623-9.405 5.016-11.378.922-2.259-4.702-1.964-12.346-1.659-17.103.304-4.758.239-6.15.276-9.939 0-3.338.194-4.703.378-7.579 3.661-.24 7.515-1.226 11.166-1.512Z"/><path fill="#263238" d="m328.592 358.769-1.254-.185c-.083-3.946.147-7.542-.83-9.404l1.788-4.831.296 14.42Z"/><path fill="#263238" d="M331.68 340.826c-.286 2.702-1.844 5.468-1.927 10.788a46.412 46.412 0 0 0 .138 6.804l-1.3.351-.295-14.421 3.384-3.522Z"/><path fill="#263238" d="M301.955 362.392s.055 1.577.737 2.093c.682.516 2.112 2.074 9.045 1.669 6.933-.406 9.368-2.121 11.737-4.287 2.37-2.167 2.987-7.837 3.347-10.521.682-5.19 2.84-7.91 4.859-10.52.335-.857.405-1.794.203-2.692 0 0-5.735-.322-8.215 6.03-2.481 6.353-4.426 13.719-10.032 15.48a96.8572 96.8572 0 0 1-11.681 2.748Z"/><path fill="#B16668" d="M369.049 341.048c0-4.481 0-10.428.414-18.311.471-9.22.535-16.347.498-26.074 0-7.376-.415-13.886-3.024-28.001 2.766-28.352 3.771-57.653.424-68.422-2.867-9.22-5.799-12.327-8.381-16.854-1.346-2.342-3.808-5.818-3.808-8.953a57.9388 57.9388 0 0 1-20.486 3.983c-13.148.12-17.74-3.448-17.74-3.448s-5.928 68.689-4.693 91.103c.738 13.267 1.798 32.906 2.195 42.559.304 7.441 1.161 17.122 1.088 21.206-.137 3.58-.83 7.117-2.056 10.483a75.7246 75.7246 0 0 1-4.306 10.613 10.833 10.833 0 0 1-1.595 2.507 28.7677 28.7677 0 0 1-2.941 2.859c-2.121 1.844-3.181 2.766-2.997 4.425.185 1.66 1.448 2.379 2.877 2.766 3.411 1.024 7.265.599 10.677 0 3.411-.599 7.219-2.213 8.676-5.467.386-.961.658-1.964.811-2.988.627-3.356 1.199-6.776 2.609-9.902.496-1.327 1.12-2.602 1.863-3.808.922-1.29 1.991-2.701 2.157-4.315.129-1.346-.922-3.254-2.259-5.292-1.18-1.77-.857-2.996-.442-8.565.922-12.06 3.347-20.736 5.412-35.387 1.023-7.274.793-13.101-.434-21.206 1.402-9.598 3.827-19.666 5.256-26.295 2.314 13.83 3.799 18.929 5.062 29.421 1.742 14.54 9.92 44.975 11.22 52.803 1.3 7.828 2.121 13.074 2.766 19.436.526 5.532.922 16.596 1.632 21.657 1.107 8.086 9.432 5.615 10.779-1.512.829-4.785-1.181-14.835-1.254-21.021Z"/><path fill="#37474F" d="M316.495 180.472c-.756 9.515-4.214 47.944-4.887 60.004-.544 9.69-.267 21.132 0 29.034 6.38 4.14 32.491 11.589 45.98-8.003 2.766 6.666 6.058 10.289 9.967 8.04 0 0 2.867-28.02 2.987-46.1.12-18.081-2.047-26.692-6.454-33.192s-7.523-11.064-7.523-11.064l-40.07 1.281ZM331.274 334.179c-.986-1.743-1.89-2.231-2.839-3.734a7.4257 7.4257 0 0 0-2.241 3.688c-.424 1.383-1.53 8.196-3.208 13.609-1.254 4.066-3.366 6.223-6.27 7.329-1.822.687-3.787.909-5.716.646-3.605-.489-2.766-3.089-2.766-3.089-.83 1.153-4.269 3.956-6.307 6.021-1.152 1.171-.608 2.941.268 4.084 1.005.867 3.356 2.6 11.986 1.346 7.652-1.106 9.441-4.61 10.142-6.232a37.3082 37.3082 0 0 0 1.585-7.173 22.7224 22.7224 0 0 1 2.683-7.607c.176-.295.342-.572.507-.811.573-.84 1.188-1.649 1.844-2.425.535-.646.922-.922 1.107-1.568a5.8452 5.8452 0 0 0-.775-4.084Z"/><path fill="#7F3A6A" d="M315.047 157.367c.203 3.808 1.909 17.601 1.909 17.601 15.554 10.529 38.216-.535 38.216-.535l4.242-28.702s-9.303-9.533-1.688-21.51l-12.336-.793-13.203-.064-6.749-.12c-4.748 3.485-12.954 12.401-14.475 16.31-1.522 3.909-2.831 9.672 4.084 17.813Z"/><path fill="#fff" d="M315.047 157.367c.203 3.808 1.909 17.601 1.909 17.601 15.554 10.529 38.216-.535 38.216-.535l4.242-28.702s-9.303-9.533-1.688-21.51l-12.336-.793-13.203-.064-6.749-.12c-4.748 3.485-12.954 12.401-14.475 16.31-1.522 3.909-2.831 9.672 4.084 17.813Z" opacity=".6"/><path fill="#263238" d="M330.306 156.74c1.346 1.743 7.597 3.891 12.733 1.613a11.6142 11.6142 0 0 0 7.145-9.404s1.466 7.92-6.454 11.147c-7.92 3.227-13.018-1.623-13.424-3.356Z" opacity=".1"/><path fill="#263238" d="M323.096 111.627s23.271 9.072 23.271 5.015c4.361-8.086 13.176-10.695 13.176-24.8292 0-14.752-12.263-21.9805-24.525-21.9805a22.2823 22.2823 0 0 0-10.96 2.8335 22.2815 22.2815 0 0 0-8.153 7.8525c-6.998 1.844-5.21 11.5066 1.797 13.2399l5.394 17.8688Z"/><path fill="#263238" d="M346.976 119.86c-3.301-2.932-3.328-8.298-.046-11.986 3.282-3.688 8.612-4.287 11.912-1.346 3.301 2.941 3.329 8.298.056 11.986-3.273 3.688-8.612 4.25-11.922 1.346Z"/><path fill="#B16668" d="M346.367 123.548v-17.924s2.305 2.296 5.689-.184c3.034-2.222 4.306-6.9889 2.176-9.4506-1.503-1.7426-6.168-2.7015-7.984 1.051 0 0-5.403-.2581-12.457-5.2646-7.053-5.0064-8.722-9.4228-13.046-9.9207-2.028 1.549-4.001 6.1129-3.789 18.1449.156 8.907 4.139 13.157 6.177 14.688 1.66 1.244 3.78 1.419 7.376.829v8.446s-10.612 11.811-2.065 11.285c12.862-.793 17.923-11.7 17.923-11.7Z"/><path fill="#263238" d="M346.248 96.2107v4.9423a3.4956 3.4956 0 0 1-2.476-1.001 3.4922 3.4922 0 0 1-1.046-2.4569v-4.7668l3.522 3.2824ZM331.634 96.266c-.01.3213.074.6385.243.9118.17.2734.416.4907.708.6247a1.6318 1.6318 0 0 0 2.265-1.0944c.077-.3122.059-.64-.05-.9424a1.6264 1.6264 0 0 0-.563-.7574 1.6312 1.6312 0 0 0-.888-.319 1.644 1.644 0 0 0-.636.0972c-.203.074-.39.1876-.55.3341a1.6502 1.6502 0 0 0-.379.5198 1.6328 1.6328 0 0 0-.15.6256ZM318.09 91.9971l3.559-2.0007a1.9922 1.9922 0 0 0-2.766-.793c-.47.271-.815.7144-.963 1.236a2.0806 2.0806 0 0 0 .17 1.5577Z"/><path fill="#9A4A4D" d="m332.888 105.707-4.536 1.614c.098.299.255.574.462.811.207.237.46.43.742.568.283.137.591.217.905.233.314.017.628-.03.924-.137a2.4537 2.4537 0 0 0 1.503-3.089Z"/><path fill="#263238" d="M319.205 95.8879c-.025.4339.123.8601.412 1.1851.288.325.694.5221 1.128.5483.437.0126.861-.1464 1.181-.4429.321-.2965.513-.7068.534-1.143a1.6338 1.6338 0 0 0-.089-.6354 1.6382 1.6382 0 0 0-.326-.5528 1.6476 1.6476 0 0 0-.512-.3856 1.6451 1.6451 0 0 0-.622-.1595 1.6627 1.6627 0 0 0-1.178.4434 1.664 1.664 0 0 0-.528 1.1424Z"/><path fill="#9A4A4D" d="m327.043 95.0951-.24 8.7309-4.684-1.419 4.924-7.3119ZM330.509 115.517c3.78-.479 11.571-2.674 12.779-5.698a7.8049 7.8049 0 0 1-2.766 3.854c-2.323 1.955-10.05 4.159-10.05 4.159l.037-2.315Z"/><path fill="#263238" d="M340.789 70.3762c-7.818-1.7886-10.934.4795-18.845-.3595-3.246-.3412-6.214-.4979-8.381.5993-2.471 1.2447-3.919 3.9738-3.587 7.4866.563 5.9377 6.961 7.459 6.961 7.459s5.431-12.2165 12.641-12.1243c7.21.0922 11.211-3.0611 11.211-3.0611ZM316.633 172.829l-.138 7.643s5.034 3.854 14.273 4.472c9.238.618 22.211-3.024 25.816-5.735-1.06-2.304-1.4-4.875-.978-7.376a45.8962 45.8962 0 0 1-22.893 5.117c-12.945-.627-16.08-4.121-16.08-4.121Z"/><path fill="#B16668" d="M378.628 202.72c1.052-9.57 2.554-27.531 2.075-30.518-.738-4.527-8.547-30.426-11.239-38.318-2.573-7.469-6.454-9.746-13.065-9.746 0 0-4.61 2.065-4.61 9.404 0 5.588 2.766 11.313 2.766 11.313l11.599 32.925.682 22.875c.066 2.244-.579 4.451-1.844 6.306a37.478 37.478 0 0 0-2.646 3.983c-1.106 2.296-1.512 4.306-2.766 6.371-1.254 2.066-.627 2.186.664 2.315s2.941-1.614 4.13-3.688c.378-.637.738-1.181 1.07-1.632a34.7503 34.7503 0 0 1-2.296 12.041c-1.291 3.052-1.245 5.329 1.946 5.375 3.992.065 8.759-1.539 11.22-4.711 2.462-3.172 2.766-8.114 2.766-12.115 0-4.002-.949-8.197-.452-12.18Z"/><path fill="#FFA8A7" d="M244.81 191.306c-1.263-.203-3.568-.498-5.09-.627-4.361-.369-10.04-.71-10.04-.71l1.355-13.784 8.252 1.18c2.543.364 5.13.302 7.653-.184 3.328-.581 6.214-2.905 9.598-2.905 1.742 0 2.766 1.116 3.798 2.481.708.81 1.35 1.676 1.918 2.59 2.489 4.14 6.214 9.543 7.634 10.345 1.669.922 2.628.452 2.628.452 1.89 3.209-4.887 4.131-7.81 4.887-3.138.714-6.404.654-9.515-.176-2.36-.746-9.118-3.346-10.381-3.549Z"/><path fill="#37474F" d="M172.276 121.704a21.8332 21.8332 0 0 0-8.861 5.265c-3.688 3.688-3.872 9.893-2.019 16.125 1.853 6.233 17.915 34.068 20.284 38.328 3.089 5.532 4.905 5.532 10.142 6.122 6.556.784 45.897 3.356 45.897 3.356 2.296-.452 3.532-11.931 1.236-14.024l-41.444-6.454-13.95-30.37s-3.771-17.288-11.285-18.348Z"/><path fill="#B16668" d="M273.686 175.742c-2.627.738-4.665-.092-7.579-1.06-3.061-1.005-3.807-1.143-6.149-.406-2.176.692-4.684 1.19-5.578 2.481-.268.396-1.153 3.107-1.844 5.117.055.995 2.434 1.346 3.476-.102.922-1.235 1.088-1.964 1.484-2.415a26.7 26.7 0 0 1 4.748 0l10.908 4.868.534-8.483ZM244.275 191.223c.361-.505.839-.915 1.393-1.194.554-.28 1.167-.42 1.788-.411 1.371-.053 2.744.018 4.103.213 1.226.147 2.461.239 3.688.387.627.083 1.244.166 1.844.286.405.073.922.359.922.857a5.1456 5.1456 0 0 1 1.604-.406 2.1055 2.1055 0 0 1 1.54.489c.922.839.285 2.13-.305 2.95a4.7054 4.7054 0 0 1-2.766 2.01c-2.13.311-4.3.205-6.389-.313-2.056-.535-9.377-2.858-7.422-4.868Z"/><path fill="#7F3A6A" d="M265.702 84.3353c17.95 0 32.501-12.7429 32.501-28.4622 0-15.7192-14.551-28.4621-32.501-28.4621-17.949 0-32.5 12.7429-32.5 28.4621 0 15.7193 14.551 28.4622 32.5 28.4622Z"/><path fill="#7F3A6A" d="M240.052 71.7039c-.461 3.7986-4.195 10.354-10.197 12.3916a.4036.4036 0 0 0-.206.1469.4008.4008 0 0 0-.079.2404c0 .0864.027.1707.079.2403a.403.403 0 0 0 .206.1469 17.5176 17.5176 0 0 0 18.44-5.4398l-8.243-7.7263ZM291.352 71.7039c.461 3.7986 4.195 10.354 10.207 12.3916a.412.412 0 0 1 .206.1469.4066.4066 0 0 1 .078.2404.4063.4063 0 0 1-.078.2403.4114.4114 0 0 1-.206.1469 17.5177 17.5177 0 0 1-10.033.0358 17.5117 17.5117 0 0 1-8.407-5.4756l8.233-7.7263Z"/><path fill="#FAFAFA" d="M247.17 50.3135a7.0716 7.0716 0 0 1 2.397.3873 5.6393 5.6393 0 0 1 1.844 1.0972c.536.465.969 1.0365 1.272 1.678.3.6782.469 1.4072.498 2.1483v2.7014a5.9613 5.9613 0 0 1-.489 2.1483 5.1232 5.1232 0 0 1-1.217 1.678 5.5243 5.5243 0 0 1-1.844 1.0972 6.9212 6.9212 0 0 1-2.378.3872h-5.136a.499.499 0 0 1-.369-.1567.497.497 0 0 1-.111-.1645.4833.4833 0 0 1-.036-.1951V50.8206a.4833.4833 0 0 1 .036-.1951.4955.4955 0 0 1 .111-.1644.5017.5017 0 0 1 .169-.1122.502.502 0 0 1 .2-.0354h5.053Zm2.489 5.2278c-.074-1.4568-.922-2.1852-2.591-2.1852h-1.936v7.2377h2.038c1.595 0 2.424-.7376 2.489-2.1943v-2.1114c.018-.2305.018-.4794 0-.7468ZM264.909 60.5938a.491.491 0 0 1 .36.1475.4997.4997 0 0 1 .115.1637.489.489 0 0 1 .041.1959v2.0192a.5342.5342 0 0 1-.516.5163h-9.026a.4958.4958 0 0 1-.196-.0415.4947.4947 0 0 1-.164-.1153.4804.4804 0 0 1-.111-.1645.4825.4825 0 0 1-.036-.195V50.8206a.507.507 0 0 1 .148-.3586.507.507 0 0 1 .359-.1485h8.879a.508.508 0 0 1 .507.5071v2.0192a.4834.4834 0 0 1-.037.195.4804.4804 0 0 1-.111.1645.4933.4933 0 0 1-.164.1153.491.491 0 0 1-.195.0415h-5.864v2.056h5.439a.5043.5043 0 0 1 .199.0368.498.498 0 0 1 .169.1117.5188.5188 0 0 1 .112.1688.5213.5213 0 0 1 .037.1991v2.0191a.4835.4835 0 0 1-.037.1951.4804.4804 0 0 1-.111.1645.5055.5055 0 0 1-.369.1475h-5.439v2.1391h6.011ZM274.655 50.3135a.7563.7563 0 0 1 .312.0397.75.75 0 0 1 .268.1632c.124.1183.219.2634.277.4241l4.149 11.986c.046.0889.074.186.083.2858a.423.423 0 0 1-.035.1606.4133.4133 0 0 1-.094.1344.3865.3865 0 0 1-.249.1107h-2.397a.7564.7564 0 0 1-.544-.166.6452.6452 0 0 1-.194-.3135l-.553-1.5581h-5.062l-.535 1.5766a.6728.6728 0 0 1-.202.3135.7439.7439 0 0 1-.256.1375.734.734 0 0 1-.288.0284h-2.398a.4068.4068 0 0 1-.296-.1187.3948.3948 0 0 1-.089-.1359.3833.3833 0 0 1-.029-.1603.7108.7108 0 0 1 .073-.2858l4.149-11.986c.059-.1607.153-.3058.277-.4241a.7558.7558 0 0 1 .581-.2029l3.052-.0092Zm-3.08 8.298h3.08l-1.54-4.61-1.54 4.61ZM290.614 60.5938a.508.508 0 0 1 .508.5071v2.0192a.501.501 0 0 1-.037.195.4804.4804 0 0 1-.111.1645.4947.4947 0 0 1-.164.1153.4921.4921 0 0 1-.196.0415H281.8a.5131.5131 0 0 1-.2-.0412.5219.5219 0 0 1-.169-.1156.495.495 0 0 1-.111-.1645.4825.4825 0 0 1-.036-.195V50.8206a.4826.4826 0 0 1 .036-.1951.496.496 0 0 1 .111-.1645.5112.5112 0 0 1 .17-.1114.5052.5052 0 0 1 .199-.0361h2.49a.493.493 0 0 1 .195.0364.4989.4989 0 0 1 .164.1111.4997.4997 0 0 1 .115.1637.5077.5077 0 0 1 .042.1959v9.7732h5.808Z"/></svg>