<svg xmlns="http://www.w3.org/2000/svg" width="40" height="40" fill="none"><g clip-path="url(#a)"><path fill="#7F3A6A" d="M20 0C8.972 0 0 8.972 0 20c0 11.0271 8.972 20 20 20 11.0271 0 20-8.9729 20-20C40 8.972 31.0288 0 20 0Z"/><path fill="#fff" d="M22.1135 19.616h3.2539l.4213-4.0981h-3.6736v-2.4087c0-.9055.6002-1.1166 1.0223-1.1166h2.5933V8.0137L22.1578 8c-3.9636 0-4.8658 2.9671-4.8658 4.8659v2.6512H15v4.0989h2.292v11.5976h4.8215V19.616Z"/></g><defs><clipPath id="a"><path fill="#fff" d="M0 0h40v40H0z"/></clipPath></defs></svg>