<svg xmlns="http://www.w3.org/2000/svg" width="40" height="40" fill="none"><g clip-path="url(#a)"><path fill="#7F3A6A" d="M20 0a20 20 0 1 0 0 40.0002A20 20 0 0 0 20 0Z"/><g fill="#fff" clip-path="url(#b)"><path d="M30.9784 15.4681c-.0515-1.169-.2406-1.9726-.5114-2.669-.2793-.7392-.7091-1.4009-1.2721-1.9511a5.415 5.415 0 0 0-1.9469-1.2678c-.7004-.2708-1.4999-.4598-2.6688-.5114C23.4015 9.013 23.0276 9 20.0407 9s-3.3608.013-4.5341.0645c-1.1689.0515-1.9725.2407-2.6687.5113-.7394.2794-1.4012.7091-1.9513 1.2722a5.4171 5.4171 0 0 0-1.2678 1.9469c-.2708.7006-.4599 1.4999-.5114 2.6688-.0559 1.1777-.0688 1.5515-.0688 4.5384 0 2.987.0129 3.3608.0644 4.5341.0516 1.169.2408 1.9726.5116 2.669a5.4254 5.4254 0 0 0 1.272 1.9511 5.4142 5.4142 0 0 0 1.9469 1.2678c.7006.2708 1.4998.4598 2.6689.5114 1.1732.0517 1.5472.0644 4.5341.0644 2.9869 0 3.3608-.0127 4.5341-.0644 1.169-.0516 1.9726-.2406 2.6688-.5114a5.6272 5.6272 0 0 0 3.2191-3.2189c.2706-.7006.4598-1.5.5113-2.669.0516-1.1733.0645-1.5471.0645-4.5341 0-2.9869-.0044-3.3607-.0559-4.534Zm-1.9811 8.9822c-.0474 1.0744-.2279 1.6546-.3783 2.0414a3.6494 3.6494 0 0 1-2.0887 2.0888c-.3868.1504-.9712.3308-2.0414.378-1.1604.0517-1.5084.0645-4.4438.0645-2.9354 0-3.2878-.0128-4.4439-.0645-1.0745-.0472-1.6547-.2276-2.0415-.378-.4769-.1763-.911-.4557-1.2634-.821a3.4207 3.4207 0 0 1-.821-1.2634c-.1504-.3868-.3308-.9714-.378-2.0415-.0517-1.1603-.0645-1.5085-.0645-4.4439 0-2.9354.0128-3.2877.0645-4.4438.0472-1.0744.2276-1.6546.378-2.0414.1763-.4771.4557-.9111.8253-1.2636a3.4156 3.4156 0 0 1 1.2635-.8208c.3868-.1504.9714-.3309 2.0414-.3782 1.1604-.0515 1.5086-.0645 4.4438-.0645 2.9397 0 3.2877.013 4.4439.0645 1.0745.0473 1.6546.2278 2.0414.3782.477.1761.9111.4555 1.2635.8208.3653.3567.6447.7865.8209 1.2636.1504.3868.3309.9712.3783 2.0414.0515 1.1604.0644 1.5084.0644 4.4438 0 2.9354-.0129 3.2792-.0644 4.4396Z"/><path d="M20.0409 14.3506c-3.12 0-5.6515 2.5313-5.6515 5.6515 0 3.1202 2.5315 5.6515 5.6515 5.6515 3.1202 0 5.6515-2.5313 5.6515-5.6515 0-3.1202-2.5313-5.6515-5.6515-5.6515Zm0 9.3175c-2.0241 0-3.666-1.6417-3.666-3.666 0-2.0242 1.6419-3.6659 3.666-3.6659 2.0243 0 3.666 1.6417 3.666 3.6659 0 2.0243-1.6417 3.666-3.666 3.666ZM27.2353 14.1272c0 .7286-.5907 1.3194-1.3195 1.3194-.7286 0-1.3194-.5908-1.3194-1.3194 0-.7287.5908-1.3193 1.3194-1.3193.7288 0 1.3195.5906 1.3195 1.3193Z"/></g></g><defs><clipPath id="a"><path fill="#fff" d="M0 0h40v40H0z"/></clipPath><clipPath id="b"><path fill="#fff" d="M9 9h22v22H9z"/></clipPath></defs></svg>