<svg xmlns="http://www.w3.org/2000/svg" width="40" height="40" fill="none"><g clip-path="url(#a)"><path fill="#7F3A6A" d="M34.5455 0H5.4545A5.4546 5.4546 0 0 0 0 5.4546v29.0909A5.4545 5.4545 0 0 0 5.4546 40h29.0909A5.4546 5.4546 0 0 0 40 34.5455V5.4545A5.4547 5.4547 0 0 0 34.5455 0Z"/><path fill="#fff" d="M13.5729 31.9779a.8435.8435 0 0 0 .0635-.3234V16.5909a.8453.8453 0 0 0-.8432-.8454H9.2001a.8452.8452 0 0 0-.8455.8454v15.0636a.8429.8429 0 0 0 .5216.7818A.8446.8446 0 0 0 9.2 32.5h3.5931a.843.843 0 0 0 .7797-.5221ZM9.1015 13.7436a3.4092 3.4092 0 1 0 3.7883-5.6692 3.4092 3.4092 0 0 0-3.7883 5.6692ZM32.3597 32.0114a.7757.7757 0 0 0 .0585-.2978l-.0045-7.2818v-.0621c.0003-3.1808.0007-8.8742-6.1364-8.8742-2.7886 0-4.0954 1.0181-4.9772 2.3431V16.525a.7773.7773 0 0 0-.7773-.7773H16.791a.7744.7744 0 0 0-.5488.2278.7747.7747 0 0 0-.2262.5495v15.1977a.7752.7752 0 0 0 .4779.7181.7744.7744 0 0 0 .2971.0592h3.7318a.7774.7774 0 0 0 .7659-.7773v-8.15c.0955-1.0954.5795-3.5341 2.9545-3.5341 3.066 0 2.7569 3.5637 2.7569 4.6182v7.0568a.7757.7757 0 0 0 .227.5503.7746.7746 0 0 0 .5502.227h3.8637a.776.776 0 0 0 .7187-.4795Z"/></g><defs><clipPath id="a"><path fill="#fff" d="M0 0h40v40H0z"/></clipPath></defs></svg>