<svg xmlns="http://www.w3.org/2000/svg" width="194" height="48" fill="none"><path fill="#803A6A" d="M180.877 47.6v-8.288l1.288 3.332L173.401 28h5.852l6.328 10.612h-3.388L188.549 28h5.376l-8.736 14.644 1.232-3.332V47.6h-5.544ZM163.108 36.596h9.044v4.284h-9.044v-4.284ZM163.5 47.6h-5.544V28h15.372v4.284H163.5V47.6ZM148.468 47.6V28h5.544v19.6h-5.544Z"/><path fill="#DF286A" d="m132.369 43.26-.308-6.216L140.489 28h6.104l-8.4 9.1-3.08 3.22-2.744 2.94Zm-4.956 4.34V28h5.488v19.6h-5.488Zm13.16 0-6.384-8.092 3.612-3.864 9.212 11.956h-6.44Z"/><path fill="#803A6A" d="M106.687 47.6V28h8.96c1.792 0 3.332.2893 4.62.868 1.306.5787 2.314 1.4187 3.024 2.52.709 1.0827 1.064 2.3707 1.064 3.864 0 1.4747-.355 2.7533-1.064 3.836-.71 1.064-1.718 1.8853-3.024 2.464-1.288.56-2.828.84-4.62.84h-5.88l2.464-2.324V47.6h-5.544Zm12.124 0-4.872-7.14h5.908l4.9 7.14h-5.936Zm-6.58-6.944-2.464-2.548h5.544c1.157 0 2.016-.252 2.576-.756.578-.504.868-1.204.868-2.1 0-.9147-.29-1.624-.868-2.128-.56-.504-1.419-.756-2.576-.756h-5.544l2.464-2.548v10.836ZM82.3228 47.6l8.652-19.6h5.46l8.6802 19.6h-5.7682l-6.776-16.884h2.184L87.9788 47.6h-5.656Zm4.732-3.808 1.428-4.088h9.576l1.428 4.088h-12.432Z"/><path fill="#EB8B27" d="M57.96 47.6V28h4.564l8.12 13.328h-2.408L76.132 28h4.564l.056 19.6h-5.096L75.6 35.756h.868l-5.908 9.912h-2.464l-6.076-9.912h1.064V47.6H57.96Z"/><path fill="url(#a)" d="M38.2319 18.7986h7.3004v29.2015h-7.3004z"/><path fill="url(#b)" d="M26.9165 26.0989h7.6654V48h-7.6654z"/><path fill="url(#c)" d="M15.9658 33.3992h7.6654V48h-7.6654z"/><path fill="url(#d)" d="M5.0154 38.5095h7.6654V48H5.0154z"/><path fill="#803A6A" d="m39.3269 16.7909-4.9277-4.0152 4.9277-6.7529-2.3726-1.825L47.9049 0l-1.2776 11.8631-2.3726-2.0076-4.9278 6.9354Z"/><path fill="#803A6A" d="M36.5894 13.688C29.8365 21.3534 19.981 29.7488 1 31.0264c20.5871 1.6061 33.5209-9.9164 37.4144-15.8783l-1.825-1.4601Z"/><defs><linearGradient id="a" x1="39.964" x2="47.6419" y1="42.1765" y2="40.3721" gradientUnits="userSpaceOnUse"><stop stop-color="#DF286A"/><stop offset=".0001" stop-color="#DF286A"/><stop offset=".4792" stop-color="#E3484D"/><stop offset=".4793" stop-color="#E3484D"/><stop offset="1" stop-color="#E86A2D"/></linearGradient><linearGradient id="b" x1="28.7352" x2="36.4113" y1="43.6323" y2="41.1068" gradientUnits="userSpaceOnUse"><stop stop-color="#DF286A"/><stop offset=".0001" stop-color="#DF286A"/><stop offset=".4792" stop-color="#E3484D"/><stop offset=".4793" stop-color="#E3484D"/><stop offset="1" stop-color="#E86A2D"/></linearGradient><linearGradient id="c" x1="17.7845" x2="24.6254" y1="45.0881" y2="41.712" gradientUnits="userSpaceOnUse"><stop stop-color="#DF286A"/><stop offset=".0001" stop-color="#DF286A"/><stop offset=".4792" stop-color="#E3484D"/><stop offset=".4793" stop-color="#E3484D"/><stop offset="1" stop-color="#E86A2D"/></linearGradient><linearGradient id="d" x1="6.834" x2="12.2303" y1="46.1073" y2="42.0102" gradientUnits="userSpaceOnUse"><stop stop-color="#DF286A"/><stop offset=".0001" stop-color="#DF286A"/><stop offset=".4792" stop-color="#E3484D"/><stop offset=".4793" stop-color="#E3484D"/><stop offset="1" stop-color="#E86A2D"/></linearGradient></defs></svg>