<svg xmlns="http://www.w3.org/2000/svg" width="1455" height="61" fill="none"><g clip-path="url(#a)"><path fill="#7F3A6A" d="M0 0h1454.1l.0011 61H.0011z"/><path fill="#fff" d="M4.6567 39 .4084 21.24h3.672l2.8562 12.528 3.3358-12.528h3.264l3.3122 12.528 2.8558-12.528h3.672L19.1287 39h-3.624l-3.6002-12.528L8.2807 39h-3.624Zm24.3797.12c-.384 0-.824-.04-1.32-.12-.496-.064-.976-.224-1.44-.48-.448-.256-.824-.64-1.128-1.152-.288-.528-.432-1.248-.4321-2.16l-.0001-9.912c0-.784.1199-1.44.3599-1.968s.56-.944.96-1.248c.4-.304.84-.52 1.32-.648.48-.128.952-.192 1.416-.192 1.2 0 2.256.016 3.168.048.928.032 1.76.072 2.496.12.736.032 1.408.08 2.016.144l.0001 2.976h-6.624c-.496 0-.88.12-1.152.36-.272.24-.408.608-.408 1.104v2.568l7.032.192.0001 2.808-7.032.192V34.2c0 .416.064.744.192.984.1441.224.3281.384.5521.48.24.08.488.12.744.12h6.696v2.976c-.704.08-1.488.144-2.352.192-.848.048-1.712.088-2.592.12-.864.032-1.688.048-2.472.048ZM45.2242 39l-.0003-17.76h6.984c1.76 0 3.04.408 3.84 1.224.816.8 1.2241 1.944 1.2241 3.432 0 .704-.104 1.328-.312 1.872-.192.528-.472.968-.84 1.32-.3679.336-.8079.568-1.3199.696.384.096.752.248 1.104.456.368.208.696.488.984.84.304.352.536.784.696 1.296.176.496.264 1.072.264 1.728.0001 1.2-.2079 2.16-.6239 2.88-.4.72-1 1.24-1.8 1.56-.784.304-1.752.456-2.904.456h-7.296Zm3.552-3.192h3.648c.416 0 .776-.08 1.08-.24.304-.16.536-.408.696-.744.1759-.336.2639-.784.2639-1.344 0-.464-.088-.856-.264-1.176-.176-.32-.416-.568-.72-.744-.304-.176-.656-.264-1.056-.264h-3.648l.0001 4.512Zm-.0002-7.248h3.456c.512 0 .912-.184 1.2-.552.304-.384.456-.88.456-1.488.016-.784-.144-1.328-.48-1.632-.336-.304-.744-.456-1.224-.456h-3.408v4.128Zm18.1911 10.56c-.976 0-1.888-.08-2.736-.24-.848-.176-1.592-.472-2.232-.888-.624-.432-1.112-1.024-1.464-1.776-.3361-.768-.5041-1.744-.5041-2.928l-.0002-12.048h3.552l.0002 12.024c0 .656.128 1.176.384 1.56.272.384.656.664 1.152.84.512.176 1.128.264 1.848.264.704 0 1.304-.088 1.8-.264.512-.176.896-.456 1.152-.84.272-.384.408-.904.408-1.56l-.0002-12.024h3.576l.0002 12.048c0 1.184-.176 2.16-.5279 2.928-.352.752-.84 1.344-1.464 1.776-.624.416-1.36.712-2.208.888-.832.16-1.744.24-2.736.24ZM80.9482 39l-.0001-5.376-5.3522-12.384h3.696L82.7961 30l3.4798-8.76h3.552l-5.3278 12.384.0001 5.376h-3.552Zm20.7538 0V24.432h-4.8722l-.0001-3.192H110.15v3.192h-4.896V39h-3.552Zm10.366 0V21.24h7.344c.704 0 1.36.088 1.968.264.608.16 1.144.448 1.608.864.464.416.824.992 1.08 1.728.272.736.408 1.68.408 2.832 0 .816-.08 1.512-.24 2.088-.16.576-.376 1.048-.648 1.416-.256.368-.552.664-.888.888-.336.224-.68.408-1.032.552L124.98 39h-3.624l-2.856-6.576h-.672c-.24-.016-.488-.024-.744-.024h-.768c-.256 0-.488-.008-.696-.024V39h-3.552Zm3.552-9.432h3.168c.32 0 .608-.04.864-.12.256-.08.48-.216.672-.408.192-.208.336-.48.432-.816.112-.336.168-.768.168-1.296 0-.496-.056-.904-.168-1.224-.096-.336-.24-.592-.432-.768-.192-.192-.416-.32-.672-.384-.256-.08-.544-.12-.864-.12h-3.168v5.136ZM125.987 39l5.568-17.76h4.488L141.611 39h-3.696l-1.128-3.72h-6.048L129.635 39h-3.648Zm5.592-6.912h4.368l-2.184-7.8-2.184 7.8ZM143.076 39V25.296c0-.784.12-1.44.36-1.968.239-.528.559-.944.959-1.248.4-.304.84-.52 1.32-.648.48-.128.952-.192 1.416-.192.576 0 1.288.008 2.136.024.864 0 1.776.024 2.736.072.976.048 1.912.12 2.808.216l.001 2.976h-6.696c-.496 0-.872.136-1.128.408-.24.256-.36.6-.36 1.032v3.024l7.032.192v2.808l-7.032.192V39h-3.552Zm13.758 0-.001-13.704c0-.784.12-1.44.36-1.968s.56-.944.96-1.248c.4-.304.84-.52 1.32-.648.48-.128.952-.192 1.416-.192.576 0 1.288.008 2.136.024.864 0 1.776.024 2.736.072.976.048 1.912.12 2.808.216v2.976h-6.696c-.496 0-.872.136-1.128.408-.24.256-.36.6-.36 1.032v3.024l7.032.192v2.808l-7.032.192.001 6.816h-3.552Zm13.992 0-.001-17.76h3.552l.001 17.76h-3.552Zm12.609.144c-1.04 0-1.96-.12-2.76-.36-.784-.24-1.456-.68-2.016-1.32-.544-.64-.96-1.552-1.248-2.736-.272-1.2-.409-2.752-.409-4.656 0-1.84.144-3.344.432-4.512.304-1.184.736-2.096 1.296-2.736.56-.656 1.24-1.112 2.04-1.368s1.704-.384 2.712-.384c.8 0 1.544.048 2.232.144.704.08 1.336.184 1.896.312.56.112 1.032.24 1.416.384v2.76c-.288-.064-.68-.128-1.176-.192-.48-.064-1.032-.112-1.656-.144-.624-.048-1.28-.072-1.968-.072-.672 0-1.248.08-1.728.24-.464.144-.84.424-1.128.84-.272.4-.48.984-.624 1.752-.128.768-.192 1.768-.192 3 0 1.184.056 2.16.168 2.928.129.768.329 1.368.601 1.8.272.416.64.712 1.104.888.48.16 1.08.24 1.8.24 1.216 0 2.2-.024 2.952-.072.768-.048 1.384-.104 1.848-.168v2.736c-.432.144-.928.272-1.488.384-.56.096-1.176.168-1.848.216-.672.064-1.424.096-2.256.096Z"/><mask id="b" width="193" height="23" x="228" y="18.464" fill="#000" maskUnits="userSpaceOnUse"><path fill="#fff" d="M228 18.464h193v23H228z"/><path d="M234.249 39.392 230 21.632h3.672l2.857 12.528 3.335-12.528h3.264l3.313 12.528 2.855-12.528h3.672l-4.247 17.76h-3.624l-3.601-12.528-3.623 12.528h-3.624ZM258.628 39.512c-.384 0-.824-.04-1.32-.12-.496-.064-.976-.224-1.44-.48-.448-.256-.824-.64-1.128-1.152-.288-.528-.432-1.248-.432-2.16v-9.912c0-.784.12-1.44.36-1.968s.56-.944.96-1.248c.4-.304.84-.52 1.32-.648.48-.128.952-.192 1.416-.192 1.2 0 2.256.016 3.168.048.928.032 1.76.072 2.496.12.736.032 1.408.08 2.016.144v2.976h-6.624c-.496 0-.88.12-1.152.36-.272.24-.408.608-.408 1.104v2.568l7.032.192v2.808l-7.032.192v2.448c0 .416.064.744.192.984.144.224.328.384.552.48.24.08.488.12.744.12h6.696v2.976c-.704.08-1.488.144-2.352.192-.848.048-1.712.088-2.592.12-.864.032-1.688.048-2.472.048ZM274.816 39.392v-17.76h6.984c1.76 0 3.04.408 3.84 1.224.816.8 1.224 1.944 1.224 3.432 0 .704-.104 1.328-.312 1.872-.192.528-.472.968-.84 1.32-.368.336-.808.568-1.32.696.384.096.752.248 1.104.456.368.208.696.488.984.84.304.352.536.784.696 1.296.176.496.264 1.072.264 1.728 0 1.2-.208 2.16-.624 2.88-.4.72-1 1.24-1.8 1.56-.784.304-1.752.456-2.904.456h-7.296Zm3.552-3.192h3.648c.416 0 .776-.08 1.08-.24.304-.16.536-.408.696-.744.176-.336.264-.784.264-1.344 0-.464-.088-.856-.264-1.176-.176-.32-.416-.568-.72-.744-.304-.176-.656-.264-1.056-.264h-3.648V36.2Zm0-7.248h3.456c.512 0 .912-.184 1.2-.552.304-.384.456-.88.456-1.488.016-.784-.144-1.328-.48-1.632-.336-.304-.744-.456-1.224-.456h-3.408v4.128ZM296.559 39.512c-.976 0-1.888-.08-2.736-.24-.848-.176-1.592-.472-2.232-.888-.624-.432-1.112-1.024-1.464-1.776-.336-.768-.504-1.744-.504-2.928V21.632h3.552v12.024c0 .656.128 1.176.384 1.56.272.384.656.664 1.152.84.512.176 1.128.264 1.848.264.704 0 1.304-.088 1.8-.264.512-.176.896-.456 1.152-.84.272-.384.408-.904.408-1.56V21.632h3.576V33.68c0 1.184-.176 2.16-.528 2.928-.352.752-.84 1.344-1.464 1.776-.624.416-1.36.712-2.208.888-.832.16-1.744.24-2.736.24ZM310.54 39.392v-5.376l-5.352-12.384h3.696l3.504 8.76 3.48-8.76h3.552l-5.328 12.384v5.376h-3.552ZM331.294 39.392V24.824h-4.872v-3.192h13.32v3.192h-4.896v14.568h-3.552ZM341.66 39.392v-17.76h7.344c.704 0 1.36.088 1.968.264.608.16 1.144.448 1.608.864.464.416.824.992 1.08 1.728.272.736.408 1.68.408 2.832 0 .816-.08 1.512-.24 2.088-.16.576-.376 1.048-.648 1.416-.256.368-.552.664-.888.888-.336.224-.68.408-1.032.552l3.312 7.128h-3.624l-2.856-6.576h-.672c-.24-.016-.488-.024-.744-.024h-.768c-.256 0-.488-.008-.696-.024v6.624h-3.552Zm3.552-9.432h3.168c.32 0 .608-.04.864-.12.256-.08.48-.216.672-.408.192-.208.336-.48.432-.816.112-.336.168-.768.168-1.296 0-.496-.056-.904-.168-1.224-.096-.336-.24-.592-.432-.768-.192-.192-.416-.32-.672-.384-.256-.08-.544-.12-.864-.12h-3.168v5.136ZM355.579 39.392l5.568-17.76h4.488l5.568 17.76h-3.696l-1.128-3.72h-6.048l-1.104 3.72h-3.648Zm5.592-6.912h4.368l-2.184-7.8-2.184 7.8ZM372.668 39.392V25.688c0-.784.119-1.44.359-1.968s.56-.944.96-1.248c.4-.304.84-.52 1.32-.648.48-.128.952-.192 1.416-.192.576 0 1.288.008 2.136.024.864 0 1.776.024 2.736.072.976.048 1.912.12 2.808.216l.001 2.976h-6.696c-.496 0-.872.136-1.128.408-.24.256-.36.6-.36 1.032v3.024l7.032.192v2.808l-7.032.192v6.816h-3.552ZM386.426 39.392l-.001-13.704c0-.784.12-1.44.36-1.968s.56-.944.96-1.248c.4-.304.84-.52 1.32-.648.48-.128.952-.192 1.416-.192.576 0 1.288.008 2.136.024.864 0 1.776.024 2.736.072.976.048 1.912.12 2.808.216v2.976h-6.696c-.496 0-.872.136-1.128.408-.24.256-.36.6-.36 1.032v3.024l7.032.192v2.808l-7.032.192.001 6.816h-3.552ZM400.418 39.392l-.001-17.76h3.552l.001 17.76h-3.552ZM413.027 39.536c-1.04 0-1.96-.12-2.76-.36-.784-.24-1.456-.68-2.016-1.32-.544-.64-.96-1.552-1.248-2.736-.272-1.2-.409-2.752-.409-4.656 0-1.84.144-3.344.432-4.512.304-1.184.736-2.096 1.296-2.736.56-.656 1.24-1.112 2.04-1.368s1.704-.384 2.712-.384c.8 0 1.544.048 2.232.144.704.08 1.336.184 1.896.312.56.112 1.032.24 1.416.384v2.76c-.288-.064-.68-.128-1.176-.192-.48-.064-1.032-.112-1.656-.144-.624-.048-1.28-.072-1.968-.072-.672 0-1.248.08-1.728.24-.464.144-.84.424-1.128.84-.272.4-.48.984-.624 1.752-.128.768-.192 1.768-.192 3 0 1.184.056 2.16.168 2.928.129.768.329 1.368.601 1.8.272.416.64.712 1.104.888.48.16 1.08.24 1.8.24 1.216 0 2.2-.024 2.952-.072.768-.048 1.384-.104 1.848-.168v2.736c-.432.144-.928.272-1.488.384-.56.096-1.176.168-1.848.216-.672.064-1.424.096-2.256.096Z"/></mask><path stroke="#fff" stroke-width="3" d="M234.249 39.392 230 21.632h3.672l2.857 12.528 3.335-12.528h3.264l3.313 12.528 2.855-12.528h3.672l-4.247 17.76h-3.624l-3.601-12.528-3.623 12.528h-3.624ZM258.628 39.512c-.384 0-.824-.04-1.32-.12-.496-.064-.976-.224-1.44-.48-.448-.256-.824-.64-1.128-1.152-.288-.528-.432-1.248-.432-2.16v-9.912c0-.784.12-1.44.36-1.968s.56-.944.96-1.248c.4-.304.84-.52 1.32-.648.48-.128.952-.192 1.416-.192 1.2 0 2.256.016 3.168.048.928.032 1.76.072 2.496.12.736.032 1.408.08 2.016.144v2.976h-6.624c-.496 0-.88.12-1.152.36-.272.24-.408.608-.408 1.104v2.568l7.032.192v2.808l-7.032.192v2.448c0 .416.064.744.192.984.144.224.328.384.552.48.24.08.488.12.744.12h6.696v2.976c-.704.08-1.488.144-2.352.192-.848.048-1.712.088-2.592.12-.864.032-1.688.048-2.472.048ZM274.816 39.392v-17.76h6.984c1.76 0 3.04.408 3.84 1.224.816.8 1.224 1.944 1.224 3.432 0 .704-.104 1.328-.312 1.872-.192.528-.472.968-.84 1.32-.368.336-.808.568-1.32.696.384.096.752.248 1.104.456.368.208.696.488.984.84.304.352.536.784.696 1.296.176.496.264 1.072.264 1.728 0 1.2-.208 2.16-.624 2.88-.4.72-1 1.24-1.8 1.56-.784.304-1.752.456-2.904.456h-7.296Zm3.552-3.192h3.648c.416 0 .776-.08 1.08-.24.304-.16.536-.408.696-.744.176-.336.264-.784.264-1.344 0-.464-.088-.856-.264-1.176-.176-.32-.416-.568-.72-.744-.304-.176-.656-.264-1.056-.264h-3.648V36.2Zm0-7.248h3.456c.512 0 .912-.184 1.2-.552.304-.384.456-.88.456-1.488.016-.784-.144-1.328-.48-1.632-.336-.304-.744-.456-1.224-.456h-3.408v4.128ZM296.559 39.512c-.976 0-1.888-.08-2.736-.24-.848-.176-1.592-.472-2.232-.888-.624-.432-1.112-1.024-1.464-1.776-.336-.768-.504-1.744-.504-2.928V21.632h3.552v12.024c0 .656.128 1.176.384 1.56.272.384.656.664 1.152.84.512.176 1.128.264 1.848.264.704 0 1.304-.088 1.8-.264.512-.176.896-.456 1.152-.84.272-.384.408-.904.408-1.56V21.632h3.576V33.68c0 1.184-.176 2.16-.528 2.928-.352.752-.84 1.344-1.464 1.776-.624.416-1.36.712-2.208.888-.832.16-1.744.24-2.736.24ZM310.54 39.392v-5.376l-5.352-12.384h3.696l3.504 8.76 3.48-8.76h3.552l-5.328 12.384v5.376h-3.552ZM331.294 39.392V24.824h-4.872v-3.192h13.32v3.192h-4.896v14.568h-3.552ZM341.66 39.392v-17.76h7.344c.704 0 1.36.088 1.968.264.608.16 1.144.448 1.608.864.464.416.824.992 1.08 1.728.272.736.408 1.68.408 2.832 0 .816-.08 1.512-.24 2.088-.16.576-.376 1.048-.648 1.416-.256.368-.552.664-.888.888-.336.224-.68.408-1.032.552l3.312 7.128h-3.624l-2.856-6.576h-.672c-.24-.016-.488-.024-.744-.024h-.768c-.256 0-.488-.008-.696-.024v6.624h-3.552Zm3.552-9.432h3.168c.32 0 .608-.04.864-.12.256-.08.48-.216.672-.408.192-.208.336-.48.432-.816.112-.336.168-.768.168-1.296 0-.496-.056-.904-.168-1.224-.096-.336-.24-.592-.432-.768-.192-.192-.416-.32-.672-.384-.256-.08-.544-.12-.864-.12h-3.168v5.136ZM355.579 39.392l5.568-17.76h4.488l5.568 17.76h-3.696l-1.128-3.72h-6.048l-1.104 3.72h-3.648Zm5.592-6.912h4.368l-2.184-7.8-2.184 7.8ZM372.668 39.392V25.688c0-.784.119-1.44.359-1.968s.56-.944.96-1.248c.4-.304.84-.52 1.32-.648.48-.128.952-.192 1.416-.192.576 0 1.288.008 2.136.024.864 0 1.776.024 2.736.072.976.048 1.912.12 2.808.216l.001 2.976h-6.696c-.496 0-.872.136-1.128.408-.24.256-.36.6-.36 1.032v3.024l7.032.192v2.808l-7.032.192v6.816h-3.552ZM386.426 39.392l-.001-13.704c0-.784.12-1.44.36-1.968s.56-.944.96-1.248c.4-.304.84-.52 1.32-.648.48-.128.952-.192 1.416-.192.576 0 1.288.008 2.136.024.864 0 1.776.024 2.736.072.976.048 1.912.12 2.808.216v2.976h-6.696c-.496 0-.872.136-1.128.408-.24.256-.36.6-.36 1.032v3.024l7.032.192v2.808l-7.032.192.001 6.816h-3.552ZM400.418 39.392l-.001-17.76h3.552l.001 17.76h-3.552ZM413.027 39.536c-1.04 0-1.96-.12-2.76-.36-.784-.24-1.456-.68-2.016-1.32-.544-.64-.96-1.552-1.248-2.736-.272-1.2-.409-2.752-.409-4.656 0-1.84.144-3.344.432-4.512.304-1.184.736-2.096 1.296-2.736.56-.656 1.24-1.112 2.04-1.368s1.704-.384 2.712-.384c.8 0 1.544.048 2.232.144.704.08 1.336.184 1.896.312.56.112 1.032.24 1.416.384v2.76c-.288-.064-.68-.128-1.176-.192-.48-.064-1.032-.112-1.656-.144-.624-.048-1.28-.072-1.968-.072-.672 0-1.248.08-1.728.24-.464.144-.84.424-1.128.84-.272.4-.48.984-.624 1.752-.128.768-.192 1.768-.192 3 0 1.184.056 2.16.168 2.928.129.768.329 1.368.601 1.8.272.416.64.712 1.104.888.48.16 1.08.24 1.8.24 1.216 0 2.2-.024 2.952-.072.768-.048 1.384-.104 1.848-.168v2.736c-.432.144-.928.272-1.488.384-.56.096-1.176.168-1.848.216-.672.064-1.424.096-2.256.096Z" mask="url(#b)"/><path fill="#fff" d="m463.275 39-4.249-17.76h3.672l2.856 12.528 3.336-12.528h3.264l3.312 12.528 2.856-12.528h3.672L477.747 39h-3.624l-3.601-12.528L466.899 39h-3.624Zm24.379.12c-.384 0-.824-.04-1.32-.12-.496-.064-.976-.224-1.44-.48-.448-.256-.824-.64-1.128-1.152-.288-.528-.432-1.248-.432-2.16v-9.912c0-.784.12-1.44.36-1.968s.56-.944.96-1.248c.4-.304.84-.52 1.32-.648.48-.128.952-.192 1.416-.192 1.2 0 2.256.016 3.168.048.928.032 1.76.072 2.496.12.736.032 1.408.08 2.016.144v2.976h-6.624c-.496 0-.88.12-1.152.36-.272.24-.408.608-.408 1.104v2.568l7.032.192v2.808l-7.032.192V34.2c0 .416.064.744.192.984.144.224.328.384.552.48.24.08.488.12.744.12h6.696v2.976c-.704.08-1.488.144-2.352.192-.848.048-1.712.088-2.592.12-.864.032-1.688.048-2.472.048Zm16.188-.12V21.24h6.984c1.76 0 3.04.408 3.84 1.224.816.8 1.224 1.944 1.224 3.432 0 .704-.104 1.328-.312 1.872-.192.528-.472.968-.84 1.32-.368.336-.808.568-1.32.696.384.096.752.248 1.104.456.368.208.696.488.984.84.304.352.536.784.696 1.296.176.496.264 1.072.264 1.728 0 1.2-.208 2.16-.624 2.88-.4.72-1 1.24-1.8 1.56-.784.304-1.752.456-2.904.456h-7.296Zm3.552-3.192h3.648c.416 0 .776-.08 1.08-.24.304-.16.536-.408.696-.744.176-.336.264-.784.264-1.344 0-.464-.088-.856-.264-1.176-.176-.32-.416-.568-.72-.744-.304-.176-.656-.264-1.056-.264h-3.648v4.512Zm0-7.248h3.456c.512 0 .912-.184 1.2-.552.304-.384.456-.88.456-1.488.016-.784-.144-1.328-.48-1.632-.336-.304-.744-.456-1.224-.456h-3.408v4.128Zm18.191 10.56c-.976 0-1.888-.08-2.736-.24-.848-.176-1.592-.472-2.232-.888-.624-.432-1.112-1.024-1.464-1.776-.336-.768-.504-1.744-.504-2.928V21.24h3.552v12.024c0 .656.128 1.176.384 1.56.272.384.656.664 1.152.84.512.176 1.128.264 1.848.264.704 0 1.304-.088 1.8-.264.512-.176.896-.456 1.152-.84.272-.384.408-.904.408-1.56V21.24h3.576v12.048c0 1.184-.176 2.16-.528 2.928-.352.752-.84 1.344-1.464 1.776-.624.416-1.36.712-2.208.888-.832.16-1.744.24-2.736.24Zm13.981-.12v-5.376l-5.352-12.384h3.696l3.504 8.76 3.48-8.76h3.552l-5.328 12.384V39h-3.552Zm20.754 0V24.432h-4.872V21.24h13.32v3.192h-4.896V39h-3.552Zm10.366 0V21.24h7.344c.704 0 1.36.088 1.968.264.608.16 1.144.448 1.608.864.464.416.824.992 1.08 1.728.272.736.408 1.68.408 2.832 0 .816-.08 1.512-.24 2.088-.16.576-.376 1.048-.648 1.416-.256.368-.552.664-.888.888-.336.224-.68.408-1.032.552L583.598 39h-3.624l-2.856-6.576h-.672c-.24-.016-.488-.024-.744-.024h-.768c-.256 0-.488-.008-.696-.024V39h-3.552Zm3.552-9.432h3.168c.32 0 .608-.04.864-.12.256-.08.48-.216.672-.408.192-.208.336-.48.432-.816.112-.336.168-.768.168-1.296 0-.496-.056-.904-.168-1.224-.096-.336-.24-.592-.432-.768-.192-.192-.416-.32-.672-.384-.256-.08-.544-.12-.864-.12h-3.168v5.136ZM584.605 39l5.567-17.76h4.488L600.229 39h-3.696l-1.128-3.72h-6.048L588.253 39h-3.648Zm5.592-6.912h4.368l-2.185-7.8-2.183 7.8ZM601.694 39l-.001-13.704c0-.784.12-1.44.36-1.968s.56-.944.96-1.248c.4-.304.84-.52 1.32-.648.48-.128.952-.192 1.416-.192.576 0 1.288.008 2.136.024.864 0 1.776.024 2.736.072.976.048 1.912.12 2.808.216v2.976h-6.696c-.496 0-.872.136-1.128.408-.24.256-.36.6-.36 1.032v3.024l7.032.192.001 2.808-7.032.192V39h-3.552Zm13.757 0V25.296c0-.784.12-1.44.36-1.968s.56-.944.96-1.248c.4-.304.84-.52 1.32-.648.48-.128.952-.192 1.416-.192.576 0 1.288.008 2.136.024.864 0 1.776.024 2.736.072.976.048 1.912.12 2.808.216v2.976h-6.696c-.496 0-.872.136-1.128.408-.24.256-.36.6-.36 1.032v3.024l7.032.192v2.808l-7.032.192V39h-3.552Zm13.993 0-.001-17.76h3.552l.001 17.76h-3.552Zm12.608.144c-1.04 0-1.96-.12-2.76-.36-.784-.24-1.456-.68-2.016-1.32-.544-.64-.96-1.552-1.248-2.736-.272-1.2-.408-2.752-.408-4.656 0-1.84.144-3.344.432-4.512.304-1.184.736-2.096 1.296-2.736.56-.656 1.24-1.112 2.04-1.368s1.704-.384 2.712-.384c.8 0 1.544.048 2.232.144.704.08 1.336.184 1.896.312.56.112 1.032.24 1.416.384v2.76c-.288-.064-.68-.128-1.176-.192-.48-.064-1.032-.112-1.656-.144-.624-.048-1.28-.072-1.968-.072-.672 0-1.248.08-1.728.24-.464.144-.84.424-1.128.84-.272.4-.48.984-.624 1.752-.128.768-.192 1.768-.192 3 0 1.184.056 2.16.168 2.928.128.768.328 1.368.6 1.8.272.416.64.712 1.104.888.48.16 1.08.24 1.8.24 1.216 0 2.2-.024 2.952-.072.768-.048 1.384-.104 1.848-.168v2.736c-.432.144-.928.272-1.488.384-.56.096-1.176.168-1.848.216-.672.064-1.424.096-2.256.096Z"/><mask id="c" width="193" height="23" x="686.618" y="18.464" fill="#000" maskUnits="userSpaceOnUse"><path fill="#fff" d="M686.618 18.464h193v23h-193z"/><path d="m692.867 39.392-4.249-17.76h3.672l2.856 12.528 3.336-12.528h3.264l3.312 12.528 2.856-12.528h3.672l-4.247 17.76h-3.624l-3.601-12.528-3.623 12.528h-3.624ZM717.246 39.512c-.384 0-.824-.04-1.32-.12-.496-.064-.976-.224-1.44-.48-.448-.256-.824-.64-1.128-1.152-.288-.528-.432-1.248-.432-2.16v-9.912c0-.784.12-1.44.36-1.968s.56-.944.96-1.248c.4-.304.84-.52 1.32-.648.48-.128.952-.192 1.416-.192 1.2 0 2.256.016 3.168.048.928.032 1.76.072 2.496.12.736.032 1.408.08 2.016.144v2.976h-6.624c-.496 0-.88.12-1.152.36-.272.24-.408.608-.408 1.104v2.568l7.032.192v2.808l-7.032.192v2.448c0 .416.064.744.192.984.144.224.328.384.552.48.24.08.488.12.744.12h6.696v2.976c-.704.08-1.488.144-2.352.192-.848.048-1.712.088-2.592.12-.864.032-1.688.048-2.472.048ZM733.434 39.392v-17.76h6.984c1.76 0 3.04.408 3.84 1.224.816.8 1.224 1.944 1.224 3.432 0 .704-.104 1.328-.312 1.872-.192.528-.472.968-.84 1.32-.368.336-.808.568-1.32.696.384.096.752.248 1.104.456.368.208.696.488.984.84.304.352.536.784.696 1.296.176.496.264 1.072.264 1.728 0 1.2-.208 2.16-.624 2.88-.4.72-1 1.24-1.8 1.56-.784.304-1.752.456-2.904.456h-7.296Zm3.552-3.192h3.648c.416 0 .776-.08 1.08-.24.304-.16.536-.408.696-.744.176-.336.264-.784.264-1.344 0-.464-.088-.856-.264-1.176-.176-.32-.416-.568-.72-.744-.304-.176-.656-.264-1.056-.264h-3.648V36.2Zm0-7.248h3.456c.512 0 .912-.184 1.2-.552.304-.384.456-.88.456-1.488.016-.784-.144-1.328-.48-1.632-.336-.304-.744-.456-1.224-.456h-3.408v4.128ZM755.177 39.512c-.976 0-1.888-.08-2.736-.24-.848-.176-1.592-.472-2.232-.888-.624-.432-1.112-1.024-1.464-1.776-.336-.768-.504-1.744-.504-2.928V21.632h3.552v12.024c0 .656.128 1.176.384 1.56.272.384.656.664 1.152.84.512.176 1.128.264 1.848.264.704 0 1.304-.088 1.8-.264.512-.176.896-.456 1.152-.84.272-.384.408-.904.408-1.56V21.632h3.576V33.68c0 1.184-.176 2.16-.528 2.928-.352.752-.84 1.344-1.464 1.776-.624.416-1.36.712-2.208.888-.832.16-1.744.24-2.736.24ZM769.158 39.392v-5.376l-5.352-12.384h3.696l3.504 8.76 3.48-8.76h3.552l-5.328 12.384v5.376h-3.552ZM789.912 39.392V24.824h-4.872v-3.192h13.32v3.192h-4.896v14.568h-3.552ZM800.278 39.392v-17.76h7.344c.704 0 1.36.088 1.968.264.608.16 1.144.448 1.608.864.464.416.824.992 1.08 1.728.272.736.408 1.68.408 2.832 0 .816-.08 1.512-.24 2.088-.16.576-.376 1.048-.648 1.416-.256.368-.552.664-.888.888-.336.224-.68.408-1.032.552l3.312 7.128h-3.624l-2.856-6.576h-.672c-.24-.016-.488-.024-.744-.024h-.768c-.256 0-.488-.008-.696-.024v6.624h-3.552Zm3.552-9.432h3.168c.32 0 .608-.04.864-.12.256-.08.48-.216.672-.408.192-.208.336-.48.432-.816.112-.336.168-.768.168-1.296 0-.496-.056-.904-.168-1.224-.096-.336-.24-.592-.432-.768-.192-.192-.416-.32-.672-.384-.256-.08-.544-.12-.864-.12h-3.168v5.136ZM814.197 39.392l5.567-17.76h4.488l5.569 17.76h-3.696l-1.128-3.72h-6.048l-1.104 3.72h-3.648Zm5.592-6.912h4.368l-2.185-7.8-2.183 7.8ZM831.286 39.392l-.001-13.704c0-.784.12-1.44.36-1.968s.56-.944.96-1.248c.4-.304.84-.52 1.32-.648.48-.128.952-.192 1.416-.192.576 0 1.288.008 2.136.024.864 0 1.776.024 2.736.072.976.048 1.912.12 2.808.216v2.976h-6.696c-.496 0-.872.136-1.128.408-.24.256-.36.6-.36 1.032v3.024l7.032.192.001 2.808-7.032.192v6.816h-3.552ZM845.043 39.392V25.688c0-.784.12-1.44.36-1.968s.56-.944.96-1.248c.4-.304.84-.52 1.32-.648.48-.128.952-.192 1.416-.192.576 0 1.288.008 2.136.024.864 0 1.776.024 2.736.072.976.048 1.912.12 2.808.216v2.976h-6.696c-.496 0-.872.136-1.128.408-.24.256-.36.6-.36 1.032v3.024l7.032.192v2.808l-7.032.192v6.816h-3.552ZM859.036 39.392l-.001-17.76h3.552l.001 17.76h-3.552ZM871.644 39.536c-1.04 0-1.96-.12-2.76-.36-.784-.24-1.456-.68-2.016-1.32-.544-.64-.96-1.552-1.248-2.736-.272-1.2-.408-2.752-.408-4.656 0-1.84.144-3.344.432-4.512.304-1.184.736-2.096 1.296-2.736.56-.656 1.24-1.112 2.04-1.368s1.704-.384 2.712-.384c.8 0 1.544.048 2.232.144.704.08 1.336.184 1.896.312.56.112 1.032.24 1.416.384v2.76c-.288-.064-.68-.128-1.176-.192-.48-.064-1.032-.112-1.656-.144-.624-.048-1.28-.072-1.968-.072-.672 0-1.248.08-1.728.24-.464.144-.84.424-1.128.84-.272.4-.48.984-.624 1.752-.128.768-.192 1.768-.192 3 0 1.184.056 2.16.168 2.928.128.768.328 1.368.6 1.8.272.416.64.712 1.104.888.48.16 1.08.24 1.8.24 1.216 0 2.2-.024 2.952-.072.768-.048 1.384-.104 1.848-.168v2.736c-.432.144-.928.272-1.488.384-.56.096-1.176.168-1.848.216-.672.064-1.424.096-2.256.096Z"/></mask><path stroke="#fff" stroke-width="3" d="m692.867 39.392-4.249-17.76h3.672l2.856 12.528 3.336-12.528h3.264l3.312 12.528 2.856-12.528h3.672l-4.247 17.76h-3.624l-3.601-12.528-3.623 12.528h-3.624ZM717.246 39.512c-.384 0-.824-.04-1.32-.12-.496-.064-.976-.224-1.44-.48-.448-.256-.824-.64-1.128-1.152-.288-.528-.432-1.248-.432-2.16v-9.912c0-.784.12-1.44.36-1.968s.56-.944.96-1.248c.4-.304.84-.52 1.32-.648.48-.128.952-.192 1.416-.192 1.2 0 2.256.016 3.168.048.928.032 1.76.072 2.496.12.736.032 1.408.08 2.016.144v2.976h-6.624c-.496 0-.88.12-1.152.36-.272.24-.408.608-.408 1.104v2.568l7.032.192v2.808l-7.032.192v2.448c0 .416.064.744.192.984.144.224.328.384.552.48.24.08.488.12.744.12h6.696v2.976c-.704.08-1.488.144-2.352.192-.848.048-1.712.088-2.592.12-.864.032-1.688.048-2.472.048ZM733.434 39.392v-17.76h6.984c1.76 0 3.04.408 3.84 1.224.816.8 1.224 1.944 1.224 3.432 0 .704-.104 1.328-.312 1.872-.192.528-.472.968-.84 1.32-.368.336-.808.568-1.32.696.384.096.752.248 1.104.456.368.208.696.488.984.84.304.352.536.784.696 1.296.176.496.264 1.072.264 1.728 0 1.2-.208 2.16-.624 2.88-.4.72-1 1.24-1.8 1.56-.784.304-1.752.456-2.904.456h-7.296Zm3.552-3.192h3.648c.416 0 .776-.08 1.08-.24.304-.16.536-.408.696-.744.176-.336.264-.784.264-1.344 0-.464-.088-.856-.264-1.176-.176-.32-.416-.568-.72-.744-.304-.176-.656-.264-1.056-.264h-3.648V36.2Zm0-7.248h3.456c.512 0 .912-.184 1.2-.552.304-.384.456-.88.456-1.488.016-.784-.144-1.328-.48-1.632-.336-.304-.744-.456-1.224-.456h-3.408v4.128ZM755.177 39.512c-.976 0-1.888-.08-2.736-.24-.848-.176-1.592-.472-2.232-.888-.624-.432-1.112-1.024-1.464-1.776-.336-.768-.504-1.744-.504-2.928V21.632h3.552v12.024c0 .656.128 1.176.384 1.56.272.384.656.664 1.152.84.512.176 1.128.264 1.848.264.704 0 1.304-.088 1.8-.264.512-.176.896-.456 1.152-.84.272-.384.408-.904.408-1.56V21.632h3.576V33.68c0 1.184-.176 2.16-.528 2.928-.352.752-.84 1.344-1.464 1.776-.624.416-1.36.712-2.208.888-.832.16-1.744.24-2.736.24ZM769.158 39.392v-5.376l-5.352-12.384h3.696l3.504 8.76 3.48-8.76h3.552l-5.328 12.384v5.376h-3.552ZM789.912 39.392V24.824h-4.872v-3.192h13.32v3.192h-4.896v14.568h-3.552ZM800.278 39.392v-17.76h7.344c.704 0 1.36.088 1.968.264.608.16 1.144.448 1.608.864.464.416.824.992 1.08 1.728.272.736.408 1.68.408 2.832 0 .816-.08 1.512-.24 2.088-.16.576-.376 1.048-.648 1.416-.256.368-.552.664-.888.888-.336.224-.68.408-1.032.552l3.312 7.128h-3.624l-2.856-6.576h-.672c-.24-.016-.488-.024-.744-.024h-.768c-.256 0-.488-.008-.696-.024v6.624h-3.552Zm3.552-9.432h3.168c.32 0 .608-.04.864-.12.256-.08.48-.216.672-.408.192-.208.336-.48.432-.816.112-.336.168-.768.168-1.296 0-.496-.056-.904-.168-1.224-.096-.336-.24-.592-.432-.768-.192-.192-.416-.32-.672-.384-.256-.08-.544-.12-.864-.12h-3.168v5.136ZM814.197 39.392l5.567-17.76h4.488l5.569 17.76h-3.696l-1.128-3.72h-6.048l-1.104 3.72h-3.648Zm5.592-6.912h4.368l-2.185-7.8-2.183 7.8ZM831.286 39.392l-.001-13.704c0-.784.12-1.44.36-1.968s.56-.944.96-1.248c.4-.304.84-.52 1.32-.648.48-.128.952-.192 1.416-.192.576 0 1.288.008 2.136.024.864 0 1.776.024 2.736.072.976.048 1.912.12 2.808.216v2.976h-6.696c-.496 0-.872.136-1.128.408-.24.256-.36.6-.36 1.032v3.024l7.032.192.001 2.808-7.032.192v6.816h-3.552ZM845.043 39.392V25.688c0-.784.12-1.44.36-1.968s.56-.944.96-1.248c.4-.304.84-.52 1.32-.648.48-.128.952-.192 1.416-.192.576 0 1.288.008 2.136.024.864 0 1.776.024 2.736.072.976.048 1.912.12 2.808.216v2.976h-6.696c-.496 0-.872.136-1.128.408-.24.256-.36.6-.36 1.032v3.024l7.032.192v2.808l-7.032.192v6.816h-3.552ZM859.036 39.392l-.001-17.76h3.552l.001 17.76h-3.552ZM871.644 39.536c-1.04 0-1.96-.12-2.76-.36-.784-.24-1.456-.68-2.016-1.32-.544-.64-.96-1.552-1.248-2.736-.272-1.2-.408-2.752-.408-4.656 0-1.84.144-3.344.432-4.512.304-1.184.736-2.096 1.296-2.736.56-.656 1.24-1.112 2.04-1.368s1.704-.384 2.712-.384c.8 0 1.544.048 2.232.144.704.08 1.336.184 1.896.312.56.112 1.032.24 1.416.384v2.76c-.288-.064-.68-.128-1.176-.192-.48-.064-1.032-.112-1.656-.144-.624-.048-1.28-.072-1.968-.072-.672 0-1.248.08-1.728.24-.464.144-.84.424-1.128.84-.272.4-.48.984-.624 1.752-.128.768-.192 1.768-.192 3 0 1.184.056 2.16.168 2.928.128.768.328 1.368.6 1.8.272.416.64.712 1.104.888.48.16 1.08.24 1.8.24 1.216 0 2.2-.024 2.952-.072.768-.048 1.384-.104 1.848-.168v2.736c-.432.144-.928.272-1.488.384-.56.096-1.176.168-1.848.216-.672.064-1.424.096-2.256.096Z" mask="url(#c)"/><path fill="#fff" d="m921.892 39-4.248-17.76h3.672l2.856 12.528 3.336-12.528h3.264l3.312 12.528 2.856-12.528h3.672L936.364 39h-3.624l-3.6-12.528L925.516 39h-3.624Zm24.38.12c-.384 0-.824-.04-1.32-.12-.496-.064-.976-.224-1.44-.48-.448-.256-.824-.64-1.128-1.152-.288-.528-.432-1.248-.432-2.16v-9.912c0-.784.12-1.44.36-1.968s.56-.944.96-1.248c.4-.304.84-.52 1.32-.648.48-.128.952-.192 1.416-.192 1.2 0 2.256.016 3.168.048.928.032 1.76.072 2.496.12.736.032 1.408.08 2.016.144v2.976h-6.624c-.496 0-.88.12-1.152.36-.272.24-.408.608-.408 1.104v2.568l7.032.192v2.808l-7.032.192V34.2c0 .416.064.744.192.984.144.224.328.384.552.48.24.08.488.12.744.12h6.696v2.976c-.704.08-1.488.144-2.352.192-.848.048-1.712.088-2.592.12-.864.032-1.688.048-2.472.048ZM962.46 39V21.24h6.984c1.76 0 3.04.408 3.84 1.224.816.8 1.224 1.944 1.224 3.432 0 .704-.104 1.328-.312 1.872-.192.528-.472.968-.84 1.32-.368.336-.808.568-1.32.696.384.096.752.248 1.104.456.368.208.696.488.984.84.304.352.536.784.696 1.296.176.496.264 1.072.264 1.728 0 1.2-.208 2.16-.624 2.88-.4.72-1 1.24-1.8 1.56-.784.304-1.752.456-2.904.456h-7.296Zm3.552-3.192h3.648c.416 0 .776-.08 1.08-.24.304-.16.536-.408.696-.744.176-.336.264-.784.264-1.344 0-.464-.088-.856-.264-1.176-.176-.32-.416-.568-.72-.744-.304-.176-.656-.264-1.056-.264h-3.648v4.512Zm0-7.248h3.456c.512 0 .912-.184 1.2-.552.304-.384.456-.88.456-1.488.016-.784-.144-1.328-.48-1.632-.336-.304-.744-.456-1.224-.456h-3.408v4.128Zm18.191 10.56c-.976 0-1.888-.08-2.736-.24-.848-.176-1.592-.472-2.232-.888-.624-.432-1.112-1.024-1.464-1.776-.336-.768-.504-1.744-.504-2.928l-.001-12.048h3.552l.001 12.024c0 .656.128 1.176.384 1.56.272.384.656.664 1.152.84.512.176 1.128.264 1.848.264.704 0 1.304-.088 1.8-.264.512-.176.896-.456 1.152-.84.272-.384.408-.904.408-1.56l-.001-12.024h3.576l.001 12.048c0 1.184-.176 2.16-.528 2.928-.352.752-.84 1.344-1.464 1.776-.624.416-1.36.712-2.208.888-.832.16-1.744.24-2.736.24Zm13.981-.12v-5.376l-5.352-12.384h3.696l3.502 8.76 3.48-8.76h3.55l-5.32 12.384V39h-3.556Zm20.756 0V24.432h-4.87V21.24h13.32v3.192h-4.9V39h-3.55Zm10.36 0V21.24h7.35c.7 0 1.36.088 1.97.264.6.16 1.14.448 1.6.864.47.416.83.992 1.08 1.728.28.736.41 1.68.41 2.832 0 .816-.08 1.512-.24 2.088-.16.576-.37 1.048-.65 1.416-.25.368-.55.664-.88.888-.34.224-.68.408-1.04.552l3.32 7.128h-3.63l-2.85-6.576h-.68a10.98 10.98 0 0 0-.74-.024h-.77c-.25 0-.49-.008-.69-.024V39h-3.56Zm3.56-9.432h3.16c.32 0 .61-.04.87-.12.25-.08.48-.216.67-.408.19-.208.34-.48.43-.816.11-.336.17-.768.17-1.296 0-.496-.06-.904-.17-1.224-.09-.336-.24-.592-.43-.768-.19-.192-.42-.32-.67-.384-.26-.08-.55-.12-.87-.12h-3.16v5.136ZM1043.22 39l5.57-17.76h4.49l5.57 17.76h-3.7l-1.13-3.72h-6.05l-1.1 3.72h-3.65Zm5.59-6.912h4.37l-2.18-7.8-2.19 7.8Zm11.5 6.912V25.296c0-.784.12-1.44.36-1.968s.56-.944.96-1.248c.4-.304.84-.52 1.32-.648.48-.128.95-.192 1.42-.192.57 0 1.29.008 2.13.024.87 0 1.78.024 2.74.072.98.048 1.91.12 2.81.216v2.976h-6.7c-.49 0-.87.136-1.13.408-.24.256-.36.6-.36 1.032v3.024l7.04.192v2.808l-7.04.192V39h-3.55Zm13.76 0V25.296c0-.784.12-1.44.36-1.968s.56-.944.96-1.248c.4-.304.84-.52 1.32-.648.48-.128.95-.192 1.41-.192.58 0 1.29.008 2.14.024.86 0 1.78.024 2.74.072.97.048 1.91.12 2.81.216v2.976h-6.7c-.5 0-.87.136-1.13.408-.24.256-.36.6-.36 1.032v3.024l7.03.192v2.808l-7.03.192V39h-3.55Zm13.99 0V21.24h3.55V39h-3.55Zm12.61.144c-1.04 0-1.96-.12-2.76-.36-.78-.24-1.46-.68-2.02-1.32-.54-.64-.96-1.552-1.24-2.736-.28-1.2-.41-2.752-.41-4.656 0-1.84.14-3.344.43-4.512.3-1.184.74-2.096 1.3-2.736.56-.656 1.24-1.112 2.04-1.368s1.7-.384 2.71-.384c.8 0 1.54.048 2.23.144.7.08 1.34.184 1.9.312.56.112 1.03.24 1.41.384v2.76c-.29-.064-.68-.128-1.17-.192-.48-.064-1.04-.112-1.66-.144-.62-.048-1.28-.072-1.97-.072-.67 0-1.25.08-1.73.24-.46.144-.84.424-1.12.84-.28.4-.48.984-.63 1.752-.13.768-.19 1.768-.19 3 0 1.184.06 2.16.17 2.928.13.768.33 1.368.6 1.8.27.416.64.712 1.1.888.48.16 1.08.24 1.8.24 1.22 0 2.2-.024 2.95-.072.77-.048 1.39-.104 1.85-.168v2.736c-.43.144-.93.272-1.49.384-.56.096-1.17.168-1.84.216-.68.064-1.43.096-2.26.096Z"/><mask id="d" width="193" height="23" x="1145.24" y="18.464" fill="#000" maskUnits="userSpaceOnUse"><path fill="#fff" d="M1145.24 18.464h193v23h-193z"/><path d="m1151.48 39.392-4.24-17.76h3.67l2.85 12.528 3.34-12.528h3.26l3.32 12.528 2.85-12.528h3.67l-4.24 17.76h-3.63l-3.6-12.528-3.62 12.528h-3.63ZM1175.86 39.512c-.38 0-.82-.04-1.32-.12-.49-.064-.97-.224-1.44-.48-.44-.256-.82-.64-1.12-1.152-.29-.528-.44-1.248-.44-2.16v-9.912c0-.784.12-1.44.36-1.968s.56-.944.96-1.248c.4-.304.84-.52 1.32-.648.48-.128.96-.192 1.42-.192 1.2 0 2.26.016 3.17.048.93.032 1.76.072 2.49.12.74.032 1.41.08 2.02.144v2.976h-6.62c-.5 0-.88.12-1.16.36-.27.24-.4.608-.4 1.104v2.568l7.03.192v2.808l-7.03.192v2.448c0 .416.06.744.19.984.14.224.33.384.55.48.24.08.49.12.74.12h6.7v2.976c-.7.08-1.49.144-2.35.192-.85.048-1.71.088-2.59.12-.87.032-1.69.048-2.48.048ZM1192.05 39.392v-17.76h6.99c1.76 0 3.04.408 3.84 1.224.81.8 1.22 1.944 1.22 3.432 0 .704-.1 1.328-.31 1.872-.19.528-.47.968-.84 1.32-.37.336-.81.568-1.32.696.38.096.75.248 1.1.456.37.208.7.488.99.84.3.352.53.784.69 1.296.18.496.27 1.072.27 1.728 0 1.2-.21 2.16-.63 2.88-.4.72-1 1.24-1.8 1.56-.78.304-1.75.456-2.9.456h-7.3Zm3.55-3.192h3.65c.42 0 .78-.08 1.08-.24.31-.16.54-.408.7-.744.17-.336.26-.784.26-1.344 0-.464-.09-.856-.26-1.176-.18-.32-.42-.568-.72-.744-.31-.176-.66-.264-1.06-.264h-3.65V36.2Zm0-7.248h3.46c.51 0 .91-.184 1.2-.552.3-.384.46-.88.46-1.488.01-.784-.15-1.328-.48-1.632-.34-.304-.75-.456-1.23-.456h-3.41v4.128ZM1213.79 39.512c-.97 0-1.88-.08-2.73-.24-.85-.176-1.59-.472-2.23-.888-.63-.432-1.12-1.024-1.47-1.776-.33-.768-.5-1.744-.5-2.928V21.632h3.55v12.024c0 .656.13 1.176.38 1.56.28.384.66.664 1.16.84.51.176 1.12.264 1.84.264.71 0 1.31-.088 1.8-.264.52-.176.9-.456 1.16-.84.27-.384.4-.904.4-1.56V21.632h3.58V33.68c0 1.184-.18 2.16-.53 2.928-.35.752-.84 1.344-1.46 1.776-.63.416-1.36.712-2.21.888-.83.16-1.74.24-2.74.24ZM1227.78 39.392v-5.376l-5.36-12.384h3.7l3.5 8.76 3.48-8.76h3.56l-5.33 12.384v5.376h-3.55ZM1248.53 39.392V24.824h-4.87v-3.192h13.32v3.192h-4.9v14.568h-3.55ZM1258.9 39.392v-17.76h7.34c.7 0 1.36.088 1.97.264.61.16 1.14.448 1.61.864.46.416.82.992 1.08 1.728.27.736.4 1.68.4 2.832 0 .816-.08 1.512-.24 2.088-.16.576-.37 1.048-.64 1.416-.26.368-.56.664-.89.888-.34.224-.68.408-1.03.552l3.31 7.128h-3.63l-2.85-6.576h-.67c-.24-.016-.49-.024-.75-.024h-.77c-.25 0-.48-.008-.69-.024v6.624h-3.55Zm3.55-9.432h3.17c.32 0 .6-.04.86-.12.26-.08.48-.216.67-.408.19-.208.34-.48.43-.816.12-.336.17-.768.17-1.296 0-.496-.05-.904-.17-1.224-.09-.336-.24-.592-.43-.768-.19-.192-.41-.32-.67-.384-.26-.08-.54-.12-.86-.12h-3.17v5.136ZM1272.81 39.392l5.57-17.76h4.49l5.57 17.76h-3.7l-1.13-3.72h-6.04l-1.11 3.72h-3.65Zm5.6-6.912h4.36l-2.18-7.8-2.18 7.8ZM1289.9 39.392V25.688c0-.784.12-1.44.36-1.968s.56-.944.96-1.248c.4-.304.84-.52 1.32-.648.48-.128.96-.192 1.42-.192.58 0 1.29.008 2.14.024.86 0 1.77.024 2.73.072.98.048 1.91.12 2.81.216v2.976h-6.7c-.49 0-.87.136-1.12.408-.24.256-.36.6-.36 1.032v3.024l7.03.192v2.808l-7.03.192v6.816h-3.56ZM1303.66 39.392V25.688c0-.784.12-1.44.36-1.968s.56-.944.96-1.248c.4-.304.84-.52 1.32-.648.48-.128.95-.192 1.42-.192.57 0 1.29.008 2.13.024.87 0 1.78.024 2.74.072.98.048 1.91.12 2.81.216v2.976h-6.7c-.49 0-.87.136-1.13.408-.24.256-.36.6-.36 1.032v3.024l7.04.192v2.808l-7.04.192v6.816h-3.55ZM1317.65 39.392v-17.76h3.56v17.76h-3.56ZM1330.26 39.536c-1.04 0-1.96-.12-2.76-.36-.78-.24-1.45-.68-2.01-1.32-.55-.64-.96-1.552-1.25-2.736-.27-1.2-.41-2.752-.41-4.656 0-1.84.14-3.344.43-4.512.31-1.184.74-2.096 1.3-2.736.56-.656 1.24-1.112 2.04-1.368s1.7-.384 2.71-.384c.8 0 1.54.048 2.23.144.71.08 1.34.184 1.9.312.56.112 1.03.24 1.41.384v2.76c-.28-.064-.68-.128-1.17-.192-.48-.064-1.03-.112-1.66-.144-.62-.048-1.28-.072-1.97-.072-.67 0-1.24.08-1.72.24-.47.144-.84.424-1.13.84-.27.4-.48.984-.63 1.752-.12.768-.19 1.768-.19 3 0 1.184.06 2.16.17 2.928.13.768.33 1.368.6 1.8.27.416.64.712 1.1.888.48.16 1.08.24 1.8.24 1.22 0 2.2-.024 2.96-.072.76-.048 1.38-.104 1.84-.168v2.736c-.43.144-.92.272-1.48.384-.56.096-1.18.168-1.85.216-.67.064-1.43.096-2.26.096Z"/></mask><path stroke="#fff" stroke-width="3" d="m1151.48 39.392-4.24-17.76h3.67l2.85 12.528 3.34-12.528h3.26l3.32 12.528 2.85-12.528h3.67l-4.24 17.76h-3.63l-3.6-12.528-3.62 12.528h-3.63ZM1175.86 39.512c-.38 0-.82-.04-1.32-.12-.49-.064-.97-.224-1.44-.48-.44-.256-.82-.64-1.12-1.152-.29-.528-.44-1.248-.44-2.16v-9.912c0-.784.12-1.44.36-1.968s.56-.944.96-1.248c.4-.304.84-.52 1.32-.648.48-.128.96-.192 1.42-.192 1.2 0 2.26.016 3.17.048.93.032 1.76.072 2.49.12.74.032 1.41.08 2.02.144v2.976h-6.62c-.5 0-.88.12-1.16.36-.27.24-.4.608-.4 1.104v2.568l7.03.192v2.808l-7.03.192v2.448c0 .416.06.744.19.984.14.224.33.384.55.48.24.08.49.12.74.12h6.7v2.976c-.7.08-1.49.144-2.35.192-.85.048-1.71.088-2.59.12-.87.032-1.69.048-2.48.048ZM1192.05 39.392v-17.76h6.99c1.76 0 3.04.408 3.84 1.224.81.8 1.22 1.944 1.22 3.432 0 .704-.1 1.328-.31 1.872-.19.528-.47.968-.84 1.32-.37.336-.81.568-1.32.696.38.096.75.248 1.1.456.37.208.7.488.99.84.3.352.53.784.69 1.296.18.496.27 1.072.27 1.728 0 1.2-.21 2.16-.63 2.88-.4.72-1 1.24-1.8 1.56-.78.304-1.75.456-2.9.456h-7.3Zm3.55-3.192h3.65c.42 0 .78-.08 1.08-.24.31-.16.54-.408.7-.744.17-.336.26-.784.26-1.344 0-.464-.09-.856-.26-1.176-.18-.32-.42-.568-.72-.744-.31-.176-.66-.264-1.06-.264h-3.65V36.2Zm0-7.248h3.46c.51 0 .91-.184 1.2-.552.3-.384.46-.88.46-1.488.01-.784-.15-1.328-.48-1.632-.34-.304-.75-.456-1.23-.456h-3.41v4.128ZM1213.79 39.512c-.97 0-1.88-.08-2.73-.24-.85-.176-1.59-.472-2.23-.888-.63-.432-1.12-1.024-1.47-1.776-.33-.768-.5-1.744-.5-2.928V21.632h3.55v12.024c0 .656.13 1.176.38 1.56.28.384.66.664 1.16.84.51.176 1.12.264 1.84.264.71 0 1.31-.088 1.8-.264.52-.176.9-.456 1.16-.84.27-.384.4-.904.4-1.56V21.632h3.58V33.68c0 1.184-.18 2.16-.53 2.928-.35.752-.84 1.344-1.46 1.776-.63.416-1.36.712-2.21.888-.83.16-1.74.24-2.74.24ZM1227.78 39.392v-5.376l-5.36-12.384h3.7l3.5 8.76 3.48-8.76h3.56l-5.33 12.384v5.376h-3.55ZM1248.53 39.392V24.824h-4.87v-3.192h13.32v3.192h-4.9v14.568h-3.55ZM1258.9 39.392v-17.76h7.34c.7 0 1.36.088 1.97.264.61.16 1.14.448 1.61.864.46.416.82.992 1.08 1.728.27.736.4 1.68.4 2.832 0 .816-.08 1.512-.24 2.088-.16.576-.37 1.048-.64 1.416-.26.368-.56.664-.89.888-.34.224-.68.408-1.03.552l3.31 7.128h-3.63l-2.85-6.576h-.67c-.24-.016-.49-.024-.75-.024h-.77c-.25 0-.48-.008-.69-.024v6.624h-3.55Zm3.55-9.432h3.17c.32 0 .6-.04.86-.12.26-.08.48-.216.67-.408.19-.208.34-.48.43-.816.12-.336.17-.768.17-1.296 0-.496-.05-.904-.17-1.224-.09-.336-.24-.592-.43-.768-.19-.192-.41-.32-.67-.384-.26-.08-.54-.12-.86-.12h-3.17v5.136ZM1272.81 39.392l5.57-17.76h4.49l5.57 17.76h-3.7l-1.13-3.72h-6.04l-1.11 3.72h-3.65Zm5.6-6.912h4.36l-2.18-7.8-2.18 7.8ZM1289.9 39.392V25.688c0-.784.12-1.44.36-1.968s.56-.944.96-1.248c.4-.304.84-.52 1.32-.648.48-.128.96-.192 1.42-.192.58 0 1.29.008 2.14.024.86 0 1.77.024 2.73.072.98.048 1.91.12 2.81.216v2.976h-6.7c-.49 0-.87.136-1.12.408-.24.256-.36.6-.36 1.032v3.024l7.03.192v2.808l-7.03.192v6.816h-3.56ZM1303.66 39.392V25.688c0-.784.12-1.44.36-1.968s.56-.944.96-1.248c.4-.304.84-.52 1.32-.648.48-.128.95-.192 1.42-.192.57 0 1.29.008 2.13.024.87 0 1.78.024 2.74.072.98.048 1.91.12 2.81.216v2.976h-6.7c-.49 0-.87.136-1.13.408-.24.256-.36.6-.36 1.032v3.024l7.04.192v2.808l-7.04.192v6.816h-3.55ZM1317.65 39.392v-17.76h3.56v17.76h-3.56ZM1330.26 39.536c-1.04 0-1.96-.12-2.76-.36-.78-.24-1.45-.68-2.01-1.32-.55-.64-.96-1.552-1.25-2.736-.27-1.2-.41-2.752-.41-4.656 0-1.84.14-3.344.43-4.512.31-1.184.74-2.096 1.3-2.736.56-.656 1.24-1.112 2.04-1.368s1.7-.384 2.71-.384c.8 0 1.54.048 2.23.144.71.08 1.34.184 1.9.312.56.112 1.03.24 1.41.384v2.76c-.28-.064-.68-.128-1.17-.192-.48-.064-1.03-.112-1.66-.144-.62-.048-1.28-.072-1.97-.072-.67 0-1.24.08-1.72.24-.47.144-.84.424-1.13.84-.27.4-.48.984-.63 1.752-.12.768-.19 1.768-.19 3 0 1.184.06 2.16.17 2.928.13.768.33 1.368.6 1.8.27.416.64.712 1.1.888.48.16 1.08.24 1.8.24 1.22 0 2.2-.024 2.96-.072.76-.048 1.38-.104 1.84-.168v2.736c-.43.144-.92.272-1.48.384-.56.096-1.18.168-1.85.216-.67.064-1.43.096-2.26.096Z" mask="url(#d)"/><path fill="#fff" d="m1380.51 39-4.25-17.76h3.67l2.86 12.528 3.34-12.528h3.26l3.31 12.528 2.86-12.528h3.67L1394.98 39h-3.62l-3.6-12.528L1384.13 39h-3.62Zm24.38.12c-.38 0-.82-.04-1.32-.12-.5-.064-.98-.224-1.44-.48-.45-.256-.82-.64-1.13-1.152-.29-.528-.43-1.248-.43-2.16v-9.912c0-.784.12-1.44.36-1.968s.56-.944.96-1.248c.4-.304.84-.52 1.32-.648.48-.128.95-.192 1.42-.192 1.2 0 2.25.016 3.16.048.93.032 1.76.072 2.5.12.74.032 1.41.08 2.02.144v2.976h-6.63c-.49 0-.88.12-1.15.36-.27.24-.41.608-.41 1.104v2.568l7.03.192v2.808l-7.03.192V34.2c0 .416.07.744.19.984.15.224.33.384.56.48.24.08.48.12.74.12h6.7v2.976c-.71.08-1.49.144-2.36.192-.84.048-1.71.088-2.59.12-.86.032-1.69.048-2.47.048Zm16.19-.12V21.24h6.98c1.76 0 3.04.408 3.84 1.224.82.8 1.23 1.944 1.23 3.432 0 .704-.11 1.328-.32 1.872-.19.528-.47.968-.84 1.32-.36.336-.8.568-1.32.696.39.096.76.248 1.11.456.37.208.69.488.98.84.31.352.54.784.7 1.296.17.496.26 1.072.26 1.728 0 1.2-.21 2.16-.62 2.88-.4.72-1 1.24-1.8 1.56-.79.304-1.75.456-2.91.456h-7.29Zm3.55-3.192h3.65c.41 0 .77-.08 1.08-.24.3-.16.53-.408.69-.744.18-.336.27-.784.27-1.344 0-.464-.09-.856-.27-1.176-.17-.32-.41-.568-.72-.744-.3-.176-.65-.264-1.05-.264h-3.65v4.512Zm0-7.248h3.46c.51 0 .91-.184 1.2-.552.3-.384.45-.88.45-1.488.02-.784-.14-1.328-.48-1.632-.33-.304-.74-.456-1.22-.456h-3.41v4.128Zm18.19 10.56c-.98 0-1.89-.08-2.74-.24-.84-.176-1.59-.472-2.23-.888-.62-.432-1.11-1.024-1.46-1.776-.34-.768-.51-1.744-.51-2.928V21.24h3.56v12.024c0 .656.12 1.176.38 1.56.27.384.66.664 1.15.84.51.176 1.13.264 1.85.264.7 0 1.3-.088 1.8-.264.51-.176.9-.456 1.15-.84.27-.384.41-.904.41-1.56V21.24h3.58v12.048c0 1.184-.18 2.16-.53 2.928-.35.752-.84 1.344-1.47 1.776-.62.416-1.36.712-2.2.888-.84.16-1.75.24-2.74.24Zm13.98-.12v-5.376l-5.35-12.384h3.7l3.5 8.76 3.48-8.76h3.55l-5.33 12.384V39h-3.55Zm20.76 0V24.432h-4.88V21.24H1486v3.192h-4.89V39h-3.55Zm10.36 0V21.24h7.35c.7 0 1.36.088 1.96.264.61.16 1.15.448 1.61.864.47.416.83.992 1.08 1.728.27.736.41 1.68.41 2.832 0 .816-.08 1.512-.24 2.088-.16.576-.38 1.048-.65 1.416-.25.368-.55.664-.89.888-.33.224-.68.408-1.03.552l3.31 7.128h-3.62l-2.86-6.576h-.67c-.24-.016-.49-.024-.74-.024h-.77c-.26 0-.49-.008-.7-.024V39h-3.55Zm3.55-9.432h3.17c.32 0 .61-.04.87-.12.25-.08.48-.216.67-.408.19-.208.33-.48.43-.816.11-.336.17-.768.17-1.296 0-.496-.06-.904-.17-1.224-.1-.336-.24-.592-.43-.768-.19-.192-.42-.32-.67-.384-.26-.08-.55-.12-.87-.12h-3.17v5.136ZM1501.84 39l5.57-17.76h4.49l5.56 17.76h-3.69l-1.13-3.72h-6.05l-1.1 3.72h-3.65Zm5.59-6.912h4.37l-2.18-7.8-2.19 7.8Zm11.5 6.912V25.296c0-.784.12-1.44.36-1.968s.56-.944.96-1.248c.4-.304.84-.52 1.32-.648.48-.128.95-.192 1.42-.192.57 0 1.28.008 2.13.024.87 0 1.78.024 2.74.072.97.048 1.91.12 2.81.216v2.976h-6.7c-.5 0-.87.136-1.13.408-.24.256-.36.6-.36 1.032v3.024l7.03.192v2.808l-7.03.192V39h-3.55Zm13.76 0V25.296c0-.784.12-1.44.36-1.968s.56-.944.96-1.248c.4-.304.84-.52 1.32-.648.48-.128.95-.192 1.41-.192.58 0 1.29.008 2.14.024.86 0 1.77.024 2.73.072.98.048 1.92.12 2.81.216v2.976h-6.69c-.5 0-.88.136-1.13.408-.24.256-.36.6-.36 1.032v3.024l7.03.192v2.808l-7.03.192V39h-3.55Zm13.99 0V21.24h3.55V39h-3.55Zm12.61.144c-1.04 0-1.96-.12-2.76-.36-.79-.24-1.46-.68-2.02-1.32-.54-.64-.96-1.552-1.25-2.736-.27-1.2-.4-2.752-.4-4.656 0-1.84.14-3.344.43-4.512.3-1.184.73-2.096 1.29-2.736.56-.656 1.24-1.112 2.04-1.368s1.71-.384 2.72-.384c.8 0 1.54.048 2.23.144.7.08 1.33.184 1.89.312.56.112 1.04.24 1.42.384v2.76c-.29-.064-.68-.128-1.18-.192-.48-.064-1.03-.112-1.65-.144-.63-.048-1.28-.072-1.97-.072-.67 0-1.25.08-1.73.24-.46.144-.84.424-1.13.84-.27.4-.48.984-.62 1.752-.13.768-.19 1.768-.19 3 0 1.184.05 2.16.17 2.928.12.768.32 1.368.6 1.8.27.416.64.712 1.1.888.48.16 1.08.24 1.8.24 1.22 0 2.2-.024 2.95-.072.77-.048 1.39-.104 1.85-.168v2.736c-.43.144-.93.272-1.49.384-.56.096-1.17.168-1.85.216-.67.064-1.42.096-2.25.096Z"/></g><defs><clipPath id="a"><path fill="#fff" d="M0 0h1454.1l.0011 61H.0011z"/></clipPath></defs></svg>