<svg xmlns="http://www.w3.org/2000/svg" width="375" height="44" fill="none"><g clip-path="url(#a)"><path fill="#7F3A6A" d="M-50.3242.9138h476l.0008 43h-476z"/><path fill="#fff" d="m-30.7297 27.9138-2.8322-11.84h2.448l1.9041 8.352 2.2239-8.352h2.176l2.2081 8.352 1.9039-8.352h2.448l-2.8318 11.84h-2.416l-2.4002-8.352-2.4158 8.352h-2.416Zm16.2531.08c-.256 0-.5493-.0266-.88-.08-.3306-.0426-.6507-.1493-.96-.32-.2987-.1706-.5493-.4266-.752-.768-.192-.352-.288-.832-.288-1.44l-.0002-6.608c0-.5226.08-.96.24-1.312.16-.352.3733-.6293.64-.832.2667-.2026.56-.3466.88-.432.32-.0853.6347-.128.944-.128.8 0 1.504.0107 2.112.032.6187.0214 1.1733.048 1.664.08.4907.0214.9387.0534 1.344.096v1.984h-4.416c-.3306 0-.5866.08-.768.24-.1813.16-.2719.4054-.2719.736v1.712l4.688.128v1.872l-4.688.128.0001 1.632c0 .2774.0426.496.128.656.096.1494.2186.256.368.32.16.0534.3253.08.496.08h4.464v1.984c-.4693.0534-.992.096-1.568.128a85.4072 85.4072 0 0 1-1.728.08 44.456 44.456 0 0 1-1.648.032Zm10.7919-.08-.0002-11.84H.971c1.1733 0 2.0267.272 2.56.816.544.5334.816 1.296.816 2.288 0 .4694-.0693.8854-.208 1.248-.128.352-.3146.6454-.56.88-.2453.224-.5386.3787-.88.464.256.064.5014.1654.736.304.2454.1387.464.3254.6561.56.2027.2347.3573.5227.464.864.1174.3307.176.7147.176 1.152 0 .8-.1386 1.44-.416 1.92-.2666.48-.6666.8267-1.2 1.04-.5226.2027-1.168.304-1.936.304h-4.864Zm2.368-2.128h2.432c.2773 0 .5173-.0533.72-.16.2026-.1066.3573-.272.464-.496.1173-.224.176-.5226.176-.896 0-.3093-.0587-.5706-.176-.784-.1174-.2133-.2774-.3786-.4801-.496-.2027-.1173-.4373-.176-.704-.176h-2.432v3.008Zm-.0001-4.832h2.304c.3413 0 .608-.1226.8-.368.2026-.256.304-.5866.304-.992.0106-.5226-.096-.8853-.32-1.088-.224-.2026-.496-.304-.816-.304h-2.272v2.752Zm12.1273 7.04c-.6506 0-1.2586-.0533-1.824-.16-.5653-.1173-1.0613-.3146-1.488-.592-.416-.288-.7413-.6826-.976-1.184-.224-.512-.336-1.1626-.336-1.952l-.0002-8.032h2.368l.0002 8.016c0 .4374.0853.784.256 1.04.1813.256.4373.4427.768.56.3413.1174.752.176 1.232.176.4693 0 .8693-.0586 1.2-.176.3413-.1173.5973-.304.768-.56.1813-.256.272-.6026.272-1.04l-.0002-8.016h2.384l.0002 8.032c0 .7894-.1173 1.44-.352 1.952-.2346.5014-.56.896-.976 1.184-.416.2774-.9066.4747-1.472.592-.5546.1067-1.1626.16-1.824.16Zm9.3208-.08-.0001-3.584-3.5681-8.256h2.464l2.3361 5.84 2.3199-5.84h2.368l-3.5519 8.256.0001 3.584h-2.368Zm13.8359 0-.0002-9.712h-3.248l-.0001-2.128h8.88l.0001 2.128h-3.264l.0002 9.712h-2.368Zm6.9106 0-.0002-11.84h4.896c.4693 0 .9066.0587 1.312.176.4053.1067.7626.2987 1.072.576.3093.2774.5493.6614.72 1.152.1814.4907.272 1.12.272 1.888.0001.544-.0533 1.008-.1599 1.392-.1067.384-.2507.6987-.432.944-.1707.2454-.368.4427-.592.592a3.9012 3.9012 0 0 1-.688.368l2.2081 4.752h-2.416l-1.9041-4.384h-.448a7.5043 7.5043 0 0 0-.496-.016h-.512a6.0772 6.0772 0 0 1-.464-.016l.0001 4.416h-2.368Zm2.3679-6.288h2.112c.2133 0 .4053-.0266.576-.08.1706-.0533.32-.144.448-.272.128-.1386.224-.32.288-.544.0746-.224.112-.512.1119-.864 0-.3306-.0373-.6026-.112-.816-.064-.224-.16-.3946-.288-.512-.128-.128-.2773-.2133-.448-.256-.1707-.0533-.3627-.08-.576-.08h-2.112l.0001 3.424Zm6.9113 6.288 3.7118-11.84h2.992l3.7122 11.84h-2.464l-.752-2.48h-4.032l-.736 2.48h-2.432Zm3.728-4.608h2.912l-1.4561-5.2-1.4559 5.2Zm7.6647 4.608-.0002-9.136c0-.5226.08-.96.24-1.312.16-.352.3733-.6293.64-.832.2666-.2026.56-.3466.88-.432.32-.0853.6346-.128.9439-.128.384 0 .8587.0054 1.424.016.576 0 1.184.016 1.8241.048.6506.032 1.2746.08 1.872.144v1.984h-4.464c-.3307 0-.5813.0907-.752.272-.16.1707-.24.4-.24.688v2.016l4.688.128.0001 1.872-4.688.128.0001 4.544h-2.368Zm9.1718 0-.0001-9.136c0-.5226.08-.96.2399-1.312.16-.352.3734-.6293.64-.832.2667-.2026.56-.3466.88-.432.32-.0853.6347-.128.944-.128.384 0 .8587.0054 1.424.016.576 0 1.184.016 1.824.048.6507.032 1.2747.08 1.872.144l.0001 1.984h-4.464c-.3307 0-.5814.0907-.752.272-.16.1707-.24.4-.24.688v2.016l4.688.128.0001 1.872-4.688.128v4.544h-2.368Zm9.3282 0-.0003-11.84h2.368l.0003 11.84h-2.368Zm8.4058.096c-.6933 0-1.3066-.08-1.84-.24-.5226-.16-.9706-.4533-1.344-.88-.3627-.4266-.64-1.0346-.832-1.824-.1814-.8-.272-1.8346-.2721-3.104 0-1.2266.096-2.2293.288-3.008.2026-.7893.4906-1.3973.8639-1.824.3734-.4373.8267-.7413 1.36-.912.5334-.1706 1.136-.256 1.808-.256.5334 0 1.0294.032 1.488.096.4694.0534.8907.1227 1.264.208.3734.0747.688.16.944.256l.0001 1.84c-.192-.0426-.4534-.0853-.784-.128-.32-.0426-.688-.0746-1.104-.096a17.129 17.129 0 0 0-1.312-.048c-.448 0-.832.0534-1.152.16-.3094.096-.56.2827-.752.56-.1814.2667-.32.656-.416 1.168-.0853.512-.128 1.1787-.128 2 0 .7894.0374 1.44.1121 1.952.0853.512.2187.912.4 1.2.1813.2774.4267.4747.736.592.32.1067.72.16 1.2.16.8107 0 1.4667-.016 1.968-.048.512-.032.9227-.0693 1.232-.112v1.824c-.288.096-.6186.1814-.992.256-.3733.064-.784.112-1.232.144-.448.0427-.9493.064-1.504.064Z"/><mask id="b" width="128" height="14" x="124.166" y="15.3898" fill="#000" maskUnits="userSpaceOnUse"><path fill="#fff" d="M124.166 15.3898h128v14h-128z"/><path d="m127.999 28.3418-2.832-11.84h2.448l1.904 8.352 2.224-8.352h2.176l2.208 8.352 1.904-8.352h2.448l-2.832 11.84h-2.416l-2.4-8.352-2.416 8.352h-2.416ZM144.252 28.4218c-.256 0-.549-.0267-.88-.08-.331-.0427-.651-.1494-.96-.32-.299-.1707-.549-.4267-.752-.768-.192-.352-.288-.832-.288-1.44v-6.608c0-.5227.08-.96.24-1.312.16-.352.373-.6294.64-.832a2.504 2.504 0 0 1 .88-.432c.32-.0854.634-.128.944-.128.8 0 1.504.0106 2.112.032.618.0213 1.173.048 1.664.08.49.0213.938.0533 1.344.096v1.984h-4.416c-.331 0-.587.08-.768.24-.182.16-.272.4053-.272.736v1.712l4.688.128v1.872l-4.688.128v1.632c0 .2773.042.496.128.656.096.1493.218.256.368.32.16.0533.325.08.496.08h4.464v1.984c-.469.0533-.992.096-1.568.128-.565.032-1.141.0586-1.728.08-.576.0213-1.125.032-1.648.032ZM155.044 28.3418v-11.84h4.656c1.173 0 2.026.272 2.56.816.544.5333.816 1.296.816 2.288 0 .4693-.07.8853-.208 1.248-.128.352-.315.6453-.56.88-.246.224-.539.3786-.88.464.256.064.501.1653.736.304.245.1386.464.3253.656.56.202.2346.357.5226.464.864.117.3306.176.7146.176 1.152 0 .8-.139 1.44-.416 1.92-.267.48-.667.8266-1.2 1.04-.523.2026-1.168.304-1.936.304h-4.864Zm2.368-2.128h2.432c.277 0 .517-.0534.72-.16.202-.1067.357-.272.464-.496.117-.224.176-.5227.176-.896 0-.3094-.059-.5707-.176-.784-.118-.2134-.278-.3787-.48-.496-.203-.1174-.438-.176-.704-.176h-2.432v3.008Zm0-4.832h2.304c.341 0 .608-.1227.8-.368.202-.256.304-.5867.304-.992.01-.5227-.096-.8854-.32-1.088-.224-.2027-.496-.304-.816-.304h-2.272v2.752ZM169.539 28.4218c-.651 0-1.259-.0534-1.824-.16-.565-.1174-1.061-.3147-1.488-.592-.416-.288-.741-.6827-.976-1.184-.224-.512-.336-1.1627-.336-1.952v-8.032h2.368v8.016c0 .4373.085.784.256 1.04.181.256.437.4426.768.56.341.1173.752.176 1.232.176.469 0 .869-.0587 1.2-.176.341-.1174.597-.304.768-.56.181-.256.272-.6027.272-1.04v-8.016h2.384v8.032c0 .7893-.117 1.44-.352 1.952-.235.5013-.56.896-.976 1.184-.416.2773-.907.4746-1.472.592-.555.1066-1.163.16-1.824.16ZM178.86 28.3418v-3.584l-3.568-8.256h2.464l2.336 5.84 2.32-5.84h2.368l-3.552 8.256v3.584h-2.368ZM192.696 28.3418l-.001-9.712h-3.248v-2.128h8.88v2.128h-3.264l.001 9.712h-2.368ZM199.606 28.3418v-11.84h4.896c.469 0 .907.0586 1.312.176.405.1066.763.2986 1.072.576.309.2773.549.6613.72 1.152.181.4906.272 1.12.272 1.888 0 .544-.053 1.008-.16 1.392-.107.384-.251.6986-.432.944-.171.2453-.368.4426-.592.592-.224.1493-.453.272-.688.368l2.208 4.752h-2.416l-1.904-4.384h-.448a7.4298 7.4298 0 0 0-.496-.016h-.512c-.171 0-.325-.0054-.464-.016v4.416h-2.368Zm2.368-6.288h2.112c.213 0 .405-.0267.576-.08.171-.0534.32-.144.448-.272.128-.1387.224-.32.288-.544.075-.224.112-.512.112-.864 0-.3307-.037-.6027-.112-.816-.064-.224-.16-.3947-.288-.512-.128-.128-.277-.2134-.448-.256-.171-.0534-.363-.08-.576-.08h-2.112v3.424ZM208.885 28.3418l3.712-11.84h2.992l3.712 11.84h-2.464l-.752-2.48h-4.032l-.736 2.48h-2.432Zm3.728-4.608h2.912l-1.456-5.2-1.456 5.2ZM220.278 28.3418v-9.136c0-.5227.08-.96.24-1.312.16-.352.373-.6294.64-.832.267-.2027.56-.3467.88-.432.32-.0854.635-.128.944-.128.384 0 .859.0053 1.424.016.576 0 1.184.016 1.824.048.651.032 1.275.08 1.872.144v1.984h-4.464c-.331 0-.581.0906-.752.272-.16.1706-.24.4-.24.688v2.016l4.688.128v1.872l-4.688.128v4.544h-2.368ZM229.45 28.3418v-9.136c0-.5227.08-.96.24-1.312.16-.352.373-.6294.64-.832a2.504 2.504 0 0 1 .88-.432c.32-.0854.634-.128.944-.128.384 0 .858.0053 1.424.016.576 0 1.184.016 1.824.048.65.032 1.274.08 1.872.144v1.984h-4.464c-.331 0-.582.0906-.752.272-.16.1706-.24.4-.24.688v2.016l4.688.128v1.872l-4.688.128v4.544h-2.368ZM238.778 28.3418v-11.84h2.368v11.84h-2.368ZM247.184 28.4378c-.693 0-1.307-.08-1.84-.24-.523-.16-.971-.4534-1.344-.88-.363-.4267-.64-1.0347-.832-1.824-.181-.8-.272-1.8347-.272-3.104 0-1.2267.096-2.2294.288-3.008.202-.7894.49-1.3974.864-1.824.373-.4374.826-.7414 1.36-.912.533-.1707 1.136-.256 1.808-.256.533 0 1.029.032 1.488.096.469.0533.89.1226 1.264.208.373.0746.688.16.944.256v1.84c-.192-.0427-.454-.0854-.784-.128-.32-.0427-.688-.0747-1.104-.096-.416-.032-.854-.048-1.312-.048-.448 0-.832.0533-1.152.16-.31.096-.56.2826-.752.56-.182.2666-.32.656-.416 1.168-.085.512-.128 1.1786-.128 2 0 .7893.037 1.44.112 1.952.085.512.219.912.4 1.2.181.2773.427.4746.736.592.32.1066.72.16 1.2.16.811 0 1.467-.016 1.968-.048.512-.032.923-.0694 1.232-.112v1.824c-.288.096-.619.1813-.992.256-.373.064-.784.112-1.232.144-.448.0426-.949.064-1.504.064Z"/></mask><path stroke="#fff" stroke-width="1.5" d="m127.999 28.3418-2.832-11.84h2.448l1.904 8.352 2.224-8.352h2.176l2.208 8.352 1.904-8.352h2.448l-2.832 11.84h-2.416l-2.4-8.352-2.416 8.352h-2.416ZM144.252 28.4218c-.256 0-.549-.0267-.88-.08-.331-.0427-.651-.1494-.96-.32-.299-.1707-.549-.4267-.752-.768-.192-.352-.288-.832-.288-1.44v-6.608c0-.5227.08-.96.24-1.312.16-.352.373-.6294.64-.832a2.504 2.504 0 0 1 .88-.432c.32-.0854.634-.128.944-.128.8 0 1.504.0106 2.112.032.618.0213 1.173.048 1.664.08.49.0213.938.0533 1.344.096v1.984h-4.416c-.331 0-.587.08-.768.24-.182.16-.272.4053-.272.736v1.712l4.688.128v1.872l-4.688.128v1.632c0 .2773.042.496.128.656.096.1493.218.256.368.32.16.0533.325.08.496.08h4.464v1.984c-.469.0533-.992.096-1.568.128-.565.032-1.141.0586-1.728.08-.576.0213-1.125.032-1.648.032ZM155.044 28.3418v-11.84h4.656c1.173 0 2.026.272 2.56.816.544.5333.816 1.296.816 2.288 0 .4693-.07.8853-.208 1.248-.128.352-.315.6453-.56.88-.246.224-.539.3786-.88.464.256.064.501.1653.736.304.245.1386.464.3253.656.56.202.2346.357.5226.464.864.117.3306.176.7146.176 1.152 0 .8-.139 1.44-.416 1.92-.267.48-.667.8266-1.2 1.04-.523.2026-1.168.304-1.936.304h-4.864Zm2.368-2.128h2.432c.277 0 .517-.0534.72-.16.202-.1067.357-.272.464-.496.117-.224.176-.5227.176-.896 0-.3094-.059-.5707-.176-.784-.118-.2134-.278-.3787-.48-.496-.203-.1174-.438-.176-.704-.176h-2.432v3.008Zm0-4.832h2.304c.341 0 .608-.1227.8-.368.202-.256.304-.5867.304-.992.01-.5227-.096-.8854-.32-1.088-.224-.2027-.496-.304-.816-.304h-2.272v2.752ZM169.539 28.4218c-.651 0-1.259-.0534-1.824-.16-.565-.1174-1.061-.3147-1.488-.592-.416-.288-.741-.6827-.976-1.184-.224-.512-.336-1.1627-.336-1.952v-8.032h2.368v8.016c0 .4373.085.784.256 1.04.181.256.437.4426.768.56.341.1173.752.176 1.232.176.469 0 .869-.0587 1.2-.176.341-.1174.597-.304.768-.56.181-.256.272-.6027.272-1.04v-8.016h2.384v8.032c0 .7893-.117 1.44-.352 1.952-.235.5013-.56.896-.976 1.184-.416.2773-.907.4746-1.472.592-.555.1066-1.163.16-1.824.16ZM178.86 28.3418v-3.584l-3.568-8.256h2.464l2.336 5.84 2.32-5.84h2.368l-3.552 8.256v3.584h-2.368ZM192.696 28.3418l-.001-9.712h-3.248v-2.128h8.88v2.128h-3.264l.001 9.712h-2.368ZM199.606 28.3418v-11.84h4.896c.469 0 .907.0586 1.312.176.405.1066.763.2986 1.072.576.309.2773.549.6613.72 1.152.181.4906.272 1.12.272 1.888 0 .544-.053 1.008-.16 1.392-.107.384-.251.6986-.432.944-.171.2453-.368.4426-.592.592-.224.1493-.453.272-.688.368l2.208 4.752h-2.416l-1.904-4.384h-.448a7.4298 7.4298 0 0 0-.496-.016h-.512c-.171 0-.325-.0054-.464-.016v4.416h-2.368Zm2.368-6.288h2.112c.213 0 .405-.0267.576-.08.171-.0534.32-.144.448-.272.128-.1387.224-.32.288-.544.075-.224.112-.512.112-.864 0-.3307-.037-.6027-.112-.816-.064-.224-.16-.3947-.288-.512-.128-.128-.277-.2134-.448-.256-.171-.0534-.363-.08-.576-.08h-2.112v3.424ZM208.885 28.3418l3.712-11.84h2.992l3.712 11.84h-2.464l-.752-2.48h-4.032l-.736 2.48h-2.432Zm3.728-4.608h2.912l-1.456-5.2-1.456 5.2ZM220.278 28.3418v-9.136c0-.5227.08-.96.24-1.312.16-.352.373-.6294.64-.832.267-.2027.56-.3467.88-.432.32-.0854.635-.128.944-.128.384 0 .859.0053 1.424.016.576 0 1.184.016 1.824.048.651.032 1.275.08 1.872.144v1.984h-4.464c-.331 0-.581.0906-.752.272-.16.1706-.24.4-.24.688v2.016l4.688.128v1.872l-4.688.128v4.544h-2.368ZM229.45 28.3418v-9.136c0-.5227.08-.96.24-1.312.16-.352.373-.6294.64-.832a2.504 2.504 0 0 1 .88-.432c.32-.0854.634-.128.944-.128.384 0 .858.0053 1.424.016.576 0 1.184.016 1.824.048.65.032 1.274.08 1.872.144v1.984h-4.464c-.331 0-.582.0906-.752.272-.16.1706-.24.4-.24.688v2.016l4.688.128v1.872l-4.688.128v4.544h-2.368ZM238.778 28.3418v-11.84h2.368v11.84h-2.368ZM247.184 28.4378c-.693 0-1.307-.08-1.84-.24-.523-.16-.971-.4534-1.344-.88-.363-.4267-.64-1.0347-.832-1.824-.181-.8-.272-1.8347-.272-3.104 0-1.2267.096-2.2294.288-3.008.202-.7894.49-1.3974.864-1.824.373-.4374.826-.7414 1.36-.912.533-.1707 1.136-.256 1.808-.256.533 0 1.029.032 1.488.096.469.0533.89.1226 1.264.208.373.0746.688.16.944.256v1.84c-.192-.0427-.454-.0854-.784-.128-.32-.0427-.688-.0747-1.104-.096-.416-.032-.854-.048-1.312-.048-.448 0-.832.0533-1.152.16-.31.096-.56.2826-.752.56-.182.2666-.32.656-.416 1.168-.085.512-.128 1.1786-.128 2 0 .7893.037 1.44.112 1.952.085.512.219.912.4 1.2.181.2773.427.4746.736.592.32.1066.72.16 1.2.16.811 0 1.467-.016 1.968-.048.512-.032.923-.0694 1.232-.112v1.824c-.288.096-.619.1813-.992.256-.373.064-.784.112-1.232.144-.448.0426-.949.064-1.504.064Z" mask="url(#b)"/><path fill="#fff" d="m286.016 27.9138-2.832-11.84h2.448l1.904 8.352 2.224-8.352h2.176l2.208 8.352 1.904-8.352h2.448l-2.832 11.84h-2.416l-2.4-8.352-2.416 8.352h-2.416Zm16.253.08c-.256 0-.549-.0266-.88-.08-.331-.0426-.651-.1493-.96-.32-.299-.1706-.549-.4266-.752-.768-.192-.352-.288-.832-.288-1.44v-6.608c0-.5226.08-.96.24-1.312.16-.352.373-.6293.64-.832.266-.2026.56-.3466.88-.432.32-.0853.634-.128.944-.128.8 0 1.504.0107 2.112.032.618.0214 1.173.048 1.664.08.49.0214.938.0534 1.344.096v1.984h-4.416c-.331 0-.587.08-.768.24-.181.16-.272.4054-.272.736v1.712l4.688.128v1.872l-4.688.128v1.632c0 .2774.043.496.128.656.096.1494.219.256.368.32.16.0534.325.08.496.08h4.464v1.984c-.469.0534-.992.096-1.568.128-.565.032-1.141.0587-1.728.08-.576.0214-1.125.032-1.648.032Zm10.792-.08v-11.84h4.656c1.173 0 2.026.272 2.56.816.544.5334.816 1.296.816 2.288 0 .4694-.07.8854-.208 1.248-.128.352-.315.6454-.56.88-.246.224-.539.3787-.88.464.256.064.501.1654.736.304.245.1387.464.3254.656.56.202.2347.357.5227.464.864.117.3307.176.7147.176 1.152 0 .8-.139 1.44-.416 1.92-.267.48-.667.8267-1.2 1.04-.523.2027-1.168.304-1.936.304h-4.864Zm2.368-2.128h2.432c.277 0 .517-.0533.72-.16.203-.1066.357-.272.464-.496.117-.224.176-.5226.176-.896 0-.3093-.059-.5706-.176-.784-.118-.2133-.278-.3786-.48-.496-.203-.1173-.438-.176-.704-.176h-2.432v3.008Zm0-4.832h2.304c.341 0 .608-.1226.8-.368.202-.256.304-.5866.304-.992.01-.5226-.096-.8853-.32-1.088-.224-.2026-.496-.304-.816-.304h-2.272v2.752Zm12.127 7.04c-.651 0-1.259-.0533-1.824-.16-.565-.1173-1.061-.3146-1.488-.592-.416-.288-.741-.6826-.976-1.184-.224-.512-.336-1.1626-.336-1.952v-8.032h2.368v8.016c0 .4374.085.784.256 1.04.181.256.437.4427.768.56.341.1174.752.176 1.232.176.469 0 .869-.0586 1.2-.176.341-.1173.597-.304.768-.56.181-.256.272-.6026.272-1.04v-8.016h2.384v8.032c0 .7894-.117 1.44-.352 1.952-.235.5014-.56.896-.976 1.184-.416.2774-.907.4747-1.472.592-.555.1067-1.163.16-1.824.16Zm9.321-.08v-3.584l-3.568-8.256h2.464l2.336 5.84 2.32-5.84h2.368l-3.552 8.256v3.584h-2.368Zm13.836 0v-9.712h-3.248v-2.128h8.88v2.128h-3.264v9.712h-2.368Zm6.91 0v-11.84h4.896c.47 0 .907.0587 1.312.176.406.1067.763.2987 1.072.576.31.2774.55.6614.72 1.152.182.4907.272 1.12.272 1.888 0 .544-.053 1.008-.16 1.392-.106.384-.25.6987-.432.944-.17.2454-.368.4427-.592.592-.224.1494-.453.272-.688.368l2.208 4.752h-2.416l-1.904-4.384h-.448a7.4976 7.4976 0 0 0-.496-.016h-.512c-.17 0-.325-.0053-.464-.016v4.416h-2.368Zm2.368-6.288h2.112c.214 0 .406-.0266.576-.08.171-.0533.32-.144.448-.272.128-.1386.224-.32.288-.544.075-.224.112-.512.112-.864 0-.3306-.037-.6026-.112-.816-.064-.224-.16-.3946-.288-.512-.128-.128-.277-.2133-.448-.256-.17-.0533-.362-.08-.576-.08h-2.112v3.424Zm6.912 6.288 3.711-11.84h2.992l3.713 11.84h-2.464l-.752-2.48h-4.032l-.736 2.48h-2.432Zm3.728-4.608h2.912l-1.457-5.2-1.455 5.2Zm7.664 4.608v-9.136c0-.5226.08-.96.24-1.312.16-.352.373-.6293.64-.832.267-.2026.56-.3466.88-.432.32-.0853.635-.128.944-.128.384 0 .859.0054 1.424.016.576 0 1.184.016 1.824.048.651.032 1.275.08 1.872.144v1.984h-4.464c-.331 0-.581.0907-.752.272-.16.1707-.24.4-.24.688v2.016l4.688.128v1.872l-4.688.128v4.544h-2.368Zm9.172 0v-9.136c0-.5226.08-.96.24-1.312.16-.352.373-.6293.64-.832.267-.2026.56-.3466.88-.432.32-.0853.635-.128.944-.128.384 0 .859.0054 1.424.016.576 0 1.184.016 1.824.048.651.032 1.275.08 1.872.144v1.984h-4.464c-.331 0-.581.0907-.752.272-.16.1707-.24.4-.24.688v2.016l4.688.128v1.872l-4.688.128v4.544h-2.368Zm9.328 0v-11.84h2.368v11.84h-2.368Zm8.406.096c-.693 0-1.307-.08-1.84-.24-.523-.16-.971-.4533-1.344-.88-.363-.4266-.64-1.0346-.832-1.824-.181-.8-.272-1.8346-.272-3.104 0-1.2266.096-2.2293.288-3.008.203-.7893.491-1.3973.864-1.824.373-.4373.827-.7413 1.36-.912.533-.1706 1.136-.256 1.808-.256.533 0 1.029.032 1.488.096.469.0534.891.1227 1.264.208.373.0747.688.16.944.256v1.84c-.192-.0426-.453-.0853-.784-.128-.32-.0426-.688-.0746-1.104-.096-.416-.032-.853-.048-1.312-.048-.448 0-.832.0534-1.152.16-.309.096-.56.2827-.752.56-.181.2667-.32.656-.416 1.168-.085.512-.128 1.1787-.128 2 0 .7894.037 1.44.112 1.952.085.512.219.912.4 1.2.181.2774.427.4747.736.592.32.1067.72.16 1.2.16.811 0 1.467-.016 1.968-.048.512-.032.923-.0693 1.232-.112v1.824c-.288.096-.619.1814-.992.256-.373.064-.784.112-1.232.144-.448.0427-.949.064-1.504.064Z"/></g><defs><clipPath id="a"><path fill="#fff" d="M-50.3242.9138h476l.0008 43h-476z"/></clipPath></defs></svg>