<svg xmlns="http://www.w3.org/2000/svg" width="1455" height="61" fill="none"><g clip-path="url(#a)"><path fill="#E9A923" d="M0 0h1454.1l.0011 61H.0011z"/><mask id="b" width="193" height="23" x="-112.272" y="18.464" fill="#000" maskUnits="userSpaceOnUse"><path fill="#fff" d="M-112.272 18.464h193v23h-193z"/><path d="m-106.024 39.392-4.248-17.76h3.672l2.856 12.528 3.336-12.528h3.2638l3.3123 12.528 2.8557-12.528h3.672l-4.2476 17.76h-3.624l-3.6003-12.528-3.6239 12.528h-3.624ZM-81.6441 39.512c-.384 0-.824-.04-1.32-.12-.496-.064-.976-.224-1.44-.48-.4481-.256-.8241-.64-1.1281-1.152-.288-.528-.432-1.248-.432-2.16l-.0002-9.912c0-.784.12-1.44.36-1.968s.56-.944.96-1.248c.3999-.304.8399-.52 1.3199-.648.48-.128.952-.192 1.416-.192 1.2 0 2.256.016 3.168.048.928.032 1.76.072 2.496.12.736.032 1.408.08 2.016.144l.0001 2.976h-6.624c-.496 0-.88.12-1.152.36-.272.24-.408.608-.408 1.104l.0001 2.568 7.032.192v2.808l-7.032.192.0001 2.448c0 .416.064.744.192.984.144.224.328.384.552.48.24.08.488.12.744.12h6.696l.0001 2.976c-.704.08-1.488.144-2.352.192-.848.048-1.712.088-2.592.12-.864.032-1.688.048-2.472.048ZM-65.4563 39.392l-.0004-17.76h6.984c1.76 0 3.0401.408 3.8401 1.224.816.8 1.224 1.944 1.224 3.432 0 .704-.1039 1.328-.3119 1.872-.192.528-.472.968-.84 1.32-.368.336-.808.568-1.32.696.384.096.752.248 1.104.456.368.208.696.488.984.84.304.352.536.784.6961 1.296.176.496.264 1.072.264 1.728 0 1.2-.208 2.16-.624 2.88-.4.72-.9999 1.24-1.7999 1.56-.784.304-1.752.456-2.904.456h-7.296Zm3.5519-3.192h3.648c.416 0 .776-.08 1.08-.24.304-.16.536-.408.696-.744.176-.336.264-.784.264-1.344 0-.464-.088-.856-.264-1.176-.1761-.32-.4161-.568-.7201-.744-.304-.176-.656-.264-1.056-.264h-3.648l.0001 4.512Zm-.0001-7.248h3.456c.512 0 .912-.184 1.2-.552.304-.384.456-.88.4559-1.488.016-.784-.144-1.328-.48-1.632-.336-.304-.744-.456-1.224-.456h-3.408l.0001 4.128ZM-43.7134 39.512c-.976 0-1.888-.08-2.736-.24-.8481-.176-1.5921-.472-2.2321-.888-.624-.432-1.112-1.024-1.464-1.776-.336-.768-.504-1.744-.5041-2.928l-.0002-12.048h3.552l.0002 12.024c.0001.656.1281 1.176.3841 1.56.272.384.656.664 1.152.84.512.176 1.128.264 1.848.264.704 0 1.304-.088 1.8-.264.512-.176.896-.456 1.152-.84.272-.384.408-.904.408-1.56l-.0003-12.024h3.576l.0002 12.048c.0001 1.184-.1759 2.16-.5279 2.928-.352.752-.84 1.344-1.464 1.776-.624.416-1.3599.712-2.2079.888-.832.16-1.744.24-2.736.24ZM-29.7323 39.392l-.0001-5.376-5.3523-12.384h3.6961l3.5041 8.76 3.4798-8.76h3.552l-5.3277 12.384.0001 5.376h-3.552ZM-8.9785 39.392l-.0003-14.568h-4.872v-3.192h13.32v3.192h-4.896l.0003 14.568h-3.552ZM1.3874 39.392l-.0003-17.76h7.344c.704 0 1.36.088 1.968.264.608.16 1.144.448 1.608.864.464.416.824.992 1.0801 1.728.272.736.408 1.68.408 2.832 0 .816-.08 1.512-.24 2.088-.1599.576-.3759 1.048-.6479 1.416-.256.368-.552.664-.888.888-.336.224-.68.408-1.032.552l3.3121 7.128h-3.624l-2.856-6.576h-.6721c-.24-.016-.488-.024-.744-.024h-.768c-.256 0-.488-.008-.696-.024l.0001 6.624h-3.552Zm3.5518-9.432h3.168c.32 0 .608-.04.864-.12.256-.08.48-.216.672-.408.192-.208.336-.48.432-.816.112-.336.168-.768.168-1.296 0-.496-.056-.904-.168-1.224-.096-.336-.24-.592-.432-.768-.192-.192-.416-.32-.672-.384-.256-.08-.544-.12-.864-.12h-3.168v5.136ZM15.3063 39.392l5.5677-17.76h4.488l5.5683 17.76h-3.696l-1.1281-3.72h-6.048l-1.1039 3.72h-3.648Zm5.5919-6.912h4.368l-2.1842-7.8-2.1838 7.8ZM32.3952 39.392l-.0002-13.704c0-.784.1199-1.44.3599-1.968s.56-.944.96-1.248c.4-.304.84-.52 1.32-.648.48-.128.952-.192 1.416-.192.576 0 1.288.008 2.136.024.864 0 1.776.024 2.736.072.976.048 1.912.12 2.808.216l.0001 2.976h-6.696c-.496 0-.872.136-1.128.408-.24.256-.36.6-.36 1.032v3.024l7.032.192.0001 2.808-7.032.192.0001 6.816h-3.552ZM46.153 39.392l-.0002-13.704c0-.784.12-1.44.36-1.968.2399-.528.5599-.944.9599-1.248.4-.304.84-.52 1.32-.648.48-.128.952-.192 1.416-.192.576 0 1.288.008 2.136.024.864 0 1.776.024 2.736.072.976.048 1.912.12 2.808.216l.0001 2.976h-6.696c-.496 0-.872.136-1.128.408-.24.256-.36.6-.36 1.032l.0001 3.024 7.032.192v2.808l-7.032.192.0001 6.816h-3.552ZM60.1452 39.392l-.0003-17.76h3.552l.0003 17.76h-3.552ZM72.754 39.536c-1.04 0-1.96-.12-2.76-.36-.784-.24-1.456-.68-2.016-1.32-.544-.64-.96-1.552-1.248-2.736-.2721-1.2-.4081-2.752-.4081-4.656-.0001-1.84.1439-3.344.4319-4.512.304-1.184.736-2.096 1.2959-2.736.56-.656 1.24-1.112 2.04-1.368s1.704-.384 2.712-.384c.8 0 1.544.048 2.232.144.704.08 1.336.184 1.896.312.56.112 1.032.24 1.416.384l.0001 2.76c-.288-.064-.68-.128-1.176-.192-.48-.064-1.032-.112-1.656-.144-.624-.048-1.28-.072-1.968-.072-.672 0-1.248.08-1.728.24-.464.144-.84.424-1.128.84-.272.4-.48.984-.624 1.752-.128.768-.1919 1.768-.1919 3 0 1.184.056 2.16.168 2.928.1281.768.3281 1.368.6001 1.8.272.416.64.712 1.104.888.48.16 1.08.24 1.8.24 1.216 0 2.2-.024 2.952-.072.768-.048 1.384-.104 1.848-.168v2.736c-.4319.144-.928.272-1.488.384-.56.096-1.176.168-1.8479.216-.672.064-1.4241.096-2.2561.096Z"/></mask><path stroke="#fff" stroke-width="3" d="m-106.024 39.392-4.248-17.76h3.672l2.856 12.528 3.336-12.528h3.2638l3.3123 12.528 2.8557-12.528h3.672l-4.2476 17.76h-3.624l-3.6003-12.528-3.6239 12.528h-3.624ZM-81.6441 39.512c-.384 0-.824-.04-1.32-.12-.496-.064-.976-.224-1.44-.48-.4481-.256-.8241-.64-1.1281-1.152-.288-.528-.432-1.248-.432-2.16l-.0002-9.912c0-.784.12-1.44.36-1.968s.56-.944.96-1.248c.3999-.304.8399-.52 1.3199-.648.48-.128.952-.192 1.416-.192 1.2 0 2.256.016 3.168.048.928.032 1.76.072 2.496.12.736.032 1.408.08 2.016.144l.0001 2.976h-6.624c-.496 0-.88.12-1.152.36-.272.24-.408.608-.408 1.104l.0001 2.568 7.032.192v2.808l-7.032.192.0001 2.448c0 .416.064.744.192.984.144.224.328.384.552.48.24.08.488.12.744.12h6.696l.0001 2.976c-.704.08-1.488.144-2.352.192-.848.048-1.712.088-2.592.12-.864.032-1.688.048-2.472.048ZM-65.4563 39.392l-.0004-17.76h6.984c1.76 0 3.0401.408 3.8401 1.224.816.8 1.224 1.944 1.224 3.432 0 .704-.1039 1.328-.3119 1.872-.192.528-.472.968-.84 1.32-.368.336-.808.568-1.32.696.384.096.752.248 1.104.456.368.208.696.488.984.84.304.352.536.784.6961 1.296.176.496.264 1.072.264 1.728 0 1.2-.208 2.16-.624 2.88-.4.72-.9999 1.24-1.7999 1.56-.784.304-1.752.456-2.904.456h-7.296Zm3.5519-3.192h3.648c.416 0 .776-.08 1.08-.24.304-.16.536-.408.696-.744.176-.336.264-.784.264-1.344 0-.464-.088-.856-.264-1.176-.1761-.32-.4161-.568-.7201-.744-.304-.176-.656-.264-1.056-.264h-3.648l.0001 4.512Zm-.0001-7.248h3.456c.512 0 .912-.184 1.2-.552.304-.384.456-.88.4559-1.488.016-.784-.144-1.328-.48-1.632-.336-.304-.744-.456-1.224-.456h-3.408l.0001 4.128ZM-43.7134 39.512c-.976 0-1.888-.08-2.736-.24-.8481-.176-1.5921-.472-2.2321-.888-.624-.432-1.112-1.024-1.464-1.776-.336-.768-.504-1.744-.5041-2.928l-.0002-12.048h3.552l.0002 12.024c.0001.656.1281 1.176.3841 1.56.272.384.656.664 1.152.84.512.176 1.128.264 1.848.264.704 0 1.304-.088 1.8-.264.512-.176.896-.456 1.152-.84.272-.384.408-.904.408-1.56l-.0003-12.024h3.576l.0002 12.048c.0001 1.184-.1759 2.16-.5279 2.928-.352.752-.84 1.344-1.464 1.776-.624.416-1.3599.712-2.2079.888-.832.16-1.744.24-2.736.24ZM-29.7323 39.392l-.0001-5.376-5.3523-12.384h3.6961l3.5041 8.76 3.4798-8.76h3.552l-5.3277 12.384.0001 5.376h-3.552ZM-8.9785 39.392l-.0003-14.568h-4.872v-3.192h13.32v3.192h-4.896l.0003 14.568h-3.552ZM1.3874 39.392l-.0003-17.76h7.344c.704 0 1.36.088 1.968.264.608.16 1.144.448 1.608.864.464.416.824.992 1.0801 1.728.272.736.408 1.68.408 2.832 0 .816-.08 1.512-.24 2.088-.1599.576-.3759 1.048-.6479 1.416-.256.368-.552.664-.888.888-.336.224-.68.408-1.032.552l3.3121 7.128h-3.624l-2.856-6.576h-.6721c-.24-.016-.488-.024-.744-.024h-.768c-.256 0-.488-.008-.696-.024l.0001 6.624h-3.552Zm3.5518-9.432h3.168c.32 0 .608-.04.864-.12.256-.08.48-.216.672-.408.192-.208.336-.48.432-.816.112-.336.168-.768.168-1.296 0-.496-.056-.904-.168-1.224-.096-.336-.24-.592-.432-.768-.192-.192-.416-.32-.672-.384-.256-.08-.544-.12-.864-.12h-3.168v5.136ZM15.3063 39.392l5.5677-17.76h4.488l5.5683 17.76h-3.696l-1.1281-3.72h-6.048l-1.1039 3.72h-3.648Zm5.5919-6.912h4.368l-2.1842-7.8-2.1838 7.8ZM32.3952 39.392l-.0002-13.704c0-.784.1199-1.44.3599-1.968s.56-.944.96-1.248c.4-.304.84-.52 1.32-.648.48-.128.952-.192 1.416-.192.576 0 1.288.008 2.136.024.864 0 1.776.024 2.736.072.976.048 1.912.12 2.808.216l.0001 2.976h-6.696c-.496 0-.872.136-1.128.408-.24.256-.36.6-.36 1.032v3.024l7.032.192.0001 2.808-7.032.192.0001 6.816h-3.552ZM46.153 39.392l-.0002-13.704c0-.784.12-1.44.36-1.968.2399-.528.5599-.944.9599-1.248.4-.304.84-.52 1.32-.648.48-.128.952-.192 1.416-.192.576 0 1.288.008 2.136.024.864 0 1.776.024 2.736.072.976.048 1.912.12 2.808.216l.0001 2.976h-6.696c-.496 0-.872.136-1.128.408-.24.256-.36.6-.36 1.032l.0001 3.024 7.032.192v2.808l-7.032.192.0001 6.816h-3.552ZM60.1452 39.392l-.0003-17.76h3.552l.0003 17.76h-3.552ZM72.754 39.536c-1.04 0-1.96-.12-2.76-.36-.784-.24-1.456-.68-2.016-1.32-.544-.64-.96-1.552-1.248-2.736-.2721-1.2-.4081-2.752-.4081-4.656-.0001-1.84.1439-3.344.4319-4.512.304-1.184.736-2.096 1.2959-2.736.56-.656 1.24-1.112 2.04-1.368s1.704-.384 2.712-.384c.8 0 1.544.048 2.232.144.704.08 1.336.184 1.896.312.56.112 1.032.24 1.416.384l.0001 2.76c-.288-.064-.68-.128-1.176-.192-.48-.064-1.032-.112-1.656-.144-.624-.048-1.28-.072-1.968-.072-.672 0-1.248.08-1.728.24-.464.144-.84.424-1.128.84-.272.4-.48.984-.624 1.752-.128.768-.1919 1.768-.1919 3 0 1.184.056 2.16.168 2.928.1281.768.3281 1.368.6001 1.8.272.416.64.712 1.104.888.48.16 1.08.24 1.8.24 1.216 0 2.2-.024 2.952-.072.768-.048 1.384-.104 1.848-.168v2.736c-.4319.144-.928.272-1.488.384-.56.096-1.176.168-1.8479.216-.672.064-1.4241.096-2.2561.096Z" mask="url(#b)"/><path fill="#fff" d="m123.002 39-4.248-17.76h3.672l2.856 12.528 3.336-12.528h3.264l3.312 12.528 2.856-12.528h3.672L137.474 39h-3.624l-3.6-12.528L126.626 39h-3.624Zm24.38.12c-.384 0-.824-.04-1.32-.12-.496-.064-.976-.224-1.44-.48-.448-.256-.824-.64-1.128-1.152-.288-.528-.432-1.248-.432-2.16l-.001-9.912c0-.784.12-1.44.36-1.968s.56-.944.96-1.248c.4-.304.84-.52 1.32-.648.48-.128.952-.192 1.416-.192 1.2 0 2.256.016 3.168.048.928.032 1.76.072 2.496.12.736.032 1.408.08 2.016.144v2.976h-6.624c-.496 0-.88.12-1.152.36-.272.24-.408.608-.408 1.104l.001 2.568 7.032.192v2.808l-7.032.192V34.2c0 .416.064.744.192.984.144.224.328.384.552.48.24.08.488.12.744.12h6.696v2.976c-.704.08-1.488.144-2.352.192-.848.048-1.712.088-2.592.12-.864.032-1.688.048-2.472.048ZM163.57 39l-.001-17.76h6.984c1.76 0 3.04.408 3.84 1.224.816.8 1.224 1.944 1.224 3.432 0 .704-.104 1.328-.312 1.872-.192.528-.472.968-.84 1.32-.368.336-.808.568-1.32.696.384.096.752.248 1.104.456.368.208.696.488.984.84.304.352.536.784.696 1.296.176.496.264 1.072.264 1.728 0 1.2-.208 2.16-.624 2.88-.4.72-1 1.24-1.8 1.56-.783.304-1.751.456-2.903.456h-7.296Zm3.551-3.192h3.648c.416 0 .776-.08 1.08-.24.304-.16.536-.408.696-.744.176-.336.264-.784.264-1.344 0-.464-.088-.856-.264-1.176-.176-.32-.416-.568-.72-.744-.304-.176-.656-.264-1.056-.264h-3.648v4.512Zm0-7.248h3.456c.512 0 .912-.184 1.2-.552.304-.384.456-.88.456-1.488.016-.784-.144-1.328-.48-1.632-.336-.304-.744-.456-1.224-.456h-3.408v4.128Zm18.191 10.56c-.976 0-1.888-.08-2.736-.24-.848-.176-1.592-.472-2.232-.888-.624-.432-1.112-1.024-1.464-1.776-.336-.768-.504-1.744-.504-2.928V21.24h3.552v12.024c0 .656.128 1.176.384 1.56.272.384.656.664 1.152.84.512.176 1.128.264 1.848.264.704 0 1.304-.088 1.8-.264.512-.176.896-.456 1.152-.84.272-.384.408-.904.408-1.56V21.24h3.576v12.048c0 1.184-.176 2.16-.528 2.928-.352.752-.84 1.344-1.464 1.776-.624.416-1.36.712-2.208.888-.832.16-1.744.24-2.736.24Zm13.982-.12-.001-5.376-5.352-12.384h3.696l3.504 8.76 3.48-8.76h3.552l-5.328 12.384.001 5.376h-3.552Zm20.753 0V24.432h-4.872V21.24h13.32v3.192h-4.896V39h-3.552Zm10.366 0V21.24h7.344c.704 0 1.36.088 1.968.264.608.16 1.144.448 1.608.864.464.416.824.992 1.08 1.728.272.736.408 1.68.408 2.832 0 .816-.08 1.512-.24 2.088-.16.576-.376 1.048-.648 1.416-.256.368-.552.664-.888.888-.336.224-.68.408-1.032.552L243.325 39h-3.624l-2.856-6.576h-.672c-.24-.016-.488-.024-.744-.024h-.768c-.256 0-.488-.008-.696-.024V39h-3.552Zm3.552-9.432h3.168c.32 0 .608-.04.864-.12.256-.08.48-.216.672-.408.192-.208.336-.48.432-.816.112-.336.168-.768.168-1.296 0-.496-.056-.904-.168-1.224-.096-.336-.24-.592-.432-.768-.192-.192-.416-.32-.672-.384-.256-.08-.544-.12-.864-.12h-3.168v5.136ZM244.332 39l5.568-17.76h4.488L259.956 39h-3.696l-1.128-3.72h-6.048L247.98 39h-3.648Zm5.592-6.912h4.368l-2.184-7.8-2.184 7.8ZM261.421 39V25.296c0-.784.12-1.44.36-1.968s.56-.944.96-1.248c.4-.304.84-.52 1.32-.648.48-.128.952-.192 1.416-.192.576 0 1.288.008 2.136.024.864 0 1.776.024 2.736.072.976.048 1.912.12 2.808.216v2.976h-6.696c-.496 0-.872.136-1.128.408-.24.256-.36.6-.36 1.032v3.024l7.032.192v2.808l-7.032.192V39h-3.552Zm13.758 0V25.296c0-.784.12-1.44.36-1.968s.56-.944.96-1.248c.4-.304.84-.52 1.32-.648.48-.128.952-.192 1.416-.192.576 0 1.288.008 2.136.024.864 0 1.776.024 2.736.072.976.048 1.912.12 2.808.216v2.976h-6.696c-.496 0-.872.136-1.128.408-.24.256-.36.6-.36 1.032v3.024l7.032.192v2.808l-7.032.192V39h-3.552Zm13.992 0V21.24h3.552V39h-3.552Zm12.609.144c-1.04 0-1.96-.12-2.76-.36-.784-.24-1.456-.68-2.016-1.32-.544-.64-.96-1.552-1.248-2.736-.272-1.2-.408-2.752-.408-4.656 0-1.84.144-3.344.432-4.512.304-1.184.736-2.096 1.296-2.736.56-.656 1.24-1.112 2.04-1.368s1.704-.384 2.712-.384c.8 0 1.544.048 2.232.144.704.08 1.336.184 1.896.312.56.112 1.032.24 1.416.384v2.76c-.288-.064-.68-.128-1.176-.192-.48-.064-1.032-.112-1.656-.144-.624-.048-1.28-.072-1.968-.072-.672 0-1.248.08-1.728.24-.464.144-.84.424-1.128.84-.272.4-.48.984-.624 1.752-.128.768-.192 1.768-.192 3 0 1.184.056 2.16.168 2.928.128.768.328 1.368.6 1.8.272.416.64.712 1.104.888.48.16 1.08.24 1.8.24 1.216 0 2.2-.024 2.952-.072.768-.048 1.384-.104 1.848-.168v2.736c-.432.144-.928.272-1.488.384-.56.096-1.176.168-1.848.216-.672.064-1.424.096-2.256.096Z"/><mask id="c" width="193" height="23" x="346.346" y="18.464" fill="#000" maskUnits="userSpaceOnUse"><path fill="#fff" d="M346.346 18.464h193v23h-193z"/><path d="m352.594 39.392-4.248-17.76h3.672l2.856 12.528 3.336-12.528h3.264l3.312 12.528 2.856-12.528h3.672l-4.248 17.76h-3.624l-3.6-12.528-3.624 12.528h-3.624ZM376.974 39.512c-.384 0-.824-.04-1.32-.12-.496-.064-.976-.224-1.44-.48-.448-.256-.824-.64-1.128-1.152-.288-.528-.432-1.248-.432-2.16l-.001-9.912c0-.784.12-1.44.36-1.968s.56-.944.96-1.248c.4-.304.84-.52 1.32-.648.48-.128.952-.192 1.416-.192 1.2 0 2.256.016 3.168.048.928.032 1.76.072 2.496.12.736.032 1.408.08 2.016.144v2.976h-6.624c-.496 0-.88.12-1.152.36-.272.24-.408.608-.408 1.104l.001 2.568 7.032.192v2.808l-7.032.192v2.448c0 .416.064.744.192.984.144.224.328.384.552.48.24.08.488.12.744.12h6.696v2.976c-.704.08-1.488.144-2.352.192-.848.048-1.712.088-2.592.12-.864.032-1.688.048-2.472.048ZM393.162 39.392l-.001-17.76h6.984c1.76 0 3.04.408 3.84 1.224.816.8 1.224 1.944 1.224 3.432 0 .704-.104 1.328-.312 1.872-.192.528-.472.968-.84 1.32-.368.336-.808.568-1.32.696.384.096.752.248 1.104.456.368.208.696.488.984.84.304.352.536.784.696 1.296.176.496.264 1.072.264 1.728 0 1.2-.208 2.16-.624 2.88-.4.72-.999 1.24-1.799 1.56-.784.304-1.752.456-2.904.456h-7.296Zm3.551-3.192h3.648c.416 0 .776-.08 1.08-.24.304-.16.536-.408.696-.744.176-.336.264-.784.264-1.344 0-.464-.088-.856-.264-1.176-.176-.32-.416-.568-.72-.744-.304-.176-.656-.264-1.056-.264h-3.648V36.2Zm0-7.248h3.456c.512 0 .912-.184 1.2-.552.304-.384.456-.88.456-1.488.016-.784-.144-1.328-.48-1.632-.336-.304-.744-.456-1.224-.456h-3.408v4.128ZM414.904 39.512c-.976 0-1.888-.08-2.736-.24-.848-.176-1.592-.472-2.232-.888-.624-.432-1.112-1.024-1.464-1.776-.336-.768-.504-1.744-.504-2.928V21.632h3.552v12.024c0 .656.128 1.176.384 1.56.272.384.656.664 1.152.84.512.176 1.128.264 1.848.264.704 0 1.304-.088 1.8-.264.512-.176.896-.456 1.152-.84.272-.384.408-.904.408-1.56V21.632h3.576V33.68c0 1.184-.176 2.16-.528 2.928-.352.752-.84 1.344-1.464 1.776-.624.416-1.36.712-2.208.888-.832.16-1.744.24-2.736.24ZM428.886 39.392l-.001-5.376-5.352-12.384h3.696l3.504 8.76 3.48-8.76h3.552l-5.328 12.384.001 5.376h-3.552ZM449.639 39.392V24.824h-4.872v-3.192h13.32v3.192h-4.896v14.568h-3.552ZM460.005 39.392v-17.76h7.344c.704 0 1.36.088 1.968.264.608.16 1.144.448 1.608.864.464.416.824.992 1.08 1.728.272.736.408 1.68.408 2.832 0 .816-.08 1.512-.24 2.088-.16.576-.376 1.048-.648 1.416-.256.368-.552.664-.888.888-.336.224-.68.408-1.032.552l3.312 7.128h-3.624l-2.856-6.576h-.672c-.24-.016-.488-.024-.744-.024h-.768c-.256 0-.488-.008-.696-.024v6.624h-3.552Zm3.552-9.432h3.168c.32 0 .608-.04.864-.12.256-.08.48-.216.672-.408.192-.208.336-.48.432-.816.112-.336.168-.768.168-1.296 0-.496-.056-.904-.168-1.224-.096-.336-.24-.592-.432-.768-.192-.192-.416-.32-.672-.384-.256-.08-.544-.12-.864-.12h-3.168v5.136ZM473.924 39.392l5.568-17.76h4.488l5.568 17.76h-3.696l-1.128-3.72h-6.048l-1.104 3.72h-3.648Zm5.592-6.912h4.368l-2.184-7.8-2.184 7.8ZM491.013 39.392V25.688c0-.784.12-1.44.36-1.968s.56-.944.96-1.248c.4-.304.84-.52 1.32-.648.48-.128.952-.192 1.416-.192.576 0 1.288.008 2.136.024.864 0 1.776.024 2.736.072.976.048 1.912.12 2.808.216v2.976h-6.696c-.496 0-.872.136-1.128.408-.24.256-.36.6-.36 1.032v3.024l7.032.192v2.808l-7.032.192v6.816h-3.552ZM504.771 39.392V25.688c0-.784.12-1.44.36-1.968s.56-.944.96-1.248c.4-.304.84-.52 1.32-.648.48-.128.952-.192 1.416-.192.576 0 1.288.008 2.136.024.864 0 1.776.024 2.736.072.976.048 1.912.12 2.808.216v2.976h-6.696c-.496 0-.872.136-1.128.408-.24.256-.36.6-.36 1.032v3.024l7.032.192v2.808l-7.032.192v6.816h-3.552ZM518.763 39.392v-17.76h3.552v17.76h-3.552ZM531.372 39.536c-1.04 0-1.96-.12-2.76-.36-.784-.24-1.456-.68-2.016-1.32-.544-.64-.96-1.552-1.248-2.736-.272-1.2-.408-2.752-.408-4.656 0-1.84.144-3.344.432-4.512.304-1.184.736-2.096 1.296-2.736.56-.656 1.24-1.112 2.04-1.368s1.704-.384 2.712-.384c.8 0 1.544.048 2.232.144.704.08 1.336.184 1.896.312.56.112 1.032.24 1.416.384v2.76c-.288-.064-.68-.128-1.176-.192-.48-.064-1.032-.112-1.656-.144-.624-.048-1.28-.072-1.968-.072-.672 0-1.248.08-1.728.24-.464.144-.84.424-1.128.84-.272.4-.48.984-.624 1.752-.128.768-.192 1.768-.192 3 0 1.184.056 2.16.168 2.928.128.768.328 1.368.6 1.8.272.416.64.712 1.104.888.48.16 1.08.24 1.8.24 1.216 0 2.2-.024 2.952-.072.768-.048 1.384-.104 1.848-.168v2.736c-.432.144-.928.272-1.488.384-.56.096-1.176.168-1.848.216-.672.064-1.424.096-2.256.096Z"/></mask><path stroke="#fff" stroke-width="3" d="m352.594 39.392-4.248-17.76h3.672l2.856 12.528 3.336-12.528h3.264l3.312 12.528 2.856-12.528h3.672l-4.248 17.76h-3.624l-3.6-12.528-3.624 12.528h-3.624ZM376.974 39.512c-.384 0-.824-.04-1.32-.12-.496-.064-.976-.224-1.44-.48-.448-.256-.824-.64-1.128-1.152-.288-.528-.432-1.248-.432-2.16l-.001-9.912c0-.784.12-1.44.36-1.968s.56-.944.96-1.248c.4-.304.84-.52 1.32-.648.48-.128.952-.192 1.416-.192 1.2 0 2.256.016 3.168.048.928.032 1.76.072 2.496.12.736.032 1.408.08 2.016.144v2.976h-6.624c-.496 0-.88.12-1.152.36-.272.24-.408.608-.408 1.104l.001 2.568 7.032.192v2.808l-7.032.192v2.448c0 .416.064.744.192.984.144.224.328.384.552.48.24.08.488.12.744.12h6.696v2.976c-.704.08-1.488.144-2.352.192-.848.048-1.712.088-2.592.12-.864.032-1.688.048-2.472.048ZM393.162 39.392l-.001-17.76h6.984c1.76 0 3.04.408 3.84 1.224.816.8 1.224 1.944 1.224 3.432 0 .704-.104 1.328-.312 1.872-.192.528-.472.968-.84 1.32-.368.336-.808.568-1.32.696.384.096.752.248 1.104.456.368.208.696.488.984.84.304.352.536.784.696 1.296.176.496.264 1.072.264 1.728 0 1.2-.208 2.16-.624 2.88-.4.72-.999 1.24-1.799 1.56-.784.304-1.752.456-2.904.456h-7.296Zm3.551-3.192h3.648c.416 0 .776-.08 1.08-.24.304-.16.536-.408.696-.744.176-.336.264-.784.264-1.344 0-.464-.088-.856-.264-1.176-.176-.32-.416-.568-.72-.744-.304-.176-.656-.264-1.056-.264h-3.648V36.2Zm0-7.248h3.456c.512 0 .912-.184 1.2-.552.304-.384.456-.88.456-1.488.016-.784-.144-1.328-.48-1.632-.336-.304-.744-.456-1.224-.456h-3.408v4.128ZM414.904 39.512c-.976 0-1.888-.08-2.736-.24-.848-.176-1.592-.472-2.232-.888-.624-.432-1.112-1.024-1.464-1.776-.336-.768-.504-1.744-.504-2.928V21.632h3.552v12.024c0 .656.128 1.176.384 1.56.272.384.656.664 1.152.84.512.176 1.128.264 1.848.264.704 0 1.304-.088 1.8-.264.512-.176.896-.456 1.152-.84.272-.384.408-.904.408-1.56V21.632h3.576V33.68c0 1.184-.176 2.16-.528 2.928-.352.752-.84 1.344-1.464 1.776-.624.416-1.36.712-2.208.888-.832.16-1.744.24-2.736.24ZM428.886 39.392l-.001-5.376-5.352-12.384h3.696l3.504 8.76 3.48-8.76h3.552l-5.328 12.384.001 5.376h-3.552ZM449.639 39.392V24.824h-4.872v-3.192h13.32v3.192h-4.896v14.568h-3.552ZM460.005 39.392v-17.76h7.344c.704 0 1.36.088 1.968.264.608.16 1.144.448 1.608.864.464.416.824.992 1.08 1.728.272.736.408 1.68.408 2.832 0 .816-.08 1.512-.24 2.088-.16.576-.376 1.048-.648 1.416-.256.368-.552.664-.888.888-.336.224-.68.408-1.032.552l3.312 7.128h-3.624l-2.856-6.576h-.672c-.24-.016-.488-.024-.744-.024h-.768c-.256 0-.488-.008-.696-.024v6.624h-3.552Zm3.552-9.432h3.168c.32 0 .608-.04.864-.12.256-.08.48-.216.672-.408.192-.208.336-.48.432-.816.112-.336.168-.768.168-1.296 0-.496-.056-.904-.168-1.224-.096-.336-.24-.592-.432-.768-.192-.192-.416-.32-.672-.384-.256-.08-.544-.12-.864-.12h-3.168v5.136ZM473.924 39.392l5.568-17.76h4.488l5.568 17.76h-3.696l-1.128-3.72h-6.048l-1.104 3.72h-3.648Zm5.592-6.912h4.368l-2.184-7.8-2.184 7.8ZM491.013 39.392V25.688c0-.784.12-1.44.36-1.968s.56-.944.96-1.248c.4-.304.84-.52 1.32-.648.48-.128.952-.192 1.416-.192.576 0 1.288.008 2.136.024.864 0 1.776.024 2.736.072.976.048 1.912.12 2.808.216v2.976h-6.696c-.496 0-.872.136-1.128.408-.24.256-.36.6-.36 1.032v3.024l7.032.192v2.808l-7.032.192v6.816h-3.552ZM504.771 39.392V25.688c0-.784.12-1.44.36-1.968s.56-.944.96-1.248c.4-.304.84-.52 1.32-.648.48-.128.952-.192 1.416-.192.576 0 1.288.008 2.136.024.864 0 1.776.024 2.736.072.976.048 1.912.12 2.808.216v2.976h-6.696c-.496 0-.872.136-1.128.408-.24.256-.36.6-.36 1.032v3.024l7.032.192v2.808l-7.032.192v6.816h-3.552ZM518.763 39.392v-17.76h3.552v17.76h-3.552ZM531.372 39.536c-1.04 0-1.96-.12-2.76-.36-.784-.24-1.456-.68-2.016-1.32-.544-.64-.96-1.552-1.248-2.736-.272-1.2-.408-2.752-.408-4.656 0-1.84.144-3.344.432-4.512.304-1.184.736-2.096 1.296-2.736.56-.656 1.24-1.112 2.04-1.368s1.704-.384 2.712-.384c.8 0 1.544.048 2.232.144.704.08 1.336.184 1.896.312.56.112 1.032.24 1.416.384v2.76c-.288-.064-.68-.128-1.176-.192-.48-.064-1.032-.112-1.656-.144-.624-.048-1.28-.072-1.968-.072-.672 0-1.248.08-1.728.24-.464.144-.84.424-1.128.84-.272.4-.48.984-.624 1.752-.128.768-.192 1.768-.192 3 0 1.184.056 2.16.168 2.928.128.768.328 1.368.6 1.8.272.416.64.712 1.104.888.48.16 1.08.24 1.8.24 1.216 0 2.2-.024 2.952-.072.768-.048 1.384-.104 1.848-.168v2.736c-.432.144-.928.272-1.488.384-.56.096-1.176.168-1.848.216-.672.064-1.424.096-2.256.096Z" mask="url(#c)"/><path fill="#fff" d="m581.62 39-4.248-17.76h3.672l2.856 12.528 3.336-12.528h3.264l3.312 12.528 2.856-12.528h3.672L596.092 39h-3.624l-3.6-12.528L585.244 39h-3.624Zm24.38.12c-.384 0-.824-.04-1.32-.12-.496-.064-.976-.224-1.44-.48-.448-.256-.824-.64-1.128-1.152-.288-.528-.432-1.248-.432-2.16l-.001-9.912c0-.784.12-1.44.36-1.968s.56-.944.96-1.248c.4-.304.84-.52 1.32-.648.48-.128.952-.192 1.416-.192 1.2 0 2.256.016 3.168.048.928.032 1.76.072 2.496.12.736.032 1.408.08 2.016.144v2.976h-6.624c-.496 0-.88.12-1.152.36-.272.24-.408.608-.408 1.104v2.568l7.032.192v2.808l-7.032.192.001 2.448c0 .416.064.744.192.984.144.224.328.384.552.48.24.08.488.12.744.12h6.696v2.976c-.704.08-1.488.144-2.352.192-.848.048-1.712.088-2.592.12-.864.032-1.688.048-2.472.048Zm16.187-.12V21.24h6.984c1.76 0 3.04.408 3.84 1.224.816.8 1.224 1.944 1.224 3.432 0 .704-.104 1.328-.312 1.872-.192.528-.472.968-.84 1.32-.368.336-.808.568-1.32.696.384.096.752.248 1.104.456.368.208.696.488.984.84.304.352.536.784.696 1.296.176.496.264 1.072.264 1.728 0 1.2-.208 2.16-.624 2.88-.4.72-1 1.24-1.8 1.56-.784.304-1.752.456-2.904.456h-7.296Zm3.552-3.192h3.648c.416 0 .776-.08 1.08-.24.304-.16.536-.408.696-.744.176-.336.264-.784.264-1.344 0-.464-.088-.856-.264-1.176-.176-.32-.416-.568-.72-.744-.304-.176-.656-.264-1.056-.264h-3.648v4.512Zm0-7.248h3.456c.512 0 .912-.184 1.2-.552.304-.384.456-.88.456-1.488.016-.784-.144-1.328-.48-1.632-.336-.304-.744-.456-1.224-.456h-3.408v4.128Zm18.191 10.56c-.976 0-1.888-.08-2.736-.24-.848-.176-1.592-.472-2.232-.888-.624-.432-1.112-1.024-1.464-1.776-.336-.768-.504-1.744-.504-2.928V21.24h3.552v12.024c0 .656.128 1.176.384 1.56.272.384.656.664 1.152.84.512.176 1.128.264 1.848.264.704 0 1.304-.088 1.8-.264.512-.176.896-.456 1.152-.84.272-.384.408-.904.408-1.56V21.24h3.576v12.048c0 1.184-.176 2.16-.528 2.928-.352.752-.84 1.344-1.464 1.776-.624.416-1.36.712-2.208.888-.832.16-1.744.24-2.736.24Zm13.981-.12v-5.376l-5.352-12.384h3.696l3.504 8.76 3.48-8.76h3.552l-5.328 12.384V39h-3.552Zm20.754 0V24.432h-4.872V21.24h13.32v3.192h-4.896V39h-3.552Zm10.366 0V21.24h7.344c.704 0 1.36.088 1.968.264.608.16 1.144.448 1.608.864.464.416.824.992 1.08 1.728.272.736.408 1.68.408 2.832 0 .816-.08 1.512-.24 2.088-.16.576-.376 1.048-.648 1.416-.256.368-.552.664-.888.888-.336.224-.68.408-1.032.552L701.943 39h-3.624l-2.856-6.576h-.672c-.24-.016-.488-.024-.744-.024h-.768c-.256 0-.488-.008-.696-.024V39h-3.552Zm3.552-9.432h3.168c.32 0 .608-.04.864-.12.256-.08.48-.216.672-.408.192-.208.336-.48.432-.816.112-.336.168-.768.168-1.296 0-.496-.056-.904-.168-1.224-.096-.336-.24-.592-.432-.768-.192-.192-.416-.32-.672-.384-.256-.08-.544-.12-.864-.12h-3.168v5.136ZM702.95 39l5.568-17.76h4.488L718.574 39h-3.696l-1.128-3.72h-6.048L706.598 39h-3.648Zm5.592-6.912h4.368l-2.184-7.8-2.184 7.8ZM720.039 39V25.296c0-.784.12-1.44.36-1.968s.56-.944.96-1.248c.4-.304.84-.52 1.32-.648.48-.128.952-.192 1.416-.192.576 0 1.288.008 2.136.024.864 0 1.776.024 2.736.072.976.048 1.912.12 2.808.216v2.976h-6.696c-.496 0-.872.136-1.128.408-.24.256-.36.6-.36 1.032v3.024l7.032.192v2.808l-7.032.192V39h-3.552Zm13.758 0V25.296c0-.784.12-1.44.36-1.968s.559-.944.959-1.248c.4-.304.84-.52 1.32-.648.48-.128.952-.192 1.416-.192.576 0 1.288.008 2.136.024.864 0 1.776.024 2.736.072.976.048 1.912.12 2.808.216l.001 2.976h-6.696c-.496 0-.872.136-1.128.408-.24.256-.36.6-.36 1.032v3.024l7.032.192v2.808l-7.032.192V39h-3.552Zm13.992 0V21.24h3.552V39h-3.552Zm12.609.144c-1.04 0-1.96-.12-2.76-.36-.784-.24-1.456-.68-2.016-1.32-.544-.64-.96-1.552-1.248-2.736-.272-1.2-.408-2.752-.408-4.656 0-1.84.144-3.344.432-4.512.304-1.184.736-2.096 1.296-2.736.559-.656 1.239-1.112 2.039-1.368s1.704-.384 2.712-.384c.8 0 1.544.048 2.232.144.704.08 1.336.184 1.896.312.56.112 1.032.24 1.416.384l.001 2.76c-.288-.064-.68-.128-1.176-.192-.48-.064-1.032-.112-1.656-.144-.624-.048-1.28-.072-1.968-.072-.672 0-1.248.08-1.728.24-.464.144-.84.424-1.128.84-.272.4-.48.984-.624 1.752-.128.768-.192 1.768-.192 3 0 1.184.056 2.16.168 2.928.128.768.328 1.368.6 1.8.272.416.64.712 1.104.888.48.16 1.08.24 1.8.24 1.216 0 2.2-.024 2.952-.072.768-.048 1.384-.104 1.848-.168v2.736c-.432.144-.928.272-1.488.384-.56.096-1.176.168-1.848.216-.672.064-1.424.096-2.256.096Z"/><mask id="d" width="193" height="23" x="804.964" y="18.464" fill="#000" maskUnits="userSpaceOnUse"><path fill="#fff" d="M804.964 18.464h193v23h-193z"/><path d="m811.212 39.392-4.248-17.76h3.672l2.856 12.528 3.336-12.528h3.264l3.312 12.528 2.856-12.528h3.672l-4.248 17.76h-3.624l-3.6-12.528-3.624 12.528h-3.624ZM835.592 39.512c-.384 0-.824-.04-1.32-.12-.496-.064-.976-.224-1.44-.48-.448-.256-.824-.64-1.128-1.152-.288-.528-.432-1.248-.432-2.16l-.001-9.912c0-.784.12-1.44.36-1.968s.56-.944.96-1.248c.4-.304.84-.52 1.32-.648.48-.128.952-.192 1.416-.192 1.2 0 2.256.016 3.168.048.928.032 1.76.072 2.496.12.736.032 1.408.08 2.016.144v2.976h-6.624c-.496 0-.88.12-1.152.36-.272.24-.408.608-.408 1.104v2.568l7.032.192v2.808l-7.032.192.001 2.448c0 .416.064.744.192.984.144.224.328.384.552.48.24.08.488.12.744.12h6.696v2.976c-.704.08-1.488.144-2.352.192-.848.048-1.712.088-2.592.12-.864.032-1.688.048-2.472.048ZM851.779 39.392v-17.76h6.984c1.76 0 3.04.408 3.84 1.224.816.8 1.224 1.944 1.224 3.432 0 .704-.104 1.328-.312 1.872-.192.528-.472.968-.84 1.32-.368.336-.808.568-1.32.696.384.096.752.248 1.104.456.368.208.696.488.984.84.304.352.536.784.696 1.296.176.496.264 1.072.264 1.728 0 1.2-.208 2.16-.624 2.88-.4.72-1 1.24-1.8 1.56-.784.304-1.752.456-2.904.456h-7.296Zm3.552-3.192h3.648c.416 0 .776-.08 1.08-.24.304-.16.536-.408.696-.744.176-.336.264-.784.264-1.344 0-.464-.088-.856-.264-1.176-.176-.32-.416-.568-.72-.744-.304-.176-.656-.264-1.056-.264h-3.648V36.2Zm0-7.248h3.456c.512 0 .912-.184 1.2-.552.304-.384.456-.88.456-1.488.016-.784-.144-1.328-.48-1.632-.336-.304-.744-.456-1.224-.456h-3.408v4.128ZM873.522 39.512c-.976 0-1.888-.08-2.736-.24-.848-.176-1.592-.472-2.232-.888-.624-.432-1.112-1.024-1.464-1.776-.336-.768-.504-1.744-.504-2.928V21.632h3.552v12.024c0 .656.128 1.176.384 1.56.272.384.656.664 1.152.84.512.176 1.128.264 1.848.264.704 0 1.304-.088 1.8-.264.512-.176.896-.456 1.152-.84.272-.384.408-.904.408-1.56V21.632h3.576V33.68c0 1.184-.176 2.16-.528 2.928-.352.752-.84 1.344-1.464 1.776-.624.416-1.36.712-2.208.888-.832.16-1.744.24-2.736.24ZM887.503 39.392v-5.376l-5.352-12.384h3.696l3.504 8.76 3.48-8.76h3.552l-5.328 12.384v5.376h-3.552ZM908.257 39.392V24.824h-4.872v-3.192h13.32v3.192h-4.896v14.568h-3.552ZM918.623 39.392v-17.76h7.344c.704 0 1.36.088 1.968.264.608.16 1.144.448 1.608.864.464.416.824.992 1.08 1.728.272.736.408 1.68.408 2.832 0 .816-.08 1.512-.24 2.088-.16.576-.376 1.048-.648 1.416-.256.368-.552.664-.888.888-.336.224-.68.408-1.032.552l3.312 7.128h-3.624l-2.856-6.576h-.672c-.24-.016-.488-.024-.744-.024h-.768c-.256 0-.488-.008-.696-.024v6.624h-3.552Zm3.552-9.432h3.168c.32 0 .608-.04.864-.12.256-.08.48-.216.672-.408.192-.208.336-.48.432-.816.112-.336.168-.768.168-1.296 0-.496-.056-.904-.168-1.224-.096-.336-.24-.592-.432-.768-.192-.192-.416-.32-.672-.384-.256-.08-.544-.12-.864-.12h-3.168v5.136ZM932.542 39.392l5.568-17.76h4.488l5.568 17.76h-3.696l-1.128-3.72h-6.048l-1.104 3.72h-3.648Zm5.592-6.912h4.368l-2.184-7.8-2.184 7.8ZM949.631 39.392V25.688c0-.784.12-1.44.36-1.968s.56-.944.96-1.248c.4-.304.84-.52 1.32-.648.48-.128.952-.192 1.416-.192.576 0 1.288.008 2.136.024.864 0 1.776.024 2.736.072.976.048 1.912.12 2.808.216v2.976h-6.696c-.496 0-.872.136-1.128.408-.24.256-.36.6-.36 1.032v3.024l7.032.192v2.808l-7.032.192v6.816h-3.552ZM963.389 39.392V25.688c0-.784.12-1.44.36-1.968s.56-.944.959-1.248c.4-.304.84-.52 1.32-.648.48-.128.952-.192 1.416-.192.576 0 1.288.008 2.136.024.864 0 1.776.024 2.736.072.976.048 1.912.12 2.808.216l.001 2.976h-6.696c-.496 0-.872.136-1.128.408-.24.256-.36.6-.36 1.032v3.024l7.032.192v2.808l-7.032.192v6.816h-3.552ZM977.381 39.392v-17.76h3.552v17.76h-3.552ZM989.99 39.536c-1.04 0-1.96-.12-2.76-.36-.784-.24-1.456-.68-2.016-1.32-.544-.64-.96-1.552-1.248-2.736-.272-1.2-.408-2.752-.408-4.656 0-1.84.144-3.344.432-4.512.304-1.184.736-2.096 1.296-2.736.559-.656 1.239-1.112 2.039-1.368s1.704-.384 2.712-.384c.8 0 1.544.048 2.232.144.704.08 1.336.184 1.896.312.56.112 1.032.24 1.416.384l.001 2.76c-.288-.064-.68-.128-1.176-.192-.48-.064-1.032-.112-1.656-.144-.624-.048-1.28-.072-1.968-.072-.672 0-1.248.08-1.728.24-.464.144-.84.424-1.128.84-.272.4-.48.984-.624 1.752-.128.768-.192 1.768-.192 3 0 1.184.056 2.16.168 2.928.128.768.328 1.368.6 1.8.272.416.64.712 1.104.888.48.16 1.08.24 1.8.24 1.216 0 2.2-.024 2.952-.072.768-.048 1.384-.104 1.848-.168v2.736c-.432.144-.928.272-1.488.384-.56.096-1.176.168-1.848.216-.672.064-1.424.096-2.256.096Z"/></mask><path stroke="#fff" stroke-width="3" d="m811.212 39.392-4.248-17.76h3.672l2.856 12.528 3.336-12.528h3.264l3.312 12.528 2.856-12.528h3.672l-4.248 17.76h-3.624l-3.6-12.528-3.624 12.528h-3.624ZM835.592 39.512c-.384 0-.824-.04-1.32-.12-.496-.064-.976-.224-1.44-.48-.448-.256-.824-.64-1.128-1.152-.288-.528-.432-1.248-.432-2.16l-.001-9.912c0-.784.12-1.44.36-1.968s.56-.944.96-1.248c.4-.304.84-.52 1.32-.648.48-.128.952-.192 1.416-.192 1.2 0 2.256.016 3.168.048.928.032 1.76.072 2.496.12.736.032 1.408.08 2.016.144v2.976h-6.624c-.496 0-.88.12-1.152.36-.272.24-.408.608-.408 1.104v2.568l7.032.192v2.808l-7.032.192.001 2.448c0 .416.064.744.192.984.144.224.328.384.552.48.24.08.488.12.744.12h6.696v2.976c-.704.08-1.488.144-2.352.192-.848.048-1.712.088-2.592.12-.864.032-1.688.048-2.472.048ZM851.779 39.392v-17.76h6.984c1.76 0 3.04.408 3.84 1.224.816.8 1.224 1.944 1.224 3.432 0 .704-.104 1.328-.312 1.872-.192.528-.472.968-.84 1.32-.368.336-.808.568-1.32.696.384.096.752.248 1.104.456.368.208.696.488.984.84.304.352.536.784.696 1.296.176.496.264 1.072.264 1.728 0 1.2-.208 2.16-.624 2.88-.4.72-1 1.24-1.8 1.56-.784.304-1.752.456-2.904.456h-7.296Zm3.552-3.192h3.648c.416 0 .776-.08 1.08-.24.304-.16.536-.408.696-.744.176-.336.264-.784.264-1.344 0-.464-.088-.856-.264-1.176-.176-.32-.416-.568-.72-.744-.304-.176-.656-.264-1.056-.264h-3.648V36.2Zm0-7.248h3.456c.512 0 .912-.184 1.2-.552.304-.384.456-.88.456-1.488.016-.784-.144-1.328-.48-1.632-.336-.304-.744-.456-1.224-.456h-3.408v4.128ZM873.522 39.512c-.976 0-1.888-.08-2.736-.24-.848-.176-1.592-.472-2.232-.888-.624-.432-1.112-1.024-1.464-1.776-.336-.768-.504-1.744-.504-2.928V21.632h3.552v12.024c0 .656.128 1.176.384 1.56.272.384.656.664 1.152.84.512.176 1.128.264 1.848.264.704 0 1.304-.088 1.8-.264.512-.176.896-.456 1.152-.84.272-.384.408-.904.408-1.56V21.632h3.576V33.68c0 1.184-.176 2.16-.528 2.928-.352.752-.84 1.344-1.464 1.776-.624.416-1.36.712-2.208.888-.832.16-1.744.24-2.736.24ZM887.503 39.392v-5.376l-5.352-12.384h3.696l3.504 8.76 3.48-8.76h3.552l-5.328 12.384v5.376h-3.552ZM908.257 39.392V24.824h-4.872v-3.192h13.32v3.192h-4.896v14.568h-3.552ZM918.623 39.392v-17.76h7.344c.704 0 1.36.088 1.968.264.608.16 1.144.448 1.608.864.464.416.824.992 1.08 1.728.272.736.408 1.68.408 2.832 0 .816-.08 1.512-.24 2.088-.16.576-.376 1.048-.648 1.416-.256.368-.552.664-.888.888-.336.224-.68.408-1.032.552l3.312 7.128h-3.624l-2.856-6.576h-.672c-.24-.016-.488-.024-.744-.024h-.768c-.256 0-.488-.008-.696-.024v6.624h-3.552Zm3.552-9.432h3.168c.32 0 .608-.04.864-.12.256-.08.48-.216.672-.408.192-.208.336-.48.432-.816.112-.336.168-.768.168-1.296 0-.496-.056-.904-.168-1.224-.096-.336-.24-.592-.432-.768-.192-.192-.416-.32-.672-.384-.256-.08-.544-.12-.864-.12h-3.168v5.136ZM932.542 39.392l5.568-17.76h4.488l5.568 17.76h-3.696l-1.128-3.72h-6.048l-1.104 3.72h-3.648Zm5.592-6.912h4.368l-2.184-7.8-2.184 7.8ZM949.631 39.392V25.688c0-.784.12-1.44.36-1.968s.56-.944.96-1.248c.4-.304.84-.52 1.32-.648.48-.128.952-.192 1.416-.192.576 0 1.288.008 2.136.024.864 0 1.776.024 2.736.072.976.048 1.912.12 2.808.216v2.976h-6.696c-.496 0-.872.136-1.128.408-.24.256-.36.6-.36 1.032v3.024l7.032.192v2.808l-7.032.192v6.816h-3.552ZM963.389 39.392V25.688c0-.784.12-1.44.36-1.968s.56-.944.959-1.248c.4-.304.84-.52 1.32-.648.48-.128.952-.192 1.416-.192.576 0 1.288.008 2.136.024.864 0 1.776.024 2.736.072.976.048 1.912.12 2.808.216l.001 2.976h-6.696c-.496 0-.872.136-1.128.408-.24.256-.36.6-.36 1.032v3.024l7.032.192v2.808l-7.032.192v6.816h-3.552ZM977.381 39.392v-17.76h3.552v17.76h-3.552ZM989.99 39.536c-1.04 0-1.96-.12-2.76-.36-.784-.24-1.456-.68-2.016-1.32-.544-.64-.96-1.552-1.248-2.736-.272-1.2-.408-2.752-.408-4.656 0-1.84.144-3.344.432-4.512.304-1.184.736-2.096 1.296-2.736.559-.656 1.239-1.112 2.039-1.368s1.704-.384 2.712-.384c.8 0 1.544.048 2.232.144.704.08 1.336.184 1.896.312.56.112 1.032.24 1.416.384l.001 2.76c-.288-.064-.68-.128-1.176-.192-.48-.064-1.032-.112-1.656-.144-.624-.048-1.28-.072-1.968-.072-.672 0-1.248.08-1.728.24-.464.144-.84.424-1.128.84-.272.4-.48.984-.624 1.752-.128.768-.192 1.768-.192 3 0 1.184.056 2.16.168 2.928.128.768.328 1.368.6 1.8.272.416.64.712 1.104.888.48.16 1.08.24 1.8.24 1.216 0 2.2-.024 2.952-.072.768-.048 1.384-.104 1.848-.168v2.736c-.432.144-.928.272-1.488.384-.56.096-1.176.168-1.848.216-.672.064-1.424.096-2.256.096Z" mask="url(#d)"/><path fill="#fff" d="m1040.24 39-4.25-17.76h3.67l2.86 12.528 3.33-12.528h3.27l3.31 12.528 2.86-12.528h3.67L1054.71 39h-3.62l-3.6-12.528L1043.86 39h-3.62Zm24.38.12c-.39 0-.83-.04-1.32-.12-.5-.064-.98-.224-1.44-.48-.45-.256-.83-.64-1.13-1.152-.29-.528-.43-1.248-.43-2.16v-9.912c0-.784.12-1.44.36-1.968s.56-.944.96-1.248c.4-.304.84-.52 1.32-.648.48-.128.95-.192 1.41-.192 1.2 0 2.26.016 3.17.048.93.032 1.76.072 2.5.12.73.032 1.41.08 2.01.144v2.976h-6.62c-.5 0-.88.12-1.15.36-.27.24-.41.608-.41 1.104v2.568l7.03.192v2.808l-7.03.192V34.2c0 .416.06.744.19.984.15.224.33.384.55.48.24.08.49.12.75.12h6.69v2.976c-.7.08-1.48.144-2.35.192-.85.048-1.71.088-2.59.12-.86.032-1.69.048-2.47.048Zm16.19-.12V21.24h6.98c1.76 0 3.04.408 3.84 1.224.82.8 1.22 1.944 1.22 3.432 0 .704-.1 1.328-.31 1.872-.19.528-.47.968-.84 1.32-.37.336-.81.568-1.32.696.39.096.75.248 1.11.456.36.208.69.488.98.84.3.352.54.784.7 1.296.17.496.26 1.072.26 1.728 0 1.2-.21 2.16-.62 2.88-.4.72-1 1.24-1.8 1.56-.79.304-1.76.456-2.91.456h-7.29Zm3.55-3.192h3.65c.41 0 .77-.08 1.08-.24.3-.16.53-.408.69-.744.18-.336.27-.784.27-1.344 0-.464-.09-.856-.27-1.176-.17-.32-.41-.568-.72-.744-.3-.176-.65-.264-1.05-.264h-3.65v4.512Zm0-7.248h3.45c.52 0 .92-.184 1.2-.552.31-.384.46-.88.46-1.488.02-.784-.14-1.328-.48-1.632-.34-.304-.74-.456-1.22-.456h-3.41v4.128Zm18.19 10.56c-.98 0-1.89-.08-2.74-.24-.85-.176-1.59-.472-2.23-.888-.62-.432-1.11-1.024-1.46-1.776-.34-.768-.51-1.744-.51-2.928V21.24h3.55v12.024c0 .656.13 1.176.39 1.56.27.384.65.664 1.15.84.51.176 1.13.264 1.85.264.7 0 1.3-.088 1.8-.264.51-.176.89-.456 1.15-.84.27-.384.41-.904.41-1.56V21.24h3.57v12.048c0 1.184-.17 2.16-.52 2.928-.36.752-.84 1.344-1.47 1.776-.62.416-1.36.712-2.21.888-.83.16-1.74.24-2.73.24Zm13.98-.12v-5.376l-5.35-12.384h3.69l3.51 8.76 3.48-8.76h3.55l-5.33 12.384V39h-3.55Zm20.75 0V24.432h-4.87V21.24h13.32v3.192h-4.9l.01 14.568h-3.56Zm10.37 0V21.24h7.34c.71 0 1.36.088 1.97.264.61.16 1.14.448 1.61.864.46.416.82.992 1.08 1.728.27.736.41 1.68.41 2.832 0 .816-.08 1.512-.24 2.088-.16.576-.38 1.048-.65 1.416-.26.368-.55.664-.89.888-.34.224-.68.408-1.03.552l3.31 7.128h-3.62l-2.86-6.576h-.67c-.24-.016-.49-.024-.75-.024h-.76c-.26 0-.49-.008-.7-.024V39h-3.55Zm3.55-9.432h3.17c.32 0 .61-.04.86-.12.26-.08.48-.216.67-.408.2-.208.34-.48.44-.816.11-.336.16-.768.16-1.296 0-.496-.05-.904-.16-1.224-.1-.336-.24-.592-.44-.768-.19-.192-.41-.32-.67-.384-.25-.08-.54-.12-.86-.12h-3.17v5.136ZM1161.57 39l5.57-17.76h4.48l5.57 17.76h-3.69l-1.13-3.72h-6.05l-1.1 3.72h-3.65Zm5.59-6.912h4.37l-2.19-7.8-2.18 7.8Zm11.5 6.912V25.296c0-.784.12-1.44.36-1.968s.56-.944.96-1.248c.4-.304.84-.52 1.32-.648.48-.128.95-.192 1.41-.192.58 0 1.29.008 2.14.024.86 0 1.77.024 2.73.072.98.048 1.92.12 2.81.216v2.976h-6.69c-.5 0-.88.136-1.13.408-.24.256-.36.6-.36 1.032v3.024l7.03.192v2.808l-7.03.192V39h-3.55Zm13.75 0V25.296c0-.784.12-1.44.36-1.968s.56-.944.96-1.248c.4-.304.84-.52 1.32-.648.48-.128.96-.192 1.42-.192.58 0 1.29.008 2.14.024.86 0 1.77.024 2.73.072.98.048 1.91.12 2.81.216v2.976h-6.7c-.49 0-.87.136-1.12.408-.24.256-.36.6-.36 1.032v3.024l7.03.192v2.808l-7.03.192V39h-3.56Zm14 0V21.24h3.55V39h-3.55Zm12.61.144c-1.04 0-1.96-.12-2.76-.36-.79-.24-1.46-.68-2.02-1.32-.54-.64-.96-1.552-1.25-2.736-.27-1.2-.41-2.752-.41-4.656 0-1.84.15-3.344.44-4.512.3-1.184.73-2.096 1.29-2.736.56-.656 1.24-1.112 2.04-1.368s1.71-.384 2.71-.384c.8 0 1.55.048 2.24.144.7.08 1.33.184 1.89.312.56.112 1.03.24 1.42.384v2.76c-.29-.064-.68-.128-1.18-.192-.48-.064-1.03-.112-1.65-.144-.63-.048-1.28-.072-1.97-.072-.67 0-1.25.08-1.73.24-.46.144-.84.424-1.13.84-.27.4-.48.984-.62 1.752-.13.768-.19 1.768-.19 3 0 1.184.05 2.16.16 2.928.13.768.33 1.368.6 1.8.28.416.64.712 1.11.888.48.16 1.08.24 1.8.24 1.21 0 2.2-.024 2.95-.072.77-.048 1.38-.104 1.85-.168v2.736c-.43.144-.93.272-1.49.384-.56.096-1.18.168-1.85.216-.67.064-1.42.096-2.25.096Z"/><mask id="e" width="193" height="23" x="1263.58" y="18.464" fill="#000" maskUnits="userSpaceOnUse"><path fill="#fff" d="M1263.58 18.464h193v23h-193z"/><path d="m1269.83 39.392-4.25-17.76h3.67l2.86 12.528 3.34-12.528h3.26l3.31 12.528 2.86-12.528h3.67l-4.25 17.76h-3.62l-3.6-12.528-3.63 12.528h-3.62ZM1294.21 39.512c-.38 0-.82-.04-1.32-.12-.5-.064-.98-.224-1.44-.48-.45-.256-.82-.64-1.13-1.152-.29-.528-.43-1.248-.43-2.16v-9.912c0-.784.12-1.44.36-1.968s.56-.944.96-1.248c.4-.304.84-.52 1.32-.648.48-.128.95-.192 1.42-.192 1.2 0 2.25.016 3.16.048.93.032 1.76.072 2.5.12.74.032 1.41.08 2.02.144v2.976H1295c-.49 0-.88.12-1.15.36-.27.24-.41.608-.41 1.104v2.568l7.03.192v2.808l-7.03.192v2.448c0 .416.07.744.19.984.15.224.33.384.56.48.24.08.48.12.74.12h6.7v2.976c-.71.08-1.49.144-2.36.192-.84.048-1.71.088-2.59.12-.86.032-1.69.048-2.47.048ZM1310.4 39.392v-17.76h6.98c1.76 0 3.04.408 3.84 1.224.82.8 1.23 1.944 1.23 3.432 0 .704-.11 1.328-.32 1.872-.19.528-.47.968-.84 1.32-.36.336-.8.568-1.32.696.39.096.76.248 1.11.456.37.208.69.488.98.84.31.352.54.784.7 1.296.17.496.26 1.072.26 1.728 0 1.2-.21 2.16-.62 2.88-.4.72-1 1.24-1.8 1.56-.79.304-1.75.456-2.91.456h-7.29Zm3.55-3.192h3.65c.41 0 .77-.08 1.08-.24.3-.16.53-.408.69-.744.18-.336.27-.784.27-1.344 0-.464-.09-.856-.27-1.176-.17-.32-.41-.568-.72-.744-.3-.176-.65-.264-1.05-.264h-3.65V36.2Zm0-7.248h3.46c.51 0 .91-.184 1.2-.552.3-.384.45-.88.45-1.488.02-.784-.14-1.328-.48-1.632-.33-.304-.74-.456-1.22-.456h-3.41v4.128ZM1332.14 39.512c-.98 0-1.89-.08-2.74-.24-.84-.176-1.59-.472-2.23-.888-.62-.432-1.11-1.024-1.46-1.776-.34-.768-.51-1.744-.51-2.928V21.632h3.56v12.024c0 .656.12 1.176.38 1.56.27.384.66.664 1.15.84.51.176 1.13.264 1.85.264.7 0 1.3-.088 1.8-.264.51-.176.9-.456 1.15-.84.27-.384.41-.904.41-1.56V21.632h3.58V33.68c0 1.184-.18 2.16-.53 2.928-.35.752-.84 1.344-1.47 1.776-.62.416-1.36.712-2.2.888-.84.16-1.75.24-2.74.24ZM1346.12 39.392v-5.376l-5.35-12.384h3.7l3.5 8.76 3.48-8.76h3.55l-5.33 12.384v5.376h-3.55ZM1366.88 39.392V24.824H1362v-3.192h13.32v3.192h-4.89v14.568h-3.55ZM1377.24 39.392v-17.76h7.34c.71 0 1.36.088 1.97.264.61.16 1.15.448 1.61.864.46.416.82.992 1.08 1.728.27.736.41 1.68.41 2.832 0 .816-.08 1.512-.24 2.088-.16.576-.38 1.048-.65 1.416-.25.368-.55.664-.89.888-.33.224-.68.408-1.03.552l3.31 7.128h-3.62l-2.86-6.576h-.67c-.24-.016-.49-.024-.74-.024h-.77c-.26 0-.49-.008-.7-.024v6.624h-3.55Zm3.55-9.432h3.17c.32 0 .61-.04.87-.12.25-.08.48-.216.67-.408.19-.208.33-.48.43-.816.11-.336.17-.768.17-1.296 0-.496-.06-.904-.17-1.224-.1-.336-.24-.592-.43-.768-.2-.192-.42-.32-.68-.384-.25-.08-.54-.12-.86-.12h-3.17v5.136ZM1391.16 39.392l5.57-17.76h4.49l5.56 17.76h-3.69l-1.13-3.72h-6.05l-1.1 3.72h-3.65Zm5.59-6.912h4.37l-2.18-7.8-2.19 7.8ZM1408.25 39.392V25.688c0-.784.12-1.44.36-1.968s.56-.944.96-1.248c.4-.304.84-.52 1.32-.648.48-.128.95-.192 1.41-.192.58 0 1.29.008 2.14.024.86 0 1.78.024 2.74.072.97.048 1.91.12 2.8.216v2.976h-6.69c-.5 0-.87.136-1.13.408-.24.256-.36.6-.36 1.032v3.024l7.03.192v2.808l-7.03.192v6.816h-3.55ZM1422.01 39.392V25.688c0-.784.12-1.44.36-1.968s.56-.944.96-1.248c.4-.304.84-.52 1.32-.648.48-.128.95-.192 1.41-.192.58 0 1.29.008 2.14.024.86 0 1.77.024 2.73.072.98.048 1.92.12 2.81.216v2.976h-6.69c-.5 0-.88.136-1.13.408-.24.256-.36.6-.36 1.032v3.024l7.03.192v2.808l-7.03.192v6.816h-3.55ZM1436 39.392v-17.76h3.55v17.76H1436ZM1448.61 39.536c-1.04 0-1.96-.12-2.76-.36-.79-.24-1.46-.68-2.02-1.32-.54-.64-.96-1.552-1.25-2.736-.27-1.2-.4-2.752-.4-4.656 0-1.84.14-3.344.43-4.512.3-1.184.73-2.096 1.29-2.736.56-.656 1.24-1.112 2.04-1.368s1.71-.384 2.72-.384c.8 0 1.54.048 2.23.144.7.08 1.33.184 1.89.312.56.112 1.04.24 1.42.384v2.76c-.29-.064-.68-.128-1.18-.192-.48-.064-1.03-.112-1.65-.144-.63-.048-1.28-.072-1.97-.072-.67 0-1.25.08-1.73.24-.46.144-.84.424-1.13.84-.27.4-.48.984-.62 1.752-.13.768-.19 1.768-.19 3 0 1.184.05 2.16.17 2.928.12.768.32 1.368.6 1.8.27.416.64.712 1.1.888.48.16 1.08.24 1.8.24 1.22 0 2.2-.024 2.95-.072.77-.048 1.39-.104 1.85-.168v2.736c-.43.144-.93.272-1.49.384-.56.096-1.17.168-1.85.216-.67.064-1.42.096-2.25.096Z"/></mask><path stroke="#fff" stroke-width="3" d="m1269.83 39.392-4.25-17.76h3.67l2.86 12.528 3.34-12.528h3.26l3.31 12.528 2.86-12.528h3.67l-4.25 17.76h-3.62l-3.6-12.528-3.63 12.528h-3.62ZM1294.21 39.512c-.38 0-.82-.04-1.32-.12-.5-.064-.98-.224-1.44-.48-.45-.256-.82-.64-1.13-1.152-.29-.528-.43-1.248-.43-2.16v-9.912c0-.784.12-1.44.36-1.968s.56-.944.96-1.248c.4-.304.84-.52 1.32-.648.48-.128.95-.192 1.42-.192 1.2 0 2.25.016 3.16.048.93.032 1.76.072 2.5.12.74.032 1.41.08 2.02.144v2.976H1295c-.49 0-.88.12-1.15.36-.27.24-.41.608-.41 1.104v2.568l7.03.192v2.808l-7.03.192v2.448c0 .416.07.744.19.984.15.224.33.384.56.48.24.08.48.12.74.12h6.7v2.976c-.71.08-1.49.144-2.36.192-.84.048-1.71.088-2.59.12-.86.032-1.69.048-2.47.048ZM1310.4 39.392v-17.76h6.98c1.76 0 3.04.408 3.84 1.224.82.8 1.23 1.944 1.23 3.432 0 .704-.11 1.328-.32 1.872-.19.528-.47.968-.84 1.32-.36.336-.8.568-1.32.696.39.096.76.248 1.11.456.37.208.69.488.98.84.31.352.54.784.7 1.296.17.496.26 1.072.26 1.728 0 1.2-.21 2.16-.62 2.88-.4.72-1 1.24-1.8 1.56-.79.304-1.75.456-2.91.456h-7.29Zm3.55-3.192h3.65c.41 0 .77-.08 1.08-.24.3-.16.53-.408.69-.744.18-.336.27-.784.27-1.344 0-.464-.09-.856-.27-1.176-.17-.32-.41-.568-.72-.744-.3-.176-.65-.264-1.05-.264h-3.65V36.2Zm0-7.248h3.46c.51 0 .91-.184 1.2-.552.3-.384.45-.88.45-1.488.02-.784-.14-1.328-.48-1.632-.33-.304-.74-.456-1.22-.456h-3.41v4.128ZM1332.14 39.512c-.98 0-1.89-.08-2.74-.24-.84-.176-1.59-.472-2.23-.888-.62-.432-1.11-1.024-1.46-1.776-.34-.768-.51-1.744-.51-2.928V21.632h3.56v12.024c0 .656.12 1.176.38 1.56.27.384.66.664 1.15.84.51.176 1.13.264 1.85.264.7 0 1.3-.088 1.8-.264.51-.176.9-.456 1.15-.84.27-.384.41-.904.41-1.56V21.632h3.58V33.68c0 1.184-.18 2.16-.53 2.928-.35.752-.84 1.344-1.47 1.776-.62.416-1.36.712-2.2.888-.84.16-1.75.24-2.74.24ZM1346.12 39.392v-5.376l-5.35-12.384h3.7l3.5 8.76 3.48-8.76h3.55l-5.33 12.384v5.376h-3.55ZM1366.88 39.392V24.824H1362v-3.192h13.32v3.192h-4.89v14.568h-3.55ZM1377.24 39.392v-17.76h7.34c.71 0 1.36.088 1.97.264.61.16 1.15.448 1.61.864.46.416.82.992 1.08 1.728.27.736.41 1.68.41 2.832 0 .816-.08 1.512-.24 2.088-.16.576-.38 1.048-.65 1.416-.25.368-.55.664-.89.888-.33.224-.68.408-1.03.552l3.31 7.128h-3.62l-2.86-6.576h-.67c-.24-.016-.49-.024-.74-.024h-.77c-.26 0-.49-.008-.7-.024v6.624h-3.55Zm3.55-9.432h3.17c.32 0 .61-.04.87-.12.25-.08.48-.216.67-.408.19-.208.33-.48.43-.816.11-.336.17-.768.17-1.296 0-.496-.06-.904-.17-1.224-.1-.336-.24-.592-.43-.768-.2-.192-.42-.32-.68-.384-.25-.08-.54-.12-.86-.12h-3.17v5.136ZM1391.16 39.392l5.57-17.76h4.49l5.56 17.76h-3.69l-1.13-3.72h-6.05l-1.1 3.72h-3.65Zm5.59-6.912h4.37l-2.18-7.8-2.19 7.8ZM1408.25 39.392V25.688c0-.784.12-1.44.36-1.968s.56-.944.96-1.248c.4-.304.84-.52 1.32-.648.48-.128.95-.192 1.41-.192.58 0 1.29.008 2.14.024.86 0 1.78.024 2.74.072.97.048 1.91.12 2.8.216v2.976h-6.69c-.5 0-.87.136-1.13.408-.24.256-.36.6-.36 1.032v3.024l7.03.192v2.808l-7.03.192v6.816h-3.55ZM1422.01 39.392V25.688c0-.784.12-1.44.36-1.968s.56-.944.96-1.248c.4-.304.84-.52 1.32-.648.48-.128.95-.192 1.41-.192.58 0 1.29.008 2.14.024.86 0 1.77.024 2.73.072.98.048 1.92.12 2.81.216v2.976h-6.69c-.5 0-.88.136-1.13.408-.24.256-.36.6-.36 1.032v3.024l7.03.192v2.808l-7.03.192v6.816h-3.55ZM1436 39.392v-17.76h3.55v17.76H1436ZM1448.61 39.536c-1.04 0-1.96-.12-2.76-.36-.79-.24-1.46-.68-2.02-1.32-.54-.64-.96-1.552-1.25-2.736-.27-1.2-.4-2.752-.4-4.656 0-1.84.14-3.344.43-4.512.3-1.184.73-2.096 1.29-2.736.56-.656 1.24-1.112 2.04-1.368s1.71-.384 2.72-.384c.8 0 1.54.048 2.23.144.7.08 1.33.184 1.89.312.56.112 1.04.24 1.42.384v2.76c-.29-.064-.68-.128-1.18-.192-.48-.064-1.03-.112-1.65-.144-.63-.048-1.28-.072-1.97-.072-.67 0-1.25.08-1.73.24-.46.144-.84.424-1.13.84-.27.4-.48.984-.62 1.752-.13.768-.19 1.768-.19 3 0 1.184.05 2.16.17 2.928.12.768.32 1.368.6 1.8.27.416.64.712 1.1.888.48.16 1.08.24 1.8.24 1.22 0 2.2-.024 2.95-.072.77-.048 1.39-.104 1.85-.168v2.736c-.43.144-.93.272-1.49.384-.56.096-1.17.168-1.85.216-.67.064-1.42.096-2.25.096Z" mask="url(#e)"/></g><defs><clipPath id="a"><path fill="#fff" d="M0 0h1454.1l.0011 61H.0011z"/></clipPath></defs></svg>