<svg xmlns="http://www.w3.org/2000/svg" width="375" height="44" fill="none"><g clip-path="url(#a)"><path fill="#E9A923" d="M-50.3247.1603h475.999l.0008 43h-475.999z"/><path fill="#fff" d="m-47.2204 27.1603-2.8322-11.84h2.448l1.9041 8.352 2.2239-8.352h2.176l2.2081 8.352 1.9039-8.352h2.448l-2.8318 11.84h-2.416l-2.4002-8.352-2.4158 8.352h-2.416Zm16.2531.08c-.256 0-.5493-.0267-.88-.08-.3307-.0427-.6507-.1494-.96-.32-.2987-.1707-.5494-.4267-.752-.768-.192-.352-.288-.832-.2881-1.44l-.0001-6.608c0-.5227.08-.96.24-1.312.16-.352.3733-.6294.64-.832a2.509 2.509 0 0 1 .88-.432c.32-.0854.6346-.128.944-.128.8 0 1.504.0106 2.112.032.6186.0213 1.1733.048 1.664.08.4906.0213.9386.0533 1.344.096v1.984h-4.416c-.3306 0-.5866.08-.768.24-.1813.16-.272.4053-.272.736l.0001 1.712 4.688.128v1.872l-4.688.128v1.632c0 .2773.0427.496.128.656.0961.1493.2187.256.3681.32.16.0533.3253.08.496.08h4.464v1.984c-.4693.0533-.992.096-1.568.128a86.144 86.144 0 0 1-1.728.08c-.576.0213-1.1253.032-1.648.032Zm10.7919-.08-.0002-11.84h4.656c1.1733 0 2.0266.272 2.56.816.544.5333.816 1.296.816 2.288 0 .4693-.0693.8853-.208 1.248-.128.352-.3146.6453-.56.88-.2453.224-.5386.3786-.8799.464.256.064.5013.1653.736.304.2453.1386.464.3253.656.56.2026.2346.3573.5226.464.864.1173.3306.176.7146.176 1.152 0 .8-.1386 1.44-.416 1.92-.2666.48-.6666.8266-1.1999 1.04-.5227.2026-1.168.304-1.936.304h-4.864Zm2.3679-2.128h2.432c.2774 0 .5174-.0534.72-.16.2027-.1067.3574-.272.464-.496.1173-.224.176-.5227.176-.896 0-.3094-.0587-.5707-.176-.784-.1173-.2134-.2774-.3787-.48-.496-.2027-.1174-.4374-.176-.704-.176h-2.432v3.008Zm-.0001-4.832h2.304c.3414 0 .608-.1227.8-.368.2027-.256.304-.5867.304-.992.0107-.5227-.096-.8854-.32-1.088-.224-.2027-.496-.304-.816-.304h-2.272v2.752Zm12.1274 7.04c-.6506 0-1.2587-.0534-1.824-.16-.5653-.1174-1.0613-.3147-1.488-.592-.416-.288-.7413-.6827-.976-1.184-.224-.512-.336-1.1627-.336-1.952l-.0002-8.032h2.368l.0001 8.016c0 .4373.0854.784.256 1.04.1814.256.4374.4426.768.56.3414.1173.752.176 1.232.176.4694 0 .8694-.0587 1.2-.176.3414-.1174.5974-.304.768-.56.1814-.256.272-.6027.272-1.04l-.0001-8.016h2.384l.0002 8.032c0 .7893-.1174 1.44-.352 1.952-.2347.5013-.56.896-.976 1.184-.416.2773-.9066.4746-1.472.592-.5547.1066-1.1626.16-1.824.16Zm9.3208-.08-.0001-3.584-3.5681-8.256h2.464l2.336 5.84 2.32-5.84h2.368l-3.5519 8.256v3.584h-2.368Zm13.8358 0-.0001-9.712h-3.248l-.0001-2.128h8.88l.0001 2.128h-3.264l.0001 9.712h-2.368Zm6.9107 0-.0002-11.84h4.896c.4693 0 .9066.0586 1.312.176.4053.1066.7626.2986 1.072.576.3093.2773.5493.6613.72 1.152.1813.4906.272 1.12.272 1.888 0 .544-.0533 1.008-.16 1.392-.1066.384-.2506.6986-.4319.944-.1707.2453-.368.4426-.592.592a3.9113 3.9113 0 0 1-.688.368l2.2081 4.752h-2.416l-1.9041-4.384h-.448a7.4364 7.4364 0 0 0-.496-.016h-.512a6.1291 6.1291 0 0 1-.464-.016l.0001 4.416h-2.368Zm2.3679-6.288h2.112c.2133 0 .4053-.0267.576-.08.1706-.0534.32-.144.4479-.272.128-.1387.224-.32.288-.544.0747-.224.112-.512.112-.864 0-.3307-.0373-.6027-.112-.816-.064-.224-.16-.3947-.288-.512-.128-.128-.2773-.2134-.448-.256-.1707-.0534-.3627-.08-.576-.08h-2.112l.0001 3.424Zm6.9113 6.288 3.7118-11.84h2.992l3.7122 11.84h-2.464l-.752-2.48h-4.032l-.736 2.48h-2.432Zm3.7279-4.608h2.912l-1.4561-5.2-1.4559 5.2Zm7.6647 4.608-.0001-9.136c0-.5227.08-.96.24-1.312.1599-.352.3733-.6294.6399-.832.2667-.2027.56-.3467.88-.432.32-.0854.6347-.128.944-.128.384 0 .8587.0053 1.424.016.576 0 1.184.016 1.824.048.6507.032 1.2747.08 1.872.144l.0001 1.984h-4.464c-.3307 0-.5814.0906-.752.272-.16.1706-.24.4-.24.688v2.016l4.688.128.0001 1.872-4.688.128v4.544h-2.368Zm9.1719 0-.0001-9.136c-.0001-.5227.0799-.96.2399-1.312.16-.352.3733-.6294.64-.832.2667-.2027.56-.3467.88-.432.32-.0854.6347-.128.944-.128.384 0 .8587.0053 1.424.016.576 0 1.184.016 1.824.048.6507.032 1.2747.08 1.872.144v1.984h-4.464c-.3306 0-.5813.0906-.752.272-.1599.1706-.2399.4-.2399.688v2.016l4.688.128v1.872l-4.688.128.0001 4.544h-2.368Zm9.3281 0-.0002-11.84h2.368l.0002 11.84h-2.368Zm8.4059.096c-.6933 0-1.3066-.08-1.84-.24-.5227-.16-.9707-.4534-1.344-.88-.3627-.4267-.64-1.0347-.832-1.824-.1814-.8-.2721-1.8347-.2721-3.104 0-1.2267.096-2.2294.288-3.008.2026-.7894.4906-1.3974.8639-1.824.3733-.4374.8267-.7414 1.36-.912.5333-.1707 1.136-.256 1.808-.256.5333 0 1.0293.032 1.488.096.4693.0533.8907.1226 1.264.208.3733.0746.688.16.944.256v1.84c-.192-.0427-.4533-.0854-.784-.128-.32-.0427-.688-.0747-1.104-.096a17.127 17.127 0 0 0-1.312-.048c-.448 0-.832.0533-1.152.16-.3093.096-.56.2826-.7519.56-.1814.2666-.32.656-.416 1.168-.0854.512-.128 1.1786-.128 2 0 .7893.0374 1.44.112 1.952.0854.512.2187.912.4001 1.2.1813.2773.4266.4746.736.592.32.1066.72.16 1.2.16.8106 0 1.4666-.016 1.968-.048.512-.032.9226-.0694 1.232-.112v1.824c-.288.096-.6186.1813-.992.256-.3733.064-.784.112-1.232.144-.448.0426-.9493.064-1.504.064Z"/><mask id="b" width="128" height="14" x="107.675" y="14.6362" fill="#000" maskUnits="userSpaceOnUse"><path fill="#fff" d="M107.675 14.6362h128v14h-128z"/><path d="m111.508 27.5882-2.833-11.84h2.448l1.904 8.352 2.224-8.352h2.176l2.208 8.352 1.904-8.352h2.448l-2.831 11.84h-2.416l-2.401-8.352-2.415 8.352h-2.416ZM127.761 27.6682c-.256 0-.55-.0266-.88-.08-.331-.0426-.651-.1493-.96-.32-.299-.1706-.55-.4266-.752-.768-.192-.352-.288-.832-.288-1.44l-.001-6.608c0-.5226.08-.96.24-1.312.16-.352.374-.6293.64-.832.267-.2026.56-.3466.88-.432.32-.0853.635-.128.944-.128.8 0 1.504.0107 2.112.032.619.0214 1.174.048 1.664.08.491.0214.939.0534 1.344.096v1.984h-4.416c-.33 0-.586.08-.768.24-.181.16-.272.4054-.272.736l.001 1.712 4.688.128v1.872l-4.688.128v1.632c0 .2774.042.496.128.656.096.1494.218.256.368.32.16.0534.325.08.496.08h4.464v1.984c-.47.0534-.992.096-1.568.128-.566.032-1.142.0587-1.728.08a44.485 44.485 0 0 1-1.648.032ZM138.553 27.5882l-.001-11.84h4.656c1.174 0 2.027.272 2.56.816.544.5334.816 1.296.816 2.288 0 .4694-.069.8854-.208 1.248-.128.352-.314.6454-.56.88-.245.224-.538.3787-.88.464.256.064.502.1654.736.304.246.1387.464.3254.656.56.203.2347.358.5227.464.864.118.3307.176.7147.176 1.152 0 .8-.138 1.44-.416 1.92-.266.48-.666.8267-1.199 1.04-.523.2027-1.168.304-1.936.304h-4.864Zm2.367-2.128h2.432c.278 0 .518-.0533.72-.16.203-.1066.358-.272.464-.496.118-.224.176-.5226.176-.896 0-.3093-.058-.5706-.176-.784-.117-.2133-.277-.3786-.48-.496-.202-.1173-.437-.176-.704-.176h-2.432v3.008Zm0-4.832h2.304c.342 0 .608-.1226.8-.368.203-.256.304-.5866.304-.992.011-.5226-.096-.8853-.32-1.088-.224-.2026-.496-.304-.816-.304h-2.272v2.752ZM153.048 27.6682c-.651 0-1.259-.0533-1.824-.16-.566-.1173-1.062-.3146-1.488-.592-.416-.288-.742-.6826-.976-1.184-.224-.512-.336-1.1626-.336-1.952v-8.032h2.368v8.016c0 .4374.085.784.256 1.04.181.256.437.4427.768.56.341.1174.752.176 1.232.176.469 0 .869-.0586 1.2-.176.341-.1173.597-.304.768-.56.181-.256.272-.6026.272-1.04v-8.016h2.384v8.032c0 .7894-.118 1.44-.352 1.952-.235.5014-.56.896-.976 1.184-.416.2774-.907.4747-1.472.592-.555.1067-1.163.16-1.824.16ZM162.369 27.5882l-.001-3.584-3.568-8.256h2.464l2.336 5.84 2.32-5.84h2.368l-3.552 8.256.001 3.584h-2.368ZM176.204 27.5882v-9.712h-3.248v-2.128h8.88v2.128h-3.264v9.712h-2.368ZM183.115 27.5882v-11.84h4.896c.469 0 .906.0587 1.312.176.405.1067.762.2987 1.072.576.309.2774.549.6614.72 1.152.181.4907.272 1.12.272 1.888 0 .544-.053 1.008-.16 1.392-.107.384-.251.6987-.432.944-.171.2454-.368.4427-.592.592-.224.1494-.453.272-.688.368l2.208 4.752h-2.416l-1.904-4.384h-.448a7.4976 7.4976 0 0 0-.496-.016h-.512c-.171 0-.325-.0053-.464-.016v4.416h-2.368Zm2.368-6.288h2.112c.213 0 .405-.0266.576-.08.171-.0533.32-.144.448-.272.128-.1386.224-.32.288-.544.075-.224.112-.512.112-.864 0-.3306-.037-.6026-.112-.816-.064-.224-.16-.3946-.288-.512-.128-.128-.277-.2133-.448-.256-.171-.0533-.363-.08-.576-.08h-2.112v3.424ZM192.394 27.5882l3.712-11.84h2.992l3.712 11.84h-2.464l-.752-2.48h-4.032l-.736 2.48h-2.432Zm3.728-4.608h2.912l-1.456-5.2-1.456 5.2ZM203.787 27.5882v-9.136c0-.5226.08-.96.24-1.312.16-.352.373-.6293.64-.832.266-.2026.56-.3466.88-.432.32-.0853.634-.128.944-.128.384 0 .858.0054 1.424.016.576 0 1.184.016 1.824.048.65.032 1.274.08 1.872.144v1.984h-4.464c-.331 0-.582.0907-.752.272-.16.1707-.24.4-.24.688v2.016l4.688.128v1.872l-4.688.128v4.544h-2.368ZM212.959 27.5882v-9.136c0-.5226.08-.96.24-1.312.16-.352.373-.6293.64-.832.266-.2026.56-.3466.88-.432.32-.0853.634-.128.944-.128.384 0 .858.0054 1.424.016.576 0 1.184.016 1.824.048.65.032 1.274.08 1.872.144v1.984h-4.464c-.331 0-.582.0907-.752.272-.16.1707-.24.4-.24.688v2.016l4.688.128v1.872l-4.688.128v4.544h-2.368ZM222.287 27.5882v-11.84h2.368v11.84h-2.368ZM230.693 27.6842c-.694 0-1.307-.08-1.84-.24-.523-.16-.971-.4533-1.344-.88-.363-.4266-.64-1.0346-.832-1.824-.182-.8-.272-1.8346-.272-3.104 0-1.2266.096-2.2293.288-3.008.202-.7893.49-1.3973.864-1.824.373-.4373.826-.7413 1.36-.912.533-.1706 1.136-.256 1.808-.256.533 0 1.029.032 1.488.096.469.0534.89.1227 1.264.208.373.0747.688.16.944.256v1.84c-.192-.0426-.454-.0853-.784-.128-.32-.0426-.688-.0746-1.104-.096-.416-.032-.854-.048-1.312-.048-.448 0-.832.0534-1.152.16-.31.096-.56.2827-.752.56-.182.2667-.32.656-.416 1.168-.086.512-.128 1.1787-.128 2 0 .7894.037 1.44.112 1.952.085.512.218.912.4 1.2.181.2774.426.4747.736.592.32.1067.72.16 1.2.16.81 0 1.466-.016 1.968-.048.512-.032.922-.0693 1.232-.112v1.824c-.288.096-.619.1814-.992.256-.374.064-.784.112-1.232.144-.448.0427-.95.064-1.504.064Z"/></mask><path stroke="#fff" stroke-width="1.5" d="m111.508 27.5882-2.833-11.84h2.448l1.904 8.352 2.224-8.352h2.176l2.208 8.352 1.904-8.352h2.448l-2.831 11.84h-2.416l-2.401-8.352-2.415 8.352h-2.416ZM127.761 27.6682c-.256 0-.55-.0266-.88-.08-.331-.0426-.651-.1493-.96-.32-.299-.1706-.55-.4266-.752-.768-.192-.352-.288-.832-.288-1.44l-.001-6.608c0-.5226.08-.96.24-1.312.16-.352.374-.6293.64-.832.267-.2026.56-.3466.88-.432.32-.0853.635-.128.944-.128.8 0 1.504.0107 2.112.032.619.0214 1.174.048 1.664.08.491.0214.939.0534 1.344.096v1.984h-4.416c-.33 0-.586.08-.768.24-.181.16-.272.4054-.272.736l.001 1.712 4.688.128v1.872l-4.688.128v1.632c0 .2774.042.496.128.656.096.1494.218.256.368.32.16.0534.325.08.496.08h4.464v1.984c-.47.0534-.992.096-1.568.128-.566.032-1.142.0587-1.728.08a44.485 44.485 0 0 1-1.648.032ZM138.553 27.5882l-.001-11.84h4.656c1.174 0 2.027.272 2.56.816.544.5334.816 1.296.816 2.288 0 .4694-.069.8854-.208 1.248-.128.352-.314.6454-.56.88-.245.224-.538.3787-.88.464.256.064.502.1654.736.304.246.1387.464.3254.656.56.203.2347.358.5227.464.864.118.3307.176.7147.176 1.152 0 .8-.138 1.44-.416 1.92-.266.48-.666.8267-1.199 1.04-.523.2027-1.168.304-1.936.304h-4.864Zm2.367-2.128h2.432c.278 0 .518-.0533.72-.16.203-.1066.358-.272.464-.496.118-.224.176-.5226.176-.896 0-.3093-.058-.5706-.176-.784-.117-.2133-.277-.3786-.48-.496-.202-.1173-.437-.176-.704-.176h-2.432v3.008Zm0-4.832h2.304c.342 0 .608-.1226.8-.368.203-.256.304-.5866.304-.992.011-.5226-.096-.8853-.32-1.088-.224-.2026-.496-.304-.816-.304h-2.272v2.752ZM153.048 27.6682c-.651 0-1.259-.0533-1.824-.16-.566-.1173-1.062-.3146-1.488-.592-.416-.288-.742-.6826-.976-1.184-.224-.512-.336-1.1626-.336-1.952v-8.032h2.368v8.016c0 .4374.085.784.256 1.04.181.256.437.4427.768.56.341.1174.752.176 1.232.176.469 0 .869-.0586 1.2-.176.341-.1173.597-.304.768-.56.181-.256.272-.6026.272-1.04v-8.016h2.384v8.032c0 .7894-.118 1.44-.352 1.952-.235.5014-.56.896-.976 1.184-.416.2774-.907.4747-1.472.592-.555.1067-1.163.16-1.824.16ZM162.369 27.5882l-.001-3.584-3.568-8.256h2.464l2.336 5.84 2.32-5.84h2.368l-3.552 8.256.001 3.584h-2.368ZM176.204 27.5882v-9.712h-3.248v-2.128h8.88v2.128h-3.264v9.712h-2.368ZM183.115 27.5882v-11.84h4.896c.469 0 .906.0587 1.312.176.405.1067.762.2987 1.072.576.309.2774.549.6614.72 1.152.181.4907.272 1.12.272 1.888 0 .544-.053 1.008-.16 1.392-.107.384-.251.6987-.432.944-.171.2454-.368.4427-.592.592-.224.1494-.453.272-.688.368l2.208 4.752h-2.416l-1.904-4.384h-.448a7.4976 7.4976 0 0 0-.496-.016h-.512c-.171 0-.325-.0053-.464-.016v4.416h-2.368Zm2.368-6.288h2.112c.213 0 .405-.0266.576-.08.171-.0533.32-.144.448-.272.128-.1386.224-.32.288-.544.075-.224.112-.512.112-.864 0-.3306-.037-.6026-.112-.816-.064-.224-.16-.3946-.288-.512-.128-.128-.277-.2133-.448-.256-.171-.0533-.363-.08-.576-.08h-2.112v3.424ZM192.394 27.5882l3.712-11.84h2.992l3.712 11.84h-2.464l-.752-2.48h-4.032l-.736 2.48h-2.432Zm3.728-4.608h2.912l-1.456-5.2-1.456 5.2ZM203.787 27.5882v-9.136c0-.5226.08-.96.24-1.312.16-.352.373-.6293.64-.832.266-.2026.56-.3466.88-.432.32-.0853.634-.128.944-.128.384 0 .858.0054 1.424.016.576 0 1.184.016 1.824.048.65.032 1.274.08 1.872.144v1.984h-4.464c-.331 0-.582.0907-.752.272-.16.1707-.24.4-.24.688v2.016l4.688.128v1.872l-4.688.128v4.544h-2.368ZM212.959 27.5882v-9.136c0-.5226.08-.96.24-1.312.16-.352.373-.6293.64-.832.266-.2026.56-.3466.88-.432.32-.0853.634-.128.944-.128.384 0 .858.0054 1.424.016.576 0 1.184.016 1.824.048.65.032 1.274.08 1.872.144v1.984h-4.464c-.331 0-.582.0907-.752.272-.16.1707-.24.4-.24.688v2.016l4.688.128v1.872l-4.688.128v4.544h-2.368ZM222.287 27.5882v-11.84h2.368v11.84h-2.368ZM230.693 27.6842c-.694 0-1.307-.08-1.84-.24-.523-.16-.971-.4533-1.344-.88-.363-.4266-.64-1.0346-.832-1.824-.182-.8-.272-1.8346-.272-3.104 0-1.2266.096-2.2293.288-3.008.202-.7893.49-1.3973.864-1.824.373-.4373.826-.7413 1.36-.912.533-.1706 1.136-.256 1.808-.256.533 0 1.029.032 1.488.096.469.0534.89.1227 1.264.208.373.0747.688.16.944.256v1.84c-.192-.0426-.454-.0853-.784-.128-.32-.0426-.688-.0746-1.104-.096-.416-.032-.854-.048-1.312-.048-.448 0-.832.0534-1.152.16-.31.096-.56.2827-.752.56-.182.2667-.32.656-.416 1.168-.086.512-.128 1.1787-.128 2 0 .7894.037 1.44.112 1.952.085.512.218.912.4 1.2.181.2774.426.4747.736.592.32.1067.72.16 1.2.16.81 0 1.466-.016 1.968-.048.512-.032.922-.0693 1.232-.112v1.824c-.288.096-.619.1814-.992.256-.374.064-.784.112-1.232.144-.448.0427-.95.064-1.504.064Z" mask="url(#b)"/><path fill="#fff" d="m269.525 27.1603-2.833-11.84h2.448l1.905 8.352 2.223-8.352h2.176l2.209 8.352 1.903-8.352h2.448l-2.831 11.84h-2.416l-2.4-8.352-2.416 8.352h-2.416Zm16.253.08c-.256 0-.55-.0267-.88-.08-.331-.0427-.651-.1494-.96-.32-.299-.1707-.55-.4267-.752-.768-.192-.352-.288-.832-.288-1.44v-6.608c0-.5227.08-.96.24-1.312.16-.352.373-.6294.64-.832a2.504 2.504 0 0 1 .88-.432c.32-.0854.634-.128.944-.128.8 0 1.504.0106 2.112.032.618.0213 1.173.048 1.664.08.49.0213.938.0533 1.344.096v1.984h-4.416c-.331 0-.587.08-.768.24-.182.16-.272.4053-.272.736v1.712l4.688.128v1.872l-4.688.128v1.632c0 .2773.042.496.128.656.096.1493.218.256.368.32.16.0533.325.08.496.08h4.464v1.984c-.47.0533-.992.096-1.568.128-.566.032-1.142.0586-1.728.08-.576.0213-1.126.032-1.648.032Zm10.792-.08-.001-11.84h4.656c1.174 0 2.027.272 2.56.816.544.5333.817 1.296.817 2.288 0 .4693-.07.8853-.208 1.248-.128.352-.315.6453-.56.88-.246.224-.539.3786-.88.464.256.064.501.1653.736.304.245.1386.464.3253.656.56.202.2346.357.5226.464.864.117.3306.176.7146.176 1.152 0 .8-.139 1.44-.416 1.92-.267.48-.667.8266-1.2 1.04-.523.2026-1.168.304-1.936.304h-4.864Zm2.368-2.128h2.432c.277 0 .517-.0534.72-.16.202-.1067.357-.272.464-.496.117-.224.176-.5227.176-.896 0-.3094-.059-.5707-.176-.784-.118-.2134-.278-.3787-.48-.496-.203-.1174-.438-.176-.704-.176h-2.432v3.008Zm0-4.832h2.304c.341 0 .608-.1227.8-.368.202-.256.304-.5867.304-.992.01-.5227-.096-.8854-.32-1.088-.224-.2027-.496-.304-.816-.304h-2.272v2.752Zm12.127 7.04c-.651 0-1.259-.0534-1.824-.16-.565-.1174-1.061-.3147-1.488-.592-.416-.288-.741-.6827-.976-1.184-.224-.512-.336-1.1627-.336-1.952v-8.032h2.368v8.016c0 .4373.085.784.256 1.04.181.256.437.4426.768.56.341.1173.752.176 1.232.176.469 0 .869-.0587 1.2-.176.341-.1174.597-.304.768-.56.181-.256.272-.6027.272-1.04v-8.016h2.384v8.032c0 .7893-.117 1.44-.352 1.952-.235.5013-.56.896-.976 1.184-.416.2773-.907.4746-1.472.592-.555.1066-1.163.16-1.824.16Zm9.321-.08v-3.584l-3.569-8.256h2.464l2.337 5.84 2.319-5.84h2.368l-3.551 8.256v3.584h-2.368Zm13.836 0-.001-9.712h-3.248v-2.128h8.88v2.128h-3.264l.001 9.712h-2.368Zm6.91 0v-11.84h4.896c.469 0 .907.0586 1.312.176.405.1066.763.2986 1.072.576.309.2773.549.6613.72 1.152.181.4906.272 1.12.272 1.888 0 .544-.053 1.008-.16 1.392-.107.384-.251.6986-.432.944-.171.2453-.368.4426-.592.592-.224.1493-.453.272-.688.368l2.208 4.752h-2.416l-1.904-4.384h-.448a7.4298 7.4298 0 0 0-.496-.016h-.512c-.171 0-.325-.0054-.464-.016v4.416h-2.368Zm2.368-6.288h2.112c.213 0 .405-.0267.576-.08.171-.0534.32-.144.448-.272.128-.1387.224-.32.288-.544.075-.224.112-.512.112-.864 0-.3307-.037-.6027-.112-.816-.064-.224-.16-.3947-.288-.512-.128-.128-.277-.2134-.448-.256-.171-.0534-.363-.08-.576-.08H343.5v3.424Zm6.911 6.288 3.712-11.84h2.992l3.712 11.84h-2.464l-.752-2.48h-4.032l-.736 2.48h-2.432Zm3.728-4.608h2.912l-1.456-5.2-1.456 5.2Zm7.665 4.608v-9.136c0-.5227.08-.96.24-1.312.16-.352.373-.6294.64-.832.267-.2027.56-.3467.88-.432.32-.0854.635-.128.944-.128.384 0 .859.0053 1.424.016.576 0 1.184.016 1.824.048.651.032 1.275.08 1.872.144v1.984h-4.464c-.331 0-.581.0906-.752.272-.16.1706-.24.4-.24.688v2.016l4.688.128v1.872l-4.688.128v4.544h-2.368Zm9.172 0v-9.136c0-.5227.08-.96.24-1.312.16-.352.373-.6294.64-.832a2.504 2.504 0 0 1 .88-.432c.32-.0854.634-.128.944-.128.384 0 .858.0053 1.424.016.576 0 1.184.016 1.824.048.65.032 1.274.08 1.872.144v1.984h-4.464c-.331 0-.582.0906-.752.272-.16.1706-.24.4-.24.688v2.016l4.688.128v1.872l-4.688.128v4.544h-2.368Zm9.328 0v-11.84h2.368v11.84h-2.368Zm8.406.096c-.693 0-1.307-.08-1.84-.24-.523-.16-.971-.4534-1.344-.88-.363-.4267-.64-1.0347-.832-1.824-.181-.8-.272-1.8347-.272-3.104 0-1.2267.096-2.2294.288-3.008.202-.7894.49-1.3974.864-1.824.373-.4374.826-.7414 1.36-.912.533-.1707 1.136-.256 1.808-.256.533 0 1.029.032 1.488.096.469.0533.89.1226 1.264.208.373.0746.688.16.944.256v1.84c-.192-.0427-.454-.0854-.784-.128-.32-.0427-.688-.0747-1.104-.096-.416-.032-.854-.048-1.312-.048-.448 0-.832.0533-1.152.16-.31.096-.56.2826-.752.56-.182.2666-.32.656-.416 1.168-.086.512-.128 1.1786-.128 2 0 .7893.037 1.44.112 1.952.085.512.219.912.4 1.2.181.2773.427.4746.736.592.32.1066.72.16 1.2.16.811 0 1.467-.016 1.968-.048.512-.032.923-.0694 1.232-.112v1.824c-.288.096-.619.1813-.992.256-.373.064-.784.112-1.232.144-.448.0426-.949.064-1.504.064Z"/></g><defs><clipPath id="a"><path fill="#fff" d="M-50.3247.1603h475.999l.0008 43h-475.999z"/></clipPath></defs></svg>